<?xml version="1.0" encoding="utf-8"?>
<!-- Generator: Adobe Illustrator 26.3.1, SVG Export Plug-In . SVG Version: 6.00 Build 0)  -->
<svg version="1.1" id="Layer_2_00000149368821287906449030000013202412937029463433_"
	 xmlns="http://www.w3.org/2000/svg" xmlns:xlink="http://www.w3.org/1999/xlink" x="0px" y="0px" viewBox="0 0 657.8 28"
	 style="enable-background:new 0 0 657.8 28;" xml:space="preserve">
<style type="text/css">
	.st0{enable-background:new    ;}
	.st1{fill:#A65D42;}
</style>
<g id="Layer_1-2">
	<g class="st0">
		<path class="st1" d="M69.3,21.4c-0.6,1-1.3,1.9-2,2.7c-0.7,0.8-1.6,1.5-2.5,2.1c-0.9,0.6-2,1-3.1,1.3c-1.1,0.3-2.4,0.5-3.7,0.5
			c-1.7,0-3.3-0.3-4.8-1c-1.5-0.6-2.8-1.5-3.9-2.6c-1.1-1.1-2-2.4-2.6-3.8c-0.6-1.5-1-3-1-4.7c0-1.7,0.3-3.2,1-4.7
			c0.6-1.5,1.5-2.8,2.6-3.8c1.1-1.1,2.4-2,3.9-2.6c1.5-0.6,3.1-1,4.8-1c1.4,0,2.7,0.2,3.8,0.5c1.1,0.3,2.2,0.8,3.1,1.3
			c0.9,0.6,1.7,1.3,2.5,2.1c0.7,0.8,1.4,1.7,2,2.7c0.1,0.2,0.1,0.4,0.1,0.5c-0.1,0.2-0.2,0.3-0.4,0.4l-4.5,1.8
			c-0.2,0.1-0.4,0.1-0.6,0c-0.2-0.1-0.4-0.2-0.5-0.4c-0.6-1-1.4-1.7-2.2-2.3c-0.9-0.5-1.9-0.8-3.2-0.8c-0.8,0-1.6,0.2-2.3,0.5
			s-1.3,0.8-1.9,1.4c-0.5,0.6-0.9,1.2-1.2,2S52,15.1,52,15.9c0,0.8,0.1,1.6,0.4,2.3c0.3,0.7,0.7,1.4,1.2,1.9s1.2,1,1.9,1.3
			s1.5,0.5,2.3,0.5c1.2,0,2.2-0.3,3.2-0.8c0.9-0.6,1.7-1.3,2.3-2.2c0.1-0.2,0.3-0.3,0.5-0.4c0.2-0.1,0.4-0.1,0.6,0l4.5,1.8
			c0.2,0.1,0.3,0.2,0.4,0.4C69.4,21,69.4,21.2,69.3,21.4z"/>
		<path class="st1" d="M70.6,15.9c0-1.7,0.3-3.2,1-4.7s1.5-2.8,2.6-3.9c1.1-1.1,2.4-2,3.8-2.6c1.5-0.6,3-1,4.7-1
			c1.7,0,3.2,0.3,4.7,1c1.5,0.6,2.8,1.5,3.9,2.6c1.1,1.1,2,2.4,2.6,3.9c0.6,1.5,1,3,1,4.7c0,1.7-0.3,3.2-1,4.7
			c-0.6,1.5-1.5,2.8-2.6,3.9c-1.1,1.1-2.4,2-3.9,2.6c-1.5,0.6-3,1-4.7,1c-1.7,0-3.2-0.3-4.7-1c-1.5-0.6-2.8-1.5-3.8-2.6
			c-1.1-1.1-2-2.4-2.6-3.9C71,19.1,70.6,17.5,70.6,15.9z M77,15.9c0,0.8,0.1,1.6,0.4,2.3c0.3,0.7,0.7,1.4,1.2,1.9
			c0.5,0.6,1.1,1,1.8,1.3c0.7,0.3,1.5,0.5,2.2,0.5s1.5-0.2,2.2-0.5c0.7-0.3,1.3-0.8,1.9-1.3c0.5-0.6,0.9-1.2,1.2-1.9
			c0.3-0.7,0.4-1.5,0.4-2.3c0-0.8-0.1-1.6-0.4-2.3c-0.3-0.7-0.7-1.4-1.2-1.9c-0.5-0.5-1.2-1-1.9-1.3c-0.7-0.3-1.5-0.5-2.2-0.5
			s-1.5,0.2-2.2,0.5c-0.7,0.3-1.3,0.8-1.8,1.3c-0.5,0.5-0.9,1.2-1.2,1.9S77,15.1,77,15.9z"/>
		<path class="st1" d="M124.3,5v21.9c0,0.2-0.1,0.4-0.2,0.5c-0.1,0.1-0.3,0.2-0.5,0.2h-4.8c-0.2,0-0.4-0.1-0.5-0.2s-0.2-0.3-0.2-0.5
			V16.5c0-0.2-0.1-0.3-0.3-0.4c-0.2,0-0.4,0.1-0.5,0.2l-5.4,8.7c-0.1,0.2-0.3,0.3-0.5,0.3c-0.2,0-0.4-0.1-0.5-0.3l-5.4-8.7
			c-0.1-0.2-0.3-0.2-0.4-0.2c-0.2,0-0.3,0.1-0.3,0.4v10.3c0,0.2-0.1,0.4-0.2,0.5s-0.3,0.2-0.5,0.2H99c-0.2,0-0.4-0.1-0.5-0.2
			s-0.2-0.3-0.2-0.5V5c0-0.2,0.1-0.4,0.2-0.5c0.1-0.1,0.3-0.2,0.5-0.2h4.5c0.2,0,0.4,0.1,0.7,0.2c0.2,0.1,0.4,0.3,0.5,0.4l6.2,9
			c0.1,0.2,0.3,0.3,0.4,0.3s0.3-0.1,0.4-0.3l6.2-9c0.1-0.2,0.3-0.3,0.5-0.4c0.2-0.1,0.5-0.2,0.7-0.2h4.5c0.2,0,0.4,0.1,0.5,0.2
			C124.2,4.6,124.3,4.7,124.3,5z"/>
		<path class="st1" d="M155.5,5v21.9c0,0.2-0.1,0.4-0.2,0.5c-0.1,0.1-0.3,0.2-0.5,0.2h-4.8c-0.2,0-0.4-0.1-0.5-0.2s-0.2-0.3-0.2-0.5
			V16.5c0-0.2-0.1-0.3-0.3-0.4c-0.2,0-0.4,0.1-0.5,0.2l-5.4,8.7c-0.1,0.2-0.3,0.3-0.5,0.3c-0.2,0-0.4-0.1-0.5-0.3l-5.4-8.7
			c-0.1-0.2-0.3-0.2-0.4-0.2c-0.2,0-0.3,0.1-0.3,0.4v10.3c0,0.2-0.1,0.4-0.2,0.5s-0.3,0.2-0.5,0.2h-4.8c-0.2,0-0.4-0.1-0.5-0.2
			s-0.2-0.3-0.2-0.5V5c0-0.2,0.1-0.4,0.2-0.5c0.1-0.1,0.3-0.2,0.5-0.2h4.5c0.2,0,0.4,0.1,0.7,0.2c0.2,0.1,0.4,0.3,0.5,0.4l6.2,9
			c0.1,0.2,0.3,0.3,0.4,0.3s0.3-0.1,0.4-0.3l6.2-9c0.1-0.2,0.3-0.3,0.5-0.4c0.2-0.1,0.5-0.2,0.7-0.2h4.5c0.2,0,0.4,0.1,0.5,0.2
			C155.4,4.6,155.5,4.7,155.5,5z"/>
		<path class="st1" d="M158.3,15.9c0-1.7,0.3-3.2,1-4.7s1.5-2.8,2.6-3.9c1.1-1.1,2.4-2,3.8-2.6c1.5-0.6,3-1,4.7-1
			c1.7,0,3.2,0.3,4.7,1c1.5,0.6,2.8,1.5,3.9,2.6c1.1,1.1,2,2.4,2.6,3.9c0.6,1.5,1,3,1,4.7c0,1.7-0.3,3.2-1,4.7
			c-0.6,1.5-1.5,2.8-2.6,3.9c-1.1,1.1-2.4,2-3.9,2.6c-1.5,0.6-3,1-4.7,1c-1.7,0-3.2-0.3-4.7-1c-1.5-0.6-2.8-1.5-3.8-2.6
			c-1.1-1.1-2-2.4-2.6-3.9C158.6,19.1,158.3,17.5,158.3,15.9z M164.6,15.9c0,0.8,0.1,1.6,0.4,2.3c0.3,0.7,0.7,1.4,1.2,1.9
			c0.5,0.6,1.1,1,1.8,1.3c0.7,0.3,1.5,0.5,2.2,0.5s1.5-0.2,2.2-0.5c0.7-0.3,1.3-0.8,1.9-1.3c0.5-0.6,0.9-1.2,1.2-1.9
			c0.3-0.7,0.4-1.5,0.4-2.3c0-0.8-0.1-1.6-0.4-2.3c-0.3-0.7-0.7-1.4-1.2-1.9c-0.5-0.5-1.2-1-1.9-1.3c-0.7-0.3-1.5-0.5-2.2-0.5
			s-1.5,0.2-2.2,0.5c-0.7,0.3-1.3,0.8-1.8,1.3c-0.5,0.5-0.9,1.2-1.2,1.9S164.6,15.1,164.6,15.9z"/>
		<path class="st1" d="M207.8,4.9v21.9c0,0.2-0.1,0.4-0.2,0.5s-0.3,0.2-0.5,0.2h-4.7c-0.2,0-0.4-0.1-0.7-0.2s-0.4-0.3-0.5-0.4
			l-8.3-11.7c-0.1-0.2-0.3-0.2-0.4-0.2c-0.1,0-0.2,0.2-0.2,0.4v11.5c0,0.2-0.1,0.4-0.2,0.5s-0.3,0.2-0.5,0.2h-4.8
			c-0.2,0-0.4-0.1-0.5-0.2s-0.2-0.3-0.2-0.5V4.9c0-0.2,0.1-0.4,0.2-0.5c0.1-0.1,0.3-0.2,0.5-0.2h4.8c0.2,0,0.4,0.1,0.7,0.2
			c0.2,0.1,0.4,0.3,0.5,0.4l8.3,11.7c0.1,0.2,0.3,0.2,0.4,0.2c0.1,0,0.2-0.1,0.2-0.4V4.9c0-0.2,0.1-0.4,0.2-0.5
			c0.1-0.1,0.3-0.2,0.5-0.2h4.7c0.2,0,0.4,0.1,0.5,0.2C207.7,4.5,207.8,4.7,207.8,4.9z"/>
		<path class="st1" d="M221.9,5.1c-0.1-0.3-0.1-0.5,0-0.7c0.1-0.2,0.3-0.3,0.5-0.3h5.2c0.2,0,0.4,0.1,0.6,0.2s0.3,0.3,0.4,0.5
			l3.6,10.7c0.1,0.2,0.2,0.3,0.3,0.3c0.2,0,0.3-0.1,0.3-0.3l3.5-10.6c0.1-0.2,0.2-0.4,0.4-0.5c0.2-0.1,0.4-0.2,0.6-0.2h4.3
			c0.2,0,0.4,0.1,0.6,0.2s0.3,0.3,0.4,0.5l3.5,10.7c0.1,0.2,0.2,0.3,0.3,0.3c0.2,0,0.3-0.1,0.4-0.3l3.7-10.7
			c0.1-0.2,0.2-0.4,0.4-0.5s0.4-0.2,0.6-0.2h5.2c0.2,0,0.4,0.1,0.5,0.3c0.1,0.2,0.1,0.4,0,0.6l-7.7,21.9c-0.1,0.2-0.2,0.4-0.4,0.5
			s-0.4,0.2-0.6,0.2h-4.1c-0.2,0-0.4-0.1-0.6-0.2c-0.2-0.1-0.3-0.3-0.4-0.5l-3.5-10.7c-0.1-0.2-0.2-0.3-0.3-0.3s-0.3,0.1-0.3,0.3
			l-3.5,10.7c-0.1,0.2-0.2,0.4-0.4,0.5c-0.2,0.1-0.4,0.2-0.6,0.2h-4.1c-0.2,0-0.4-0.1-0.6-0.2s-0.3-0.3-0.4-0.5L221.9,5.1z"/>
		<path class="st1" d="M257.8,15.9c0-1.7,0.3-3.2,1-4.7s1.5-2.8,2.6-3.9c1.1-1.1,2.4-2,3.8-2.6c1.5-0.6,3-1,4.7-1
			c1.7,0,3.2,0.3,4.7,1c1.5,0.6,2.8,1.5,3.9,2.6c1.1,1.1,2,2.4,2.6,3.9c0.6,1.5,1,3,1,4.7c0,1.7-0.3,3.2-1,4.7
			c-0.6,1.5-1.5,2.8-2.6,3.9c-1.1,1.1-2.4,2-3.9,2.6c-1.5,0.6-3,1-4.7,1c-1.7,0-3.2-0.3-4.7-1c-1.5-0.6-2.8-1.5-3.8-2.6
			c-1.1-1.1-2-2.4-2.6-3.9C258.1,19.1,257.8,17.5,257.8,15.9z M264.1,15.9c0,0.8,0.1,1.6,0.4,2.3c0.3,0.7,0.7,1.4,1.2,1.9
			c0.5,0.6,1.1,1,1.8,1.3c0.7,0.3,1.5,0.5,2.2,0.5s1.5-0.2,2.2-0.5c0.7-0.3,1.3-0.8,1.9-1.3c0.5-0.6,0.9-1.2,1.2-1.9
			c0.3-0.7,0.4-1.5,0.4-2.3c0-0.8-0.1-1.6-0.4-2.3c-0.3-0.7-0.7-1.4-1.2-1.9c-0.5-0.5-1.2-1-1.9-1.3c-0.7-0.3-1.5-0.5-2.2-0.5
			s-1.5,0.2-2.2,0.5c-0.7,0.3-1.3,0.8-1.8,1.3c-0.5,0.5-0.9,1.2-1.2,1.9S264.1,15.1,264.1,15.9z"/>
		<path class="st1" d="M290.9,27.6h-4.8c-0.2,0-0.4-0.1-0.5-0.2s-0.2-0.3-0.2-0.5V4.9c0-0.2,0.1-0.4,0.2-0.5
			c0.1-0.1,0.3-0.2,0.5-0.2h10c1.2,0,2.4,0.2,3.4,0.6s1.9,1,2.7,1.7c0.7,0.7,1.3,1.6,1.7,2.7c0.4,1,0.6,2.2,0.6,3.4
			c0,0.7-0.1,1.4-0.2,2c-0.2,0.7-0.4,1.3-0.7,1.9c-0.3,0.6-0.7,1.1-1.1,1.6c-0.4,0.5-0.9,0.9-1.4,1.2c-0.2,0.1-0.3,0.3-0.3,0.5
			c-0.1,0.2,0,0.4,0.1,0.5c0.8,1.1,1.7,2.2,2.6,3.3s1.7,2.2,2.4,3.1c0.1,0.2,0.2,0.4,0.1,0.6s-0.2,0.3-0.4,0.3h-6
			c-0.2,0-0.4-0.1-0.7-0.2c-0.2-0.1-0.4-0.3-0.6-0.4c-0.7-0.9-1.4-1.8-2-2.7c-0.7-0.9-1.3-1.8-2-2.8c-0.1-0.2-0.3-0.3-0.5-0.4
			s-0.5-0.2-0.7-0.2h-0.7c-0.2,0-0.4,0.1-0.5,0.2c-0.1,0.1-0.2,0.3-0.2,0.5v5.2c0,0.2-0.1,0.4-0.2,0.5S291.1,27.6,290.9,27.6z
			 M292.4,15h3.4c0.3,0,0.5,0,0.8-0.1c0.3-0.1,0.5-0.2,0.8-0.4c0.2-0.2,0.4-0.5,0.6-0.8c0.1-0.3,0.2-0.7,0.2-1.1
			c0-0.2,0-0.5-0.1-0.8c-0.1-0.3-0.2-0.6-0.4-0.8c-0.2-0.3-0.4-0.5-0.7-0.7c-0.3-0.2-0.7-0.3-1.1-0.3h-3.4c-0.2,0-0.4,0.1-0.5,0.2
			c-0.1,0.1-0.2,0.3-0.2,0.5v3.4c0,0.2,0.1,0.4,0.2,0.5C292,14.9,292.2,15,292.4,15z"/>
		<path class="st1" d="M321.5,27l-6.2-6.9c-0.1-0.2-0.3-0.2-0.4-0.2c-0.1,0-0.1,0.2-0.1,0.4v6.6c0,0.2-0.1,0.4-0.2,0.5
			c-0.1,0.1-0.3,0.2-0.5,0.2h-4.8c-0.2,0-0.4-0.1-0.6-0.2c-0.1-0.1-0.2-0.3-0.2-0.5V4.9c0-0.2,0.1-0.4,0.2-0.5
			c0.1-0.1,0.3-0.2,0.6-0.2h4.8c0.2,0,0.4,0.1,0.5,0.2c0.1,0.1,0.2,0.3,0.2,0.5v7.4c0,0.2,0,0.3,0.1,0.4c0.1,0,0.2,0,0.3-0.2
			l5.8-7.6c0.1-0.2,0.3-0.3,0.5-0.4c0.2-0.1,0.5-0.2,0.7-0.2h6.1c0.2,0,0.4,0.1,0.4,0.3c0.1,0.2,0,0.4-0.1,0.6l-8.4,10.5
			c-0.1,0.2-0.2,0.4-0.2,0.6c0,0.2,0.1,0.4,0.2,0.6c0.7,0.8,1.5,1.6,2.3,2.5c0.8,0.9,1.6,1.7,2.4,2.6c0.8,0.9,1.6,1.7,2.4,2.6
			s1.5,1.6,2.2,2.4c0.1,0.2,0.2,0.4,0.2,0.6c0,0.2-0.2,0.3-0.4,0.3h-6.6c-0.2,0-0.5-0.1-0.7-0.2C321.8,27.3,321.6,27.2,321.5,27z"/>
		<path class="st1" d="M341.7,21.3h-2.8c-0.2,0-0.4,0.1-0.5,0.2c-0.1,0.1-0.2,0.3-0.2,0.5v4.8c0,0.2-0.1,0.4-0.2,0.5
			s-0.3,0.2-0.5,0.2h-4.8c-0.2,0-0.4-0.1-0.5-0.2s-0.2-0.3-0.2-0.5V4.9c0-0.2,0.1-0.4,0.2-0.5c0.1-0.1,0.3-0.2,0.5-0.2h9.8
			c1.2,0,2.3,0.2,3.4,0.7c1.1,0.4,2,1.1,2.8,1.9c0.8,0.8,1.4,1.7,1.9,2.8c0.5,1,0.7,2.2,0.7,3.4c0,1.2-0.2,2.3-0.6,3.3
			c-0.4,1-1,1.9-1.7,2.7c-0.8,0.8-1.8,1.4-2.9,1.8C344.6,21.1,343.3,21.3,341.7,21.3z M342,10h-3c-0.2,0-0.4,0.1-0.5,0.2
			c-0.1,0.1-0.2,0.3-0.2,0.5v3.8c0,0.2,0.1,0.4,0.2,0.5c0.2,0.1,0.3,0.2,0.5,0.2h3.4c0.8,0,1.4-0.3,1.8-0.8s0.6-1.1,0.6-1.8
			c0-0.3-0.1-0.7-0.2-1c-0.1-0.3-0.3-0.6-0.5-0.9c-0.2-0.3-0.5-0.5-0.9-0.6C342.8,10.1,342.4,10,342,10z"/>
		<path class="st1" d="M371,22.5v4.4c0,0.2-0.1,0.4-0.2,0.5s-0.3,0.2-0.5,0.2h-16c-0.2,0-0.4-0.1-0.6-0.2c-0.1-0.1-0.2-0.3-0.2-0.5
			V4.9c0-0.2,0.1-0.4,0.2-0.5c0.1-0.1,0.3-0.2,0.6-0.2h4.8c0.2,0,0.4,0.1,0.5,0.2c0.1,0.1,0.2,0.3,0.2,0.5v16c0,0.2,0.1,0.4,0.2,0.5
			c0.1,0.1,0.3,0.2,0.6,0.2h9.6c0.2,0,0.4,0.1,0.5,0.2S371,22.3,371,22.5z"/>
		<path class="st1" d="M380.9,4.9c0.1-0.2,0.2-0.4,0.4-0.5c0.2-0.1,0.4-0.2,0.7-0.2h4.5c0.2,0,0.4,0.1,0.6,0.2
			c0.2,0.1,0.3,0.3,0.4,0.5l9.3,21.8c0.1,0.2,0.1,0.4,0,0.6c-0.1,0.2-0.3,0.3-0.7,0.3h-5.5c-0.2,0-0.5-0.1-0.7-0.2
			c-0.2-0.1-0.4-0.3-0.5-0.5l-0.9-1.9c-0.1-0.2-0.3-0.4-0.5-0.5c-0.2-0.1-0.4-0.2-0.6-0.2h-6.8c-0.2,0-0.5,0.1-0.7,0.2
			c-0.2,0.1-0.3,0.3-0.4,0.5l-0.9,1.9c-0.1,0.2-0.2,0.4-0.4,0.5c-0.2,0.1-0.4,0.2-0.6,0.2h-5.5c-0.1,0-0.2,0-0.3-0.1
			c-0.1,0-0.2-0.1-0.3-0.2c-0.1-0.1-0.1-0.2-0.1-0.3c0-0.1,0-0.3,0.1-0.4L380.9,4.9z M382.8,18.8h2.8c0.2,0,0.4-0.1,0.5-0.2
			s0.1-0.3,0-0.5c-0.2-0.5-0.5-1.2-0.8-1.9s-0.6-1.4-0.8-2c-0.1-0.2-0.2-0.3-0.3-0.3c-0.1,0-0.2,0.1-0.3,0.3l-1.6,3.9
			c-0.1,0.2-0.1,0.4,0,0.5S382.5,18.8,382.8,18.8z"/>
		<path class="st1" d="M420.5,21.4c-0.6,1-1.3,1.9-2,2.7c-0.7,0.8-1.6,1.5-2.5,2.1c-0.9,0.6-2,1-3.1,1.3s-2.4,0.5-3.7,0.5
			c-1.7,0-3.3-0.3-4.8-1c-1.5-0.6-2.8-1.5-3.9-2.6s-2-2.4-2.6-3.8c-0.6-1.5-1-3-1-4.7c0-1.7,0.3-3.2,1-4.7c0.6-1.5,1.5-2.8,2.6-3.8
			s2.4-2,3.9-2.6c1.5-0.6,3.1-1,4.8-1c1.4,0,2.7,0.2,3.8,0.5s2.2,0.8,3.1,1.3s1.7,1.3,2.5,2.1c0.7,0.8,1.4,1.7,2,2.7
			c0.1,0.2,0.1,0.4,0.1,0.5c-0.1,0.2-0.2,0.3-0.4,0.4l-4.5,1.8c-0.2,0.1-0.4,0.1-0.6,0c-0.2-0.1-0.4-0.2-0.5-0.4
			c-0.6-1-1.4-1.7-2.2-2.3c-0.9-0.5-1.9-0.8-3.2-0.8c-0.8,0-1.6,0.2-2.3,0.5s-1.3,0.8-1.9,1.4c-0.5,0.6-0.9,1.2-1.2,2
			s-0.4,1.5-0.4,2.3c0,0.8,0.1,1.6,0.4,2.3c0.3,0.7,0.7,1.4,1.2,1.9s1.2,1,1.9,1.3s1.5,0.5,2.3,0.5c1.2,0,2.2-0.3,3.2-0.8
			s1.7-1.3,2.3-2.2c0.1-0.2,0.3-0.3,0.5-0.4c0.2-0.1,0.4-0.1,0.6,0l4.5,1.8c0.2,0.1,0.3,0.2,0.4,0.4C420.6,21,420.6,21.2,420.5,21.4
			z"/>
		<path class="st1" d="M429.2,10.8v1.3c0,0.2,0.1,0.4,0.2,0.5s0.3,0.2,0.5,0.2h8.7c0.2,0,0.4,0.1,0.5,0.2s0.2,0.3,0.2,0.5v4.4
			c0,0.2-0.1,0.4-0.2,0.5s-0.3,0.2-0.5,0.2h-8.7c-0.2,0-0.4,0.1-0.5,0.2c-0.1,0.2-0.2,0.3-0.2,0.5v1.2c0,0.2,0.1,0.4,0.2,0.5
			s0.3,0.2,0.5,0.2h10c0.2,0,0.4,0.1,0.5,0.2s0.2,0.3,0.2,0.5v4.4c0,0.2-0.1,0.4-0.2,0.5s-0.3,0.2-0.5,0.2h-16.3
			c-0.2,0-0.4-0.1-0.5-0.2s-0.2-0.3-0.2-0.5V4.9c0-0.2,0.1-0.4,0.2-0.5c0.1-0.1,0.3-0.2,0.5-0.2h16.3c0.2,0,0.4,0.1,0.5,0.2
			c0.1,0.1,0.2,0.3,0.2,0.5v4.4c0,0.2-0.1,0.4-0.2,0.5s-0.3,0.2-0.5,0.2h-10c-0.2,0-0.4,0.1-0.5,0.2S429.2,10.6,429.2,10.8z"/>
		<path class="st1" d="M461.5,27.6h-4.8c-0.2,0-0.4-0.1-0.6-0.2c-0.1-0.1-0.2-0.3-0.2-0.5V5c0-0.2,0.1-0.4,0.2-0.5
			c0.1-0.1,0.3-0.2,0.6-0.2h4.8c0.2,0,0.4,0.1,0.5,0.2s0.2,0.3,0.2,0.5v21.9c0,0.2-0.1,0.4-0.2,0.5S461.7,27.6,461.5,27.6z"/>
		<path class="st1" d="M488.6,4.9v21.9c0,0.2-0.1,0.4-0.2,0.5s-0.3,0.2-0.5,0.2h-4.7c-0.2,0-0.4-0.1-0.7-0.2
			c-0.2-0.1-0.4-0.3-0.5-0.4l-8.3-11.7c-0.1-0.2-0.3-0.2-0.4-0.2c-0.1,0-0.2,0.2-0.2,0.4v11.5c0,0.2-0.1,0.4-0.2,0.5
			c-0.1,0.1-0.3,0.2-0.5,0.2h-4.8c-0.2,0-0.4-0.1-0.5-0.2c-0.2-0.1-0.2-0.3-0.2-0.5V4.9c0-0.2,0.1-0.4,0.2-0.5
			c0.1-0.1,0.3-0.2,0.5-0.2h4.8c0.2,0,0.4,0.1,0.7,0.2c0.2,0.1,0.4,0.3,0.5,0.4l8.3,11.7c0.1,0.2,0.3,0.2,0.4,0.2s0.2-0.1,0.2-0.4
			V4.9c0-0.2,0.1-0.4,0.2-0.5c0.1-0.1,0.3-0.2,0.5-0.2h4.7c0.2,0,0.4,0.1,0.5,0.2C488.5,4.5,488.6,4.7,488.6,4.9z"/>
		<path class="st1" d="M508.5,5v13.6c0,1.4-0.2,2.7-0.7,3.8c-0.4,1.2-1,2.1-1.8,3c-0.8,0.8-1.7,1.5-2.8,1.9s-2.3,0.7-3.7,0.7
			c-1.8,0-3.4-0.5-4.8-1.4c-1.4-0.9-2.5-2.3-3.3-3.9c-0.1-0.2-0.1-0.4,0-0.6c0.1-0.2,0.2-0.4,0.4-0.5l3.6-1.9c0.2-0.1,0.4-0.1,0.6,0
			c0.2,0.1,0.4,0.2,0.5,0.4c0.3,0.5,0.7,1,1.2,1.4c0.5,0.4,1.1,0.6,1.8,0.6c0.6,0,1-0.1,1.4-0.4c0.3-0.2,0.6-0.5,0.8-0.9
			s0.3-0.7,0.4-1.1c0.1-0.4,0.1-0.7,0.1-1V5c0-0.2,0.1-0.4,0.2-0.5c0.1-0.1,0.3-0.2,0.5-0.2h4.8c0.2,0,0.4,0.1,0.6,0.2
			C508.5,4.6,508.5,4.7,508.5,5z"/>
		<path class="st1" d="M512.8,5c0-0.2,0.1-0.4,0.2-0.5s0.3-0.2,0.5-0.2h4.8c0.2,0,0.4,0.1,0.5,0.2s0.2,0.3,0.2,0.5v13
			c0,0.8,0.1,1.5,0.4,2.1c0.3,0.5,0.6,1,1,1.3c0.4,0.3,0.8,0.5,1.3,0.7c0.4,0.1,0.9,0.2,1.2,0.2s0.8-0.1,1.2-0.2s0.9-0.3,1.3-0.7
			c0.4-0.3,0.7-0.7,1-1.3c0.3-0.5,0.4-1.2,0.4-2.1V5c0-0.2,0.1-0.4,0.2-0.5s0.3-0.2,0.5-0.2h4.8c0.2,0,0.4,0.1,0.5,0.2
			s0.2,0.3,0.2,0.5v13c0,1.5-0.2,2.9-0.7,4.1c-0.5,1.2-1.2,2.3-2.1,3.2c-0.9,0.9-2,1.6-3.2,2c-1.3,0.5-2.7,0.7-4.2,0.7
			c-1.5,0-2.9-0.2-4.2-0.7c-1.3-0.5-2.3-1.2-3.2-2c-0.9-0.9-1.6-1.9-2.1-3.2c-0.5-1.2-0.7-2.6-0.7-4.1V5z"/>
		<path class="st1" d="M543.7,27.6h-4.8c-0.2,0-0.4-0.1-0.5-0.2c-0.2-0.1-0.2-0.3-0.2-0.5V4.9c0-0.2,0.1-0.4,0.2-0.5
			c0.1-0.1,0.3-0.2,0.5-0.2h10c1.2,0,2.4,0.2,3.4,0.6c1,0.4,1.9,1,2.7,1.7c0.7,0.7,1.3,1.6,1.7,2.7c0.4,1,0.6,2.2,0.6,3.4
			c0,0.7-0.1,1.4-0.2,2c-0.2,0.7-0.4,1.3-0.7,1.9c-0.3,0.6-0.7,1.1-1.1,1.6c-0.4,0.5-0.9,0.9-1.4,1.2c-0.2,0.1-0.3,0.3-0.3,0.5
			c-0.1,0.2,0,0.4,0.1,0.5c0.8,1.1,1.7,2.2,2.6,3.3c0.9,1.1,1.7,2.2,2.4,3.1c0.1,0.2,0.2,0.4,0.1,0.6c-0.1,0.2-0.2,0.3-0.4,0.3h-6
			c-0.2,0-0.4-0.1-0.7-0.2s-0.4-0.3-0.6-0.4c-0.7-0.9-1.4-1.8-2-2.7c-0.7-0.9-1.3-1.8-2-2.8c-0.1-0.2-0.3-0.3-0.5-0.4
			s-0.5-0.2-0.7-0.2h-0.7c-0.2,0-0.4,0.1-0.5,0.2c-0.1,0.1-0.2,0.3-0.2,0.5v5.2c0,0.2-0.1,0.4-0.2,0.5
			C544.1,27.5,543.9,27.6,543.7,27.6z M545.2,15h3.4c0.3,0,0.5,0,0.8-0.1c0.3-0.1,0.5-0.2,0.8-0.4c0.2-0.2,0.4-0.5,0.6-0.8
			c0.1-0.3,0.2-0.7,0.2-1.1c0-0.2,0-0.5-0.1-0.8s-0.2-0.6-0.4-0.8c-0.2-0.3-0.4-0.5-0.7-0.7c-0.3-0.2-0.7-0.3-1.1-0.3h-3.4
			c-0.2,0-0.4,0.1-0.5,0.2c-0.1,0.1-0.2,0.3-0.2,0.5v3.4c0,0.2,0.1,0.4,0.2,0.5C544.8,14.9,545,15,545.2,15z"/>
		<path class="st1" d="M566.9,27.6h-4.8c-0.2,0-0.4-0.1-0.6-0.2c-0.1-0.1-0.2-0.3-0.2-0.5V5c0-0.2,0.1-0.4,0.2-0.5
			c0.1-0.1,0.3-0.2,0.6-0.2h4.8c0.2,0,0.4,0.1,0.5,0.2s0.2,0.3,0.2,0.5v21.9c0,0.2-0.1,0.4-0.2,0.5S567.1,27.6,566.9,27.6z"/>
		<path class="st1" d="M578.3,10.8v1.3c0,0.2,0.1,0.4,0.2,0.5s0.3,0.2,0.5,0.2h8.7c0.2,0,0.4,0.1,0.5,0.2s0.2,0.3,0.2,0.5v4.4
			c0,0.2-0.1,0.4-0.2,0.5s-0.3,0.2-0.5,0.2h-8.7c-0.2,0-0.4,0.1-0.5,0.2c-0.1,0.2-0.2,0.3-0.2,0.5v1.2c0,0.2,0.1,0.4,0.2,0.5
			s0.3,0.2,0.5,0.2h10c0.2,0,0.4,0.1,0.5,0.2s0.2,0.3,0.2,0.5v4.4c0,0.2-0.1,0.4-0.2,0.5s-0.3,0.2-0.5,0.2h-16.3
			c-0.2,0-0.4-0.1-0.5-0.2s-0.2-0.3-0.2-0.5V4.9c0-0.2,0.1-0.4,0.2-0.5c0.1-0.1,0.3-0.2,0.5-0.2H589c0.2,0,0.4,0.1,0.5,0.2
			c0.1,0.1,0.2,0.3,0.2,0.5v4.4c0,0.2-0.1,0.4-0.2,0.5S589.2,10,589,10h-10c-0.2,0-0.4,0.1-0.5,0.2S578.3,10.6,578.3,10.8z"/>
		<path class="st1" d="M596.5,19.6c1.2,0.7,2.3,1.3,3.4,1.8c1.1,0.4,2.2,0.6,3.2,0.6c0.9,0,1.7-0.1,2.1-0.4c0.5-0.3,0.7-0.7,0.7-1.2
			c0-0.3-0.1-0.5-0.3-0.7c-0.2-0.2-0.5-0.3-0.8-0.4c-0.4-0.1-0.8-0.2-1.2-0.3c-0.5-0.1-0.9-0.1-1.4-0.3c-0.5-0.1-1-0.2-1.6-0.3
			c-0.6-0.1-1.3-0.3-1.9-0.5c-0.7-0.2-1.3-0.5-2-0.8c-0.7-0.3-1.2-0.8-1.7-1.3c-0.5-0.5-0.9-1.2-1.2-1.9c-0.3-0.7-0.5-1.6-0.5-2.6
			c0-1.5,0.3-2.7,0.9-3.6c0.6-1,1.3-1.7,2.2-2.3c0.9-0.6,1.9-1,3-1.2c1.1-0.2,2.1-0.3,3.2-0.3c1.8,0,3.4,0.3,4.8,0.8
			c1.4,0.5,2.8,1.3,4.1,2.3c0.2,0.1,0.3,0.3,0.3,0.5c0,0.2,0,0.4-0.2,0.6l-2.5,3.6c-0.1,0.2-0.3,0.3-0.5,0.3s-0.4,0-0.6-0.1
			c-1.1-0.7-2.1-1.2-3-1.5c-0.9-0.3-1.8-0.4-2.6-0.4c-0.2,0-0.5,0-0.8,0c-0.3,0-0.6,0.1-0.9,0.1c-0.3,0.1-0.5,0.2-0.7,0.4
			s-0.3,0.4-0.3,0.7c0,0.3,0.2,0.6,0.7,0.8s1,0.4,1.5,0.6c0.6,0.2,1.1,0.3,1.7,0.4c0.5,0.1,0.9,0.2,1,0.2c0.8,0.1,1.6,0.4,2.5,0.7
			c0.9,0.3,1.8,0.7,2.6,1.3c0.8,0.6,1.5,1.3,2,2.2c0.5,0.9,0.8,2,0.8,3.4c0,1.3-0.2,2.4-0.7,3.3c-0.4,0.9-1.1,1.7-1.9,2.3
			c-0.8,0.6-1.8,1-2.9,1.3c-1.1,0.3-2.4,0.4-3.7,0.4c-1.1,0-2.1-0.1-3.1-0.3c-1-0.2-1.9-0.4-2.7-0.8c-0.8-0.3-1.6-0.7-2.3-1.1
			c-0.7-0.4-1.4-0.9-2-1.4c-0.2-0.1-0.3-0.3-0.3-0.5s0-0.4,0.2-0.6l2.5-3.6c0.1-0.2,0.3-0.3,0.5-0.3
			C596.1,19.4,596.3,19.4,596.5,19.6z"/>
	</g>
</g>
</svg>
