<?xml version="1.0" encoding="UTF-8"?><svg id="Layer_2" xmlns="http://www.w3.org/2000/svg" viewBox="0 0 510.12 28.05"><defs><style>.cls-1{fill:#a65d42;}</style></defs><g id="Layer_1-2"><g><path class="cls-1" d="M20.42,7.29h-5.18c-.25,0-.46,.09-.63,.26-.17,.17-.26,.38-.26,.63V26.68c0,.25-.08,.46-.24,.63-.16,.17-.38,.26-.65,.26H7.92c-.25,0-.46-.09-.63-.26-.17-.17-.26-.38-.26-.63V8.18c0-.25-.08-.46-.24-.63-.16-.17-.38-.26-.65-.26H.89c-.25,0-.46-.09-.63-.26-.17-.17-.26-.38-.26-.63V1.37c0-.25,.09-.46,.26-.63,.17-.17,.38-.26,.63-.26H20.42c.27,0,.49,.09,.65,.26,.16,.17,.24,.38,.24,.63V6.4c0,.25-.08,.46-.24,.63-.16,.17-.38,.26-.65,.26Z"/><path class="cls-1" d="M48.28,1.37V26.68c0,.25-.09,.46-.26,.63-.17,.17-.38,.26-.63,.26h-5.55c-.27,0-.49-.09-.65-.26-.16-.17-.24-.38-.24-.63v-7.92c0-.25-.09-.46-.26-.63-.17-.17-.38-.26-.63-.26h-7.59c-.27,0-.49,.09-.65,.26-.16,.17-.24,.38-.24,.63v7.92c0,.25-.09,.46-.26,.63s-.38,.26-.63,.26h-5.54c-.27,0-.49-.09-.65-.26-.16-.17-.24-.38-.24-.63V1.37c0-.25,.08-.46,.24-.63,.16-.17,.38-.26,.65-.26h5.54c.25,0,.46,.09,.63,.26,.17,.17,.26,.38,.26,.63V10.1c0,.25,.08,.45,.24,.63,.16,.17,.37,.26,.65,.26h7.59c.25,0,.45-.09,.63-.26,.17-.17,.26-.38,.26-.63V1.37c0-.25,.08-.45,.24-.63,.16-.17,.38-.26,.65-.26h5.55c.25,0,.46,.09,.63,.26,.17,.17,.26,.38,.26,.63Z"/><path class="cls-1" d="M60.68,8.18v1.55c0,.25,.09,.46,.26,.63,.17,.17,.38,.26,.63,.26h10.03c.25,0,.46,.09,.63,.26,.17,.17,.26,.38,.26,.63v5.11c0,.25-.09,.46-.26,.63-.17,.17-.38,.26-.63,.26h-10.03c-.25,0-.46,.09-.63,.26-.17,.17-.26,.38-.26,.63v1.41c0,.25,.09,.46,.26,.63,.17,.17,.38,.26,.63,.26h11.51c.25,0,.46,.09,.63,.26,.17,.17,.26,.38,.26,.63v5.11c0,.25-.09,.46-.26,.63-.17,.17-.38,.26-.63,.26h-18.83c-.25,0-.46-.09-.63-.26-.17-.17-.26-.38-.26-.63V1.37c0-.25,.09-.46,.26-.63s.38-.26,.63-.26h18.83c.25,0,.46,.09,.63,.26,.17,.17,.26,.38,.26,.63V6.4c0,.25-.09,.46-.26,.63-.17,.17-.38,.26-.63,.26h-11.51c-.25,0-.46,.09-.63,.26-.17,.17-.26,.38-.26,.63Z"/><path class="cls-1" d="M98.6,8.24v1.54c0,.24,.09,.45,.26,.62,.17,.17,.38,.26,.63,.26h9.99c.25,0,.46,.09,.63,.26,.17,.17,.26,.38,.26,.63v5.18c0,.25-.09,.46-.26,.63s-.38,.26-.63,.26h-9.99c-.25,0-.46,.09-.63,.26-.17,.17-.26,.38-.26,.63v8.18c0,.25-.09,.46-.26,.63-.17,.17-.38,.26-.63,.26h-5.56c-.25,0-.45-.09-.63-.26s-.26-.38-.26-.63V1.37c0-.25,.09-.46,.26-.63,.17-.17,.38-.26,.63-.26h18.8c.25,0,.46,.09,.63,.26,.17,.17,.26,.38,.26,.63V6.47c0,.25-.09,.46-.26,.63-.17,.17-.38,.26-.63,.26h-11.47c-.25,0-.46,.09-.63,.26-.17,.17-.26,.38-.26,.62Z"/><path class="cls-1" d="M120.55,1.33c.1-.22,.26-.41,.5-.57s.49-.24,.76-.24h5.18c.25,0,.49,.08,.72,.24s.4,.35,.5,.57l10.8,25.16c.1,.22,.08,.46-.06,.7-.14,.25-.4,.37-.8,.37h-6.33c-.27,0-.52-.08-.76-.24-.23-.16-.41-.35-.54-.57l-1-2.22c-.12-.22-.3-.41-.54-.57s-.47-.24-.72-.24h-7.81c-.27,0-.52,.08-.76,.24s-.4,.35-.5,.57l-1.04,2.22c-.1,.22-.27,.41-.5,.57-.23,.16-.47,.24-.72,.24h-6.36c-.12,0-.25-.02-.39-.07-.13-.05-.25-.12-.33-.22-.09-.1-.14-.22-.17-.37-.02-.15,.01-.32,.11-.52L120.55,1.33Zm2.18,16.09h3.29c.25,0,.43-.08,.54-.24,.11-.16,.1-.35-.02-.57-.25-.62-.54-1.34-.89-2.17-.35-.83-.67-1.6-.96-2.31-.1-.22-.21-.33-.33-.33s-.23,.11-.33,.33l-1.85,4.48c-.1,.22-.1,.41,0,.57,.1,.16,.28,.24,.55,.24Z"/><path class="cls-1" d="M160.91,21.65v5.03c0,.25-.09,.46-.26,.63-.17,.17-.38,.26-.63,.26h-18.46c-.27,0-.49-.09-.65-.26s-.24-.38-.24-.63V1.37c0-.25,.08-.46,.24-.63,.16-.17,.38-.26,.65-.26h5.55c.25,0,.46,.09,.63,.26,.17,.17,.26,.38,.26,.63V19.87c0,.25,.08,.46,.24,.63,.16,.17,.38,.26,.65,.26h11.14c.25,0,.46,.09,.63,.26,.17,.17,.26,.38,.26,.63Z"/><path class="cls-1" d="M183.67,21.65v5.03c0,.25-.09,.46-.26,.63-.17,.17-.38,.26-.63,.26h-18.46c-.27,0-.49-.09-.65-.26s-.24-.38-.24-.63V1.37c0-.25,.08-.46,.24-.63,.16-.17,.38-.26,.65-.26h5.55c.25,0,.46,.09,.63,.26,.17,.17,.26,.38,.26,.63V19.87c0,.25,.08,.46,.24,.63,.16,.17,.38,.26,.65,.26h11.14c.25,0,.46,.09,.63,.26,.17,.17,.26,.38,.26,.63Z"/><path class="cls-1" d="M197.69,14.02c0-1.92,.37-3.74,1.11-5.44s1.74-3.19,3-4.46,2.74-2.28,4.44-3.02,3.51-1.11,5.44-1.11,3.74,.37,5.44,1.11,3.19,1.75,4.46,3.02,2.28,2.76,3.02,4.46,1.11,3.52,1.11,5.44-.37,3.74-1.11,5.44-1.75,3.19-3.02,4.46-2.76,2.28-4.46,3.02c-1.7,.74-3.52,1.11-5.44,1.11s-3.74-.37-5.44-1.11c-1.7-.74-3.18-1.75-4.44-3.02s-2.26-2.76-3-4.46-1.11-3.51-1.11-5.44Zm7.33,0c0,.94,.17,1.83,.52,2.66,.34,.84,.82,1.58,1.42,2.22s1.31,1.15,2.13,1.54c.81,.38,1.68,.57,2.59,.57s1.78-.19,2.59-.57c.81-.38,1.53-.89,2.15-1.54,.62-.64,1.1-1.38,1.44-2.22s.52-1.73,.52-2.66-.17-1.79-.52-2.65c-.35-.85-.83-1.59-1.44-2.22-.62-.63-1.33-1.13-2.15-1.52-.81-.38-1.68-.57-2.59-.57s-1.78,.19-2.59,.57c-.81,.38-1.52,.89-2.13,1.52-.6,.63-1.08,1.37-1.42,2.22-.35,.85-.52,1.73-.52,2.65Z"/><path class="cls-1" d="M236.8,8.24v1.54c0,.24,.09,.45,.26,.62s.38,.26,.63,.26h9.99c.25,0,.46,.09,.63,.26,.17,.17,.26,.38,.26,.63v5.18c0,.25-.09,.46-.26,.63-.17,.17-.38,.26-.63,.26h-9.99c-.25,0-.46,.09-.63,.26-.17,.17-.26,.38-.26,.63v8.18c0,.25-.09,.46-.26,.63s-.38,.26-.63,.26h-5.56c-.25,0-.46-.09-.63-.26-.17-.17-.26-.38-.26-.63V1.37c0-.25,.09-.46,.26-.63,.17-.17,.38-.26,.63-.26h18.8c.25,0,.46,.09,.63,.26,.17,.17,.26,.38,.26,.63V6.47c0,.25-.09,.46-.26,.63-.17,.17-.38,.26-.63,.26h-11.47c-.25,0-.46,.09-.63,.26-.17,.17-.26,.38-.26,.62Z"/><path class="cls-1" d="M281.49,26.9l-7.18-8.03c-.17-.2-.31-.27-.43-.22s-.17,.2-.17,.44v7.58c0,.25-.09,.46-.26,.63s-.38,.26-.63,.26h-5.55c-.27,0-.49-.09-.65-.26-.16-.17-.24-.38-.24-.63V1.37c0-.25,.08-.46,.24-.63,.16-.17,.38-.26,.65-.26h5.55c.25,0,.46,.09,.63,.26,.17,.17,.26,.38,.26,.63V9.88c0,.25,.05,.39,.15,.43s.22-.04,.37-.24l6.66-8.84c.15-.2,.36-.36,.63-.5,.27-.14,.54-.2,.81-.2h7.07c.27,0,.44,.12,.52,.35,.07,.23,.04,.45-.11,.65l-9.73,12.17c-.15,.2-.22,.42-.2,.68,.01,.26,.1,.47,.28,.65,.84,.91,1.73,1.86,2.66,2.85,.94,.99,1.87,1.98,2.79,2.98,.93,1,1.84,1.99,2.74,2.96,.9,.97,1.76,1.88,2.57,2.72,.17,.2,.23,.42,.19,.67-.05,.25-.21,.37-.48,.37h-7.66c-.27,0-.55-.06-.83-.19-.28-.12-.5-.28-.65-.48Z"/><path class="cls-1" d="M300.22,27.57h-5.56c-.27,0-.48-.09-.64-.26-.16-.17-.24-.38-.24-.63V1.41c0-.25,.08-.46,.24-.63,.16-.17,.37-.26,.64-.26h5.56c.25,0,.45,.09,.63,.26s.26,.38,.26,.63V26.68c0,.25-.09,.46-.26,.63s-.38,.26-.63,.26Z"/><path class="cls-1" d="M331.52,1.37V26.68c0,.25-.09,.46-.26,.63-.17,.17-.38,.26-.63,.26h-5.46c-.25,0-.5-.07-.78-.22-.27-.15-.48-.32-.63-.52l-9.64-13.58c-.15-.2-.3-.28-.46-.24s-.24,.18-.24,.43v13.25c0,.25-.09,.46-.26,.63-.17,.17-.38,.26-.63,.26h-5.54c-.25,0-.46-.09-.63-.26-.17-.17-.26-.38-.26-.63V1.37c0-.25,.09-.46,.26-.63s.38-.26,.63-.26h5.55c.25,0,.51,.07,.78,.2,.27,.14,.48,.3,.63,.5l9.62,13.58c.15,.2,.3,.28,.46,.26,.16-.02,.24-.16,.24-.41V1.37c0-.25,.09-.46,.26-.63s.38-.26,.63-.26h5.48c.25,0,.46,.09,.63,.26,.17,.17,.26,.38,.26,.63Z"/><path class="cls-1" d="M350.09,28.05c-1.97,0-3.82-.37-5.55-1.11-1.73-.74-3.24-1.74-4.53-3s-2.32-2.74-3.07-4.44c-.75-1.7-1.13-3.51-1.13-5.44s.38-3.74,1.13-5.44c.75-1.7,1.78-3.19,3.07-4.46s2.81-2.28,4.53-3.02c1.73-.74,3.58-1.11,5.55-1.11,2.71,0,5.07,.55,7.08,1.67,2.01,1.11,3.64,2.64,4.9,4.59,.12,.2,.15,.43,.09,.68s-.19,.45-.39,.57l-4.44,2.85c-.2,.12-.42,.17-.67,.13-.25-.04-.46-.15-.63-.35-.76-.94-1.62-1.69-2.57-2.26-.95-.57-2.08-.85-3.38-.85-.94,0-1.82,.19-2.65,.57-.83,.38-1.55,.89-2.17,1.54-.62,.64-1.1,1.39-1.46,2.24-.36,.85-.54,1.73-.54,2.65s.18,1.83,.54,2.66c.36,.84,.84,1.57,1.46,2.2,.62,.63,1.34,1.13,2.17,1.52,.83,.38,1.71,.57,2.65,.57s1.86-.17,2.77-.52c.91-.34,1.64-.91,2.18-1.7,.12-.2,.13-.38,.04-.54s-.27-.24-.52-.24h-4.25c-.25,0-.46-.09-.63-.26-.17-.17-.26-.38-.26-.63v-4.4c0-.25,.09-.46,.26-.63,.17-.17,.38-.26,.63-.26h12.73c.25,0,.46,.08,.65,.24,.19,.16,.29,.38,.31,.65,.05,.42,.07,.93,.07,1.54s-.04,1.23-.11,1.87c-.17,1.7-.65,3.28-1.44,4.74-.79,1.46-1.81,2.71-3.05,3.77-1.25,1.06-2.67,1.89-4.27,2.5s-3.31,.91-5.11,.91Z"/><path class="cls-1" d="M411.07,1.41V26.68c0,.25-.09,.46-.26,.63-.17,.17-.38,.26-.63,.26h-5.56c-.25,0-.45-.09-.63-.26s-.26-.38-.26-.63V14.76c0-.25-.11-.38-.33-.41-.22-.02-.41,.06-.56,.26l-6.23,10.03c-.12,.2-.32,.3-.59,.3s-.48-.1-.63-.3l-6.23-10.03c-.12-.2-.3-.28-.52-.26s-.33,.16-.33,.41v11.91c0,.25-.09,.46-.26,.63-.17,.17-.38,.26-.62,.26h-5.56c-.25,0-.45-.09-.63-.26s-.26-.38-.26-.63V1.41c0-.25,.08-.46,.26-.63,.17-.17,.38-.26,.62-.26h5.15c.25,0,.5,.07,.77,.22s.47,.32,.59,.52l7.12,10.43c.15,.2,.32,.3,.52,.3s.36-.1,.48-.3l7.12-10.43c.15-.2,.36-.37,.63-.52,.27-.15,.53-.22,.77-.22h5.15c.25,0,.45,.09,.63,.26,.17,.17,.26,.38,.26,.63Z"/><path class="cls-1" d="M424.46,1.33c.1-.22,.26-.41,.5-.57s.49-.24,.76-.24h5.18c.25,0,.49,.08,.72,.24s.4,.35,.5,.57l10.8,25.16c.1,.22,.08,.46-.06,.7-.14,.25-.4,.37-.8,.37h-6.33c-.27,0-.52-.08-.76-.24-.23-.16-.41-.35-.54-.57l-1-2.22c-.12-.22-.3-.41-.54-.57s-.47-.24-.72-.24h-7.81c-.27,0-.52,.08-.76,.24s-.4,.35-.5,.57l-1.04,2.22c-.1,.22-.27,.41-.5,.57-.23,.16-.47,.24-.72,.24h-6.36c-.12,0-.25-.02-.39-.07-.13-.05-.25-.12-.33-.22-.09-.1-.14-.22-.17-.37-.02-.15,.01-.32,.11-.52l10.73-25.05Zm2.18,16.09h3.29c.25,0,.43-.08,.54-.24,.11-.16,.1-.35-.02-.57-.25-.62-.54-1.34-.89-2.17-.35-.83-.67-1.6-.96-2.31-.1-.22-.21-.33-.33-.33s-.23,.11-.33,.33l-1.85,4.48c-.1,.22-.1,.41,0,.57,.1,.16,.28,.24,.55,.24Z"/><path class="cls-1" d="M450.54,27.57h-5.54c-.25,0-.46-.09-.63-.26-.17-.17-.26-.38-.26-.63V1.37c0-.25,.09-.46,.26-.63s.38-.26,.63-.26h11.51c1.43,0,2.75,.24,3.96,.72,1.21,.48,2.24,1.15,3.09,2.02,.85,.86,1.52,1.89,2,3.07,.48,1.18,.72,2.49,.72,3.92,0,.79-.09,1.57-.28,2.35-.19,.78-.45,1.51-.8,2.2-.35,.69-.75,1.31-1.22,1.87-.47,.55-1,1.02-1.59,1.39-.2,.15-.33,.33-.39,.54-.06,.21-.02,.41,.13,.61,.94,1.23,1.92,2.5,2.96,3.81s1.96,2.5,2.78,3.59c.15,.2,.18,.41,.11,.65-.07,.23-.24,.35-.48,.35h-6.88c-.25,0-.51-.07-.8-.2-.28-.13-.5-.3-.65-.5-.79-1.04-1.56-2.08-2.34-3.15-.77-1.06-1.54-2.13-2.3-3.22-.15-.2-.36-.36-.63-.5-.27-.14-.53-.2-.77-.2h-.81c-.25,0-.45,.09-.63,.26s-.26,.38-.26,.63v5.99c0,.25-.09,.46-.26,.63-.17,.17-.38,.26-.63,.26Zm1.78-14.58h3.9c.29,0,.6-.06,.92-.17,.32-.11,.61-.28,.88-.52,.27-.23,.49-.52,.66-.87,.17-.35,.26-.75,.26-1.22,0-.25-.04-.54-.13-.87s-.23-.65-.44-.96c-.21-.31-.49-.57-.85-.78-.36-.21-.79-.31-1.31-.31h-3.9c-.25,0-.45,.09-.62,.26s-.26,.38-.26,.63v3.92c0,.25,.08,.46,.26,.63,.17,.17,.38,.26,.62,.26Z"/><path class="cls-1" d="M477.45,27.57h-5.56c-.27,0-.48-.09-.64-.26-.16-.17-.24-.38-.24-.63V1.41c0-.25,.08-.46,.24-.63,.16-.17,.37-.26,.64-.26h5.56c.25,0,.45,.09,.63,.26s.26,.38,.26,.63V26.68c0,.25-.09,.46-.26,.63s-.38,.26-.63,.26Z"/><path class="cls-1" d="M482.11,14.02c0-1.92,.37-3.74,1.11-5.44s1.74-3.19,3-4.46,2.74-2.28,4.44-3.02,3.51-1.11,5.44-1.11,3.74,.37,5.44,1.11,3.19,1.75,4.46,3.02,2.28,2.76,3.02,4.46,1.11,3.52,1.11,5.44-.37,3.74-1.11,5.44-1.75,3.19-3.02,4.46-2.76,2.28-4.46,3.02c-1.7,.74-3.52,1.11-5.44,1.11s-3.74-.37-5.44-1.11c-1.7-.74-3.18-1.75-4.44-3.02s-2.26-2.76-3-4.46-1.11-3.51-1.11-5.44Zm7.33,0c0,.94,.17,1.83,.52,2.66,.34,.84,.82,1.58,1.42,2.22s1.31,1.15,2.13,1.54c.81,.38,1.68,.57,2.59,.57s1.78-.19,2.59-.57c.81-.38,1.53-.89,2.15-1.54,.62-.64,1.1-1.38,1.44-2.22s.52-1.73,.52-2.66-.17-1.79-.52-2.65c-.35-.85-.83-1.59-1.44-2.22-.62-.63-1.33-1.13-2.15-1.52-.81-.38-1.68-.57-2.59-.57s-1.78,.19-2.59,.57c-.81,.38-1.52,.89-2.13,1.52-.6,.63-1.08,1.37-1.42,2.22-.35,.85-.52,1.73-.52,2.65Z"/></g></g></svg>