<?xml version="1.0" encoding="UTF-8"?><svg id="Layer_2" xmlns="http://www.w3.org/2000/svg" viewBox="0 0 605.39 28.05"><defs><style>.cls-1{fill:#a65d42;}</style></defs><g id="Layer_1-2"><g><path class="cls-1" d="M11.44,20.28h-3.23c-.25,0-.46,.09-.63,.26-.17,.17-.26,.38-.26,.63v5.51c0,.25-.09,.46-.26,.63-.17,.17-.38,.26-.63,.26H.88c-.25,0-.45-.09-.63-.26s-.26-.38-.26-.63V1.37c0-.25,.09-.46,.26-.63s.38-.26,.63-.26H12.21c1.38,0,2.68,.26,3.9,.78,1.22,.52,2.28,1.23,3.18,2.15,.9,.91,1.62,1.97,2.15,3.18,.53,1.21,.8,2.5,.8,3.88s-.22,2.67-.67,3.87-1.12,2.23-2.02,3.11c-.9,.88-2.03,1.57-3.38,2.07-1.35,.51-2.92,.76-4.73,.76Zm.27-12.99h-3.49c-.25,0-.46,.09-.63,.26-.17,.17-.26,.38-.26,.62v4.34c0,.25,.09,.45,.26,.62,.17,.17,.38,.26,.63,.26h3.98c.94,0,1.63-.3,2.06-.9s.65-1.28,.65-2.04c0-.39-.07-.78-.2-1.16-.14-.38-.34-.72-.61-1.01-.27-.29-.61-.53-1-.72-.4-.18-.86-.28-1.38-.28Z"/><path class="cls-1" d="M32.41,8.18v1.55c0,.25,.09,.46,.26,.63,.17,.17,.38,.26,.63,.26h10.03c.25,0,.46,.09,.63,.26,.17,.17,.26,.38,.26,.63v5.11c0,.25-.09,.46-.26,.63-.17,.17-.38,.26-.63,.26h-10.03c-.25,0-.46,.09-.63,.26-.17,.17-.26,.38-.26,.63v1.41c0,.25,.09,.46,.26,.63,.17,.17,.38,.26,.63,.26h11.51c.25,0,.46,.09,.63,.26,.17,.17,.26,.38,.26,.63v5.11c0,.25-.09,.46-.26,.63-.17,.17-.38,.26-.63,.26H25.97c-.25,0-.46-.09-.63-.26-.17-.17-.26-.38-.26-.63V1.37c0-.25,.09-.46,.26-.63s.38-.26,.63-.26h18.83c.25,0,.46,.09,.63,.26,.17,.17,.26,.38,.26,.63V6.4c0,.25-.09,.46-.26,.63-.17,.17-.38,.26-.63,.26h-11.51c-.25,0-.46,.09-.63,.26-.17,.17-.26,.38-.26,.63Z"/><path class="cls-1" d="M56.86,27.57h-5.54c-.25,0-.46-.09-.63-.26-.17-.17-.26-.38-.26-.63V1.37c0-.25,.09-.46,.26-.63,.17-.17,.38-.26,.63-.26h11.51c1.43,0,2.75,.24,3.96,.72,1.21,.48,2.24,1.15,3.09,2.02,.85,.86,1.52,1.89,2,3.07,.48,1.18,.72,2.49,.72,3.92,0,.79-.09,1.57-.28,2.35-.19,.78-.45,1.51-.8,2.2-.35,.69-.75,1.31-1.22,1.87-.47,.55-1,1.02-1.59,1.39-.2,.15-.33,.33-.39,.54-.06,.21-.02,.41,.13,.61,.94,1.23,1.92,2.5,2.96,3.81,1.04,1.31,1.96,2.5,2.77,3.59,.15,.2,.19,.41,.11,.65-.07,.23-.23,.35-.48,.35h-6.88c-.25,0-.51-.07-.8-.2-.28-.13-.5-.3-.65-.5-.79-1.04-1.57-2.08-2.34-3.15-.77-1.06-1.54-2.13-2.3-3.22-.15-.2-.36-.36-.63-.5-.27-.14-.53-.2-.77-.2h-.81c-.25,0-.45,.09-.63,.26-.17,.17-.26,.38-.26,.63v5.99c0,.25-.09,.46-.26,.63-.17,.17-.38,.26-.63,.26Zm1.78-14.58h3.9c.29,0,.6-.06,.92-.17,.32-.11,.61-.28,.88-.52s.49-.52,.66-.87c.17-.35,.26-.75,.26-1.22,0-.25-.04-.54-.13-.87-.09-.33-.23-.65-.44-.96-.21-.31-.49-.57-.85-.78-.36-.21-.79-.31-1.31-.31h-3.9c-.25,0-.45,.09-.63,.26-.17,.17-.26,.38-.26,.63v3.92c0,.25,.09,.46,.26,.63s.38,.26,.63,.26Z"/><path class="cls-1" d="M80.1,18.28c1.33,.86,2.65,1.54,3.96,2.04,1.31,.49,2.53,.74,3.66,.74s1.91-.15,2.48-.46c.57-.31,.85-.77,.85-1.39,0-.32-.12-.57-.37-.76-.25-.18-.57-.34-.98-.46-.41-.12-.88-.22-1.42-.3-.54-.07-1.1-.17-1.67-.3-.54-.1-1.18-.22-1.91-.35s-1.47-.33-2.24-.59c-.76-.26-1.52-.58-2.28-.98-.75-.39-1.42-.9-2.02-1.52-.59-.62-1.07-1.35-1.42-2.2-.36-.85-.54-1.86-.54-3.02,0-1.7,.33-3.11,1-4.22,.67-1.11,1.51-1.99,2.53-2.65s2.16-1.11,3.42-1.37c1.26-.26,2.48-.39,3.66-.39,2.07,0,3.93,.3,5.57,.91,1.64,.6,3.21,1.49,4.72,2.65,.2,.17,.31,.38,.33,.63,.02,.25-.04,.47-.19,.67l-2.89,4.11c-.15,.2-.35,.32-.59,.37s-.47,0-.67-.15c-1.26-.79-2.43-1.35-3.51-1.68-1.09-.33-2.08-.5-3-.5-.27,0-.59,0-.94,.02-.36,.01-.7,.06-1.02,.15-.32,.09-.59,.23-.8,.43-.21,.2-.31,.47-.31,.81s.26,.65,.78,.93,1.11,.51,1.78,.7,1.31,.35,1.92,.46,1.01,.18,1.18,.2c.89,.17,1.86,.43,2.92,.76,1.06,.33,2.05,.83,2.98,1.48,.93,.65,1.7,1.5,2.33,2.55,.63,1.05,.94,2.36,.94,3.94,0,1.48-.26,2.76-.78,3.83-.52,1.07-1.24,1.96-2.16,2.65-.92,.69-2.03,1.2-3.33,1.54-1.3,.33-2.73,.5-4.31,.5-1.28,0-2.48-.1-3.59-.31-1.11-.21-2.15-.5-3.11-.87s-1.86-.81-2.68-1.31c-.83-.51-1.59-1.04-2.28-1.61-.2-.15-.31-.35-.33-.61-.02-.26,.04-.49,.19-.68l2.85-4.11c.15-.2,.35-.32,.59-.37,.25-.05,.47-.01,.67,.11Z"/><path class="cls-1" d="M101.01,14.02c0-1.92,.37-3.74,1.11-5.44s1.74-3.19,3-4.46,2.74-2.28,4.44-3.02,3.51-1.11,5.44-1.11,3.74,.37,5.44,1.11,3.19,1.75,4.46,3.02,2.28,2.76,3.02,4.46,1.11,3.52,1.11,5.44-.37,3.74-1.11,5.44-1.75,3.19-3.02,4.46-2.76,2.28-4.46,3.02c-1.7,.74-3.52,1.11-5.44,1.11s-3.74-.37-5.44-1.11c-1.7-.74-3.18-1.75-4.44-3.02s-2.26-2.76-3-4.46-1.11-3.51-1.11-5.44Zm7.33,0c0,.94,.17,1.83,.52,2.66,.34,.84,.82,1.58,1.42,2.22s1.31,1.15,2.13,1.54c.81,.38,1.68,.57,2.59,.57s1.78-.19,2.59-.57c.81-.38,1.53-.89,2.15-1.54,.62-.64,1.1-1.38,1.44-2.22s.52-1.73,.52-2.66-.17-1.79-.52-2.65c-.35-.85-.83-1.59-1.44-2.22-.62-.63-1.33-1.13-2.15-1.52-.81-.38-1.68-.57-2.59-.57s-1.78,.19-2.59,.57c-.81,.38-1.52,.89-2.13,1.52-.6,.63-1.08,1.37-1.42,2.22-.35,.85-.52,1.73-.52,2.65Z"/><path class="cls-1" d="M158.28,1.37V26.68c0,.25-.09,.46-.26,.63-.17,.17-.38,.26-.63,.26h-5.46c-.25,0-.5-.07-.78-.22-.27-.15-.48-.32-.63-.52l-9.64-13.58c-.15-.2-.3-.28-.46-.24s-.24,.18-.24,.43v13.25c0,.25-.09,.46-.26,.63-.17,.17-.38,.26-.63,.26h-5.54c-.25,0-.46-.09-.63-.26-.17-.17-.26-.38-.26-.63V1.37c0-.25,.09-.46,.26-.63s.38-.26,.63-.26h5.55c.25,0,.51,.07,.78,.2,.27,.14,.48,.3,.63,.5l9.62,13.58c.15,.2,.3,.28,.46,.26,.16-.02,.24-.16,.24-.41V1.37c0-.25,.09-.46,.26-.63s.38-.26,.63-.26h5.48c.25,0,.46,.09,.63,.26,.17,.17,.26,.38,.26,.63Z"/><path class="cls-1" d="M171.83,1.33c.1-.22,.26-.41,.5-.57s.49-.24,.76-.24h5.18c.25,0,.49,.08,.72,.24s.4,.35,.5,.57l10.8,25.16c.1,.22,.08,.46-.06,.7-.14,.25-.4,.37-.8,.37h-6.33c-.27,0-.52-.08-.76-.24-.23-.16-.41-.35-.54-.57l-1-2.22c-.12-.22-.3-.41-.54-.57s-.47-.24-.72-.24h-7.81c-.27,0-.52,.08-.76,.24s-.4,.35-.5,.57l-1.04,2.22c-.1,.22-.27,.41-.5,.57-.23,.16-.47,.24-.72,.24h-6.36c-.12,0-.25-.02-.39-.07-.13-.05-.25-.12-.33-.22-.09-.1-.14-.22-.17-.37-.02-.15,.01-.32,.11-.52L171.83,1.33Zm2.18,16.09h3.29c.25,0,.43-.08,.54-.24,.11-.16,.1-.35-.02-.57-.25-.62-.54-1.34-.89-2.17-.35-.83-.67-1.6-.96-2.31-.1-.22-.21-.33-.33-.33s-.23,.11-.33,.33l-1.85,4.48c-.1,.22-.1,.41,0,.57,.1,.16,.28,.24,.55,.24Z"/><path class="cls-1" d="M212.19,21.65v5.03c0,.25-.09,.46-.26,.63-.17,.17-.38,.26-.63,.26h-18.46c-.27,0-.49-.09-.65-.26s-.24-.38-.24-.63V1.37c0-.25,.08-.46,.24-.63,.16-.17,.38-.26,.65-.26h5.55c.25,0,.46,.09,.63,.26,.17,.17,.26,.38,.26,.63V19.87c0,.25,.08,.46,.24,.63,.16,.17,.38,.26,.65,.26h11.14c.25,0,.46,.09,.63,.26,.17,.17,.26,.38,.26,.63Z"/><path class="cls-1" d="M234.14,27.57h-5.56c-.27,0-.48-.09-.64-.26-.16-.17-.24-.38-.24-.63V1.41c0-.25,.08-.46,.24-.63,.16-.17,.37-.26,.64-.26h5.56c.25,0,.45,.09,.63,.26s.26,.38,.26,.63V26.68c0,.25-.09,.46-.26,.63s-.38,.26-.63,.26Z"/><path class="cls-1" d="M251.39,20.28h-3.23c-.25,0-.46,.09-.63,.26-.17,.17-.26,.38-.26,.63v5.51c0,.25-.09,.46-.26,.63s-.38,.26-.63,.26h-5.56c-.25,0-.46-.09-.63-.26-.17-.17-.26-.38-.26-.63V1.37c0-.25,.09-.46,.26-.63,.17-.17,.38-.26,.63-.26h11.32c1.38,0,2.68,.26,3.9,.78,1.22,.52,2.28,1.23,3.18,2.15,.9,.91,1.62,1.97,2.15,3.18,.53,1.21,.8,2.5,.8,3.88s-.22,2.67-.67,3.87-1.12,2.23-2.02,3.11c-.9,.88-2.03,1.57-3.38,2.07-1.35,.51-2.92,.76-4.73,.76Zm.27-12.99h-3.5c-.25,0-.46,.09-.63,.26-.17,.17-.26,.38-.26,.62v4.34c0,.25,.09,.45,.26,.62,.17,.17,.38,.26,.63,.26h3.98c.94,0,1.63-.3,2.06-.9s.65-1.28,.65-2.04c0-.39-.07-.78-.21-1.16-.14-.38-.34-.72-.61-1.01-.27-.29-.61-.53-1-.72-.4-.18-.86-.28-1.38-.28Z"/><path class="cls-1" d="M289.19,1.37V26.68c0,.25-.09,.46-.26,.63-.17,.17-.38,.26-.63,.26h-5.55c-.27,0-.49-.09-.65-.26s-.24-.38-.24-.63v-7.92c0-.25-.09-.46-.26-.63-.17-.17-.38-.26-.63-.26h-7.59c-.27,0-.49,.09-.64,.26-.16,.17-.24,.38-.24,.63v7.92c0,.25-.09,.46-.26,.63-.17,.17-.38,.26-.63,.26h-5.54c-.27,0-.49-.09-.65-.26s-.24-.38-.24-.63V1.37c0-.25,.08-.46,.24-.63,.16-.17,.38-.26,.65-.26h5.54c.25,0,.46,.09,.63,.26,.17,.17,.26,.38,.26,.63V10.1c0,.25,.08,.45,.24,.63,.16,.17,.37,.26,.64,.26h7.59c.25,0,.46-.09,.63-.26,.17-.17,.26-.38,.26-.63V1.37c0-.25,.08-.45,.24-.63,.16-.17,.38-.26,.65-.26h5.55c.25,0,.46,.09,.63,.26,.17,.17,.26,.38,.26,.63Z"/><path class="cls-1" d="M293.48,14.02c0-1.92,.37-3.74,1.11-5.44s1.74-3.19,3-4.46,2.74-2.28,4.44-3.02,3.51-1.11,5.44-1.11,3.74,.37,5.44,1.11,3.19,1.75,4.46,3.02,2.28,2.76,3.02,4.46,1.11,3.52,1.11,5.44-.37,3.74-1.11,5.44-1.75,3.19-3.02,4.46-2.76,2.28-4.46,3.02c-1.7,.74-3.52,1.11-5.44,1.11s-3.74-.37-5.44-1.11c-1.7-.74-3.18-1.75-4.44-3.02s-2.26-2.76-3-4.46-1.11-3.51-1.11-5.44Zm7.33,0c0,.94,.17,1.83,.52,2.66,.34,.84,.82,1.58,1.42,2.22s1.31,1.15,2.13,1.54c.81,.38,1.68,.57,2.59,.57s1.78-.19,2.59-.57c.81-.38,1.53-.89,2.15-1.54,.62-.64,1.1-1.38,1.44-2.22s.52-1.73,.52-2.66-.17-1.79-.52-2.65c-.35-.85-.83-1.59-1.44-2.22-.62-.63-1.33-1.13-2.15-1.52-.81-.38-1.68-.57-2.59-.57s-1.78,.19-2.59,.57c-.81,.38-1.52,.89-2.13,1.52-.6,.63-1.08,1.37-1.42,2.22-.35,.85-.52,1.73-.52,2.65Z"/><path class="cls-1" d="M350.76,1.37V26.68c0,.25-.09,.46-.26,.63-.17,.17-.38,.26-.63,.26h-5.46c-.25,0-.5-.07-.78-.22-.27-.15-.48-.32-.63-.52l-9.64-13.58c-.15-.2-.3-.28-.46-.24s-.24,.18-.24,.43v13.25c0,.25-.09,.46-.26,.63-.17,.17-.38,.26-.63,.26h-5.54c-.25,0-.46-.09-.63-.26-.17-.17-.26-.38-.26-.63V1.37c0-.25,.09-.46,.26-.63s.38-.26,.63-.26h5.55c.25,0,.51,.07,.78,.2,.27,.14,.48,.3,.63,.5l9.62,13.58c.15,.2,.3,.28,.46,.26,.16-.02,.24-.16,.24-.41V1.37c0-.25,.09-.46,.26-.63s.38-.26,.63-.26h5.48c.25,0,.46,.09,.63,.26,.17,.17,.26,.38,.26,.63Z"/><path class="cls-1" d="M363.6,8.18v1.55c0,.25,.09,.46,.26,.63s.38,.26,.63,.26h10.03c.25,0,.46,.09,.63,.26,.17,.17,.26,.38,.26,.63v5.11c0,.25-.09,.46-.26,.63s-.38,.26-.63,.26h-10.03c-.25,0-.46,.09-.63,.26-.17,.17-.26,.38-.26,.63v1.41c0,.25,.09,.46,.26,.63,.17,.17,.38,.26,.63,.26h11.51c.25,0,.46,.09,.63,.26s.26,.38,.26,.63v5.11c0,.25-.09,.46-.26,.63s-.38,.26-.63,.26h-18.83c-.25,0-.46-.09-.63-.26s-.26-.38-.26-.63V1.37c0-.25,.09-.46,.26-.63,.17-.17,.38-.26,.63-.26h18.83c.25,0,.46,.09,.63,.26,.17,.17,.26,.38,.26,.63V6.4c0,.25-.09,.46-.26,.63s-.38,.26-.63,.26h-11.51c-.25,0-.46,.09-.63,.26-.17,.17-.26,.38-.26,.63Z"/><path class="cls-1" d="M397.3,18.28c1.33,.86,2.65,1.54,3.96,2.04,1.31,.49,2.53,.74,3.66,.74s1.91-.15,2.48-.46,.85-.77,.85-1.39c0-.32-.12-.57-.37-.76-.25-.18-.57-.34-.98-.46-.41-.12-.88-.22-1.42-.3-.54-.07-1.1-.17-1.67-.3-.54-.1-1.18-.22-1.91-.35-.73-.14-1.47-.33-2.24-.59-.76-.26-1.52-.58-2.28-.98-.75-.39-1.42-.9-2.02-1.52-.59-.62-1.07-1.35-1.42-2.2-.36-.85-.54-1.86-.54-3.02,0-1.7,.33-3.11,1-4.22,.67-1.11,1.51-1.99,2.54-2.65,1.02-.65,2.16-1.11,3.42-1.37,1.26-.26,2.48-.39,3.66-.39,2.07,0,3.93,.3,5.57,.91s3.21,1.49,4.72,2.65c.2,.17,.31,.38,.33,.63,.02,.25-.04,.47-.18,.67l-2.89,4.11c-.15,.2-.35,.32-.59,.37-.25,.05-.47,0-.67-.15-1.26-.79-2.43-1.35-3.51-1.68-1.09-.33-2.08-.5-3-.5-.27,0-.59,0-.94,.02-.36,.01-.7,.06-1.02,.15-.32,.09-.59,.23-.8,.43s-.31,.47-.31,.81,.26,.65,.78,.93c.52,.27,1.11,.51,1.78,.7,.67,.2,1.31,.35,1.92,.46,.62,.11,1.01,.18,1.18,.2,.89,.17,1.86,.43,2.92,.76s2.05,.83,2.98,1.48,1.7,1.5,2.33,2.55c.63,1.05,.94,2.36,.94,3.94,0,1.48-.26,2.76-.78,3.83-.52,1.07-1.24,1.96-2.17,2.65-.92,.69-2.04,1.2-3.33,1.54s-2.73,.5-4.31,.5c-1.28,0-2.48-.1-3.59-.31-1.11-.21-2.15-.5-3.11-.87s-1.86-.81-2.68-1.31c-.83-.51-1.59-1.04-2.28-1.61-.2-.15-.31-.35-.33-.61-.03-.26,.04-.49,.18-.68l2.85-4.11c.15-.2,.35-.32,.59-.37,.25-.05,.47-.01,.67,.11Z"/><path class="cls-1" d="M436.38,7.29h-5.18c-.25,0-.46,.09-.63,.26-.17,.17-.26,.38-.26,.63V26.68c0,.25-.08,.46-.24,.63-.16,.17-.38,.26-.65,.26h-5.55c-.25,0-.46-.09-.63-.26s-.26-.38-.26-.63V8.18c0-.25-.08-.46-.24-.63-.16-.17-.38-.26-.65-.26h-5.25c-.25,0-.46-.09-.63-.26-.17-.17-.26-.38-.26-.63V1.37c0-.25,.09-.46,.26-.63s.38-.26,.63-.26h19.54c.27,0,.49,.09,.65,.26,.16,.17,.24,.38,.24,.63V6.4c0,.25-.08,.46-.24,.63-.16,.17-.38,.26-.65,.26Z"/><path class="cls-1" d="M445.22,1.33c.1-.22,.26-.41,.5-.57s.49-.24,.76-.24h5.18c.25,0,.49,.08,.72,.24s.4,.35,.5,.57l10.8,25.16c.1,.22,.08,.46-.06,.7-.14,.25-.4,.37-.8,.37h-6.33c-.27,0-.52-.08-.76-.24-.23-.16-.41-.35-.54-.57l-1-2.22c-.12-.22-.3-.41-.54-.57s-.47-.24-.72-.24h-7.81c-.27,0-.52,.08-.76,.24s-.4,.35-.5,.57l-1.04,2.22c-.1,.22-.27,.41-.5,.57-.23,.16-.47,.24-.72,.24h-6.36c-.12,0-.25-.02-.39-.07-.13-.05-.25-.12-.33-.22-.09-.1-.14-.22-.17-.37-.02-.15,.01-.32,.11-.52l10.73-25.05Zm2.18,16.09h3.29c.25,0,.43-.08,.54-.24,.11-.16,.1-.35-.02-.57-.25-.62-.54-1.34-.89-2.17-.35-.83-.67-1.6-.96-2.31-.1-.22-.21-.33-.33-.33s-.23,.11-.33,.33l-1.85,4.48c-.1,.22-.1,.41,0,.57,.1,.16,.28,.24,.55,.24Z"/><path class="cls-1" d="M481.22,7.29h-5.18c-.25,0-.46,.09-.63,.26-.17,.17-.26,.38-.26,.63V26.68c0,.25-.08,.46-.24,.63-.16,.17-.38,.26-.65,.26h-5.55c-.25,0-.46-.09-.63-.26s-.26-.38-.26-.63V8.18c0-.25-.08-.46-.24-.63-.16-.17-.38-.26-.65-.26h-5.25c-.25,0-.46-.09-.63-.26-.17-.17-.26-.38-.26-.63V1.37c0-.25,.09-.46,.26-.63s.38-.26,.63-.26h19.54c.27,0,.49,.09,.65,.26,.16,.17,.24,.38,.24,.63V6.4c0,.25-.08,.46-.24,.63-.16,.17-.38,.26-.65,.26Z"/><path class="cls-1" d="M491.69,27.57h-5.56c-.27,0-.48-.09-.64-.26-.16-.17-.24-.38-.24-.63V1.41c0-.25,.08-.46,.24-.63,.16-.17,.37-.26,.64-.26h5.56c.25,0,.45,.09,.63,.26s.26,.38,.26,.63V26.68c0,.25-.09,.46-.26,.63s-.38,.26-.63,.26Z"/><path class="cls-1" d="M500.61,18.28c1.33,.86,2.65,1.54,3.96,2.04,1.31,.49,2.53,.74,3.66,.74s1.91-.15,2.48-.46,.85-.77,.85-1.39c0-.32-.12-.57-.37-.76-.25-.18-.57-.34-.98-.46-.41-.12-.88-.22-1.42-.3-.54-.07-1.1-.17-1.67-.3-.54-.1-1.18-.22-1.91-.35-.73-.14-1.47-.33-2.24-.59-.76-.26-1.52-.58-2.28-.98-.75-.39-1.42-.9-2.02-1.52-.59-.62-1.07-1.35-1.42-2.2-.36-.85-.54-1.86-.54-3.02,0-1.7,.33-3.11,1-4.22,.67-1.11,1.51-1.99,2.54-2.65,1.02-.65,2.16-1.11,3.42-1.37,1.26-.26,2.48-.39,3.66-.39,2.07,0,3.93,.3,5.57,.91s3.21,1.49,4.72,2.65c.2,.17,.31,.38,.33,.63,.02,.25-.04,.47-.18,.67l-2.89,4.11c-.15,.2-.35,.32-.59,.37-.25,.05-.47,0-.67-.15-1.26-.79-2.43-1.35-3.51-1.68-1.09-.33-2.08-.5-3-.5-.27,0-.59,0-.94,.02-.36,.01-.7,.06-1.02,.15-.32,.09-.59,.23-.8,.43s-.31,.47-.31,.81,.26,.65,.78,.93c.52,.27,1.11,.51,1.78,.7,.67,.2,1.31,.35,1.92,.46,.62,.11,1.01,.18,1.18,.2,.89,.17,1.86,.43,2.92,.76s2.05,.83,2.98,1.48,1.7,1.5,2.33,2.55c.63,1.05,.94,2.36,.94,3.94,0,1.48-.26,2.76-.78,3.83-.52,1.07-1.24,1.96-2.17,2.65-.92,.69-2.04,1.2-3.33,1.54s-2.73,.5-4.31,.5c-1.28,0-2.48-.1-3.59-.31-1.11-.21-2.15-.5-3.11-.87s-1.86-.81-2.68-1.31c-.83-.51-1.59-1.04-2.28-1.61-.2-.15-.31-.35-.33-.61-.03-.26,.04-.49,.18-.68l2.85-4.11c.15-.2,.35-.32,.59-.37,.25-.05,.47-.01,.67,.11Z"/><path class="cls-1" d="M539.68,7.29h-5.18c-.25,0-.46,.09-.63,.26-.17,.17-.26,.38-.26,.63V26.68c0,.25-.08,.46-.24,.63-.16,.17-.38,.26-.65,.26h-5.55c-.25,0-.46-.09-.63-.26s-.26-.38-.26-.63V8.18c0-.25-.08-.46-.24-.63-.16-.17-.38-.26-.65-.26h-5.25c-.25,0-.46-.09-.63-.26-.17-.17-.26-.38-.26-.63V1.37c0-.25,.09-.46,.26-.63s.38-.26,.63-.26h19.54c.27,0,.49,.09,.65,.26,.16,.17,.24,.38,.24,.63V6.4c0,.25-.08,.46-.24,.63-.16,.17-.38,.26-.65,.26Z"/><path class="cls-1" d="M550.15,27.57h-5.56c-.27,0-.48-.09-.64-.26-.16-.17-.24-.38-.24-.63V1.41c0-.25,.08-.46,.24-.63,.16-.17,.37-.26,.64-.26h5.56c.25,0,.45,.09,.63,.26s.26,.38,.26,.63V26.68c0,.25-.09,.46-.26,.63s-.38,.26-.63,.26Z"/><path class="cls-1" d="M582.15,20.39c-.72,1.16-1.5,2.21-2.37,3.15-.86,.94-1.83,1.75-2.9,2.41-1.07,.66-2.26,1.18-3.57,1.54-1.31,.37-2.75,.55-4.33,.55-1.97,0-3.82-.37-5.55-1.11-1.73-.74-3.24-1.74-4.53-3s-2.31-2.74-3.05-4.44c-.74-1.7-1.11-3.51-1.11-5.44s.37-3.74,1.11-5.44c.74-1.7,1.76-3.18,3.05-4.44,1.29-1.26,2.81-2.26,4.53-3,1.73-.74,3.58-1.11,5.55-1.11,1.63,0,3.09,.18,4.4,.55s2.49,.89,3.55,1.55c1.06,.67,2.02,1.47,2.87,2.42,.85,.95,1.63,1.99,2.35,3.13,.12,.2,.15,.41,.07,.63-.07,.22-.22,.38-.44,.48l-5.25,2.07c-.25,.1-.49,.1-.74,0-.25-.1-.43-.25-.55-.44-.72-1.13-1.58-2-2.59-2.61-1.01-.6-2.23-.91-3.66-.91-.94,0-1.82,.2-2.65,.59-.83,.4-1.55,.92-2.17,1.58-.62,.66-1.1,1.42-1.44,2.28-.35,.87-.52,1.76-.52,2.67s.17,1.84,.52,2.69c.34,.85,.83,1.6,1.44,2.24,.62,.64,1.34,1.16,2.17,1.56,.83,.4,1.71,.59,2.65,.59,1.36,0,2.58-.33,3.68-.98,1.1-.65,1.97-1.5,2.61-2.53,.12-.2,.3-.35,.54-.44s.47-.1,.72,0l5.25,2.07c.22,.1,.37,.25,.44,.46,.07,.21,.05,.43-.07,.65Z"/><path class="cls-1" d="M587.11,18.28c1.33,.86,2.65,1.54,3.96,2.04,1.31,.49,2.53,.74,3.66,.74s1.91-.15,2.48-.46,.85-.77,.85-1.39c0-.32-.12-.57-.37-.76-.25-.18-.57-.34-.98-.46-.41-.12-.88-.22-1.42-.3-.54-.07-1.1-.17-1.67-.3-.54-.1-1.18-.22-1.91-.35-.73-.14-1.47-.33-2.24-.59-.76-.26-1.52-.58-2.28-.98-.75-.39-1.42-.9-2.02-1.52-.59-.62-1.07-1.35-1.42-2.2-.36-.85-.54-1.86-.54-3.02,0-1.7,.33-3.11,1-4.22,.67-1.11,1.51-1.99,2.54-2.65,1.02-.65,2.16-1.11,3.42-1.37,1.26-.26,2.48-.39,3.66-.39,2.07,0,3.93,.3,5.57,.91s3.21,1.49,4.72,2.65c.2,.17,.31,.38,.33,.63,.02,.25-.04,.47-.18,.67l-2.89,4.11c-.15,.2-.35,.32-.59,.37-.25,.05-.47,0-.67-.15-1.26-.79-2.43-1.35-3.51-1.68-1.09-.33-2.08-.5-3-.5-.27,0-.59,0-.94,.02-.36,.01-.7,.06-1.02,.15-.32,.09-.59,.23-.8,.43s-.31,.47-.31,.81,.26,.65,.78,.93c.52,.27,1.11,.51,1.78,.7,.67,.2,1.31,.35,1.92,.46,.62,.11,1.01,.18,1.18,.2,.89,.17,1.86,.43,2.92,.76s2.05,.83,2.98,1.48,1.7,1.5,2.33,2.55c.63,1.05,.94,2.36,.94,3.94,0,1.48-.26,2.76-.78,3.83-.52,1.07-1.24,1.96-2.17,2.65-.92,.69-2.04,1.2-3.33,1.54s-2.73,.5-4.31,.5c-1.28,0-2.48-.1-3.59-.31-1.11-.21-2.15-.5-3.11-.87s-1.86-.81-2.68-1.31c-.83-.51-1.59-1.04-2.28-1.61-.2-.15-.31-.35-.33-.61-.03-.26,.04-.49,.18-.68l2.85-4.11c.15-.2,.35-.32,.59-.37,.25-.05,.47-.01,.67,.11Z"/></g></g></svg>