<?xml version="1.0" encoding="utf-8"?>
<!-- Generator: Adobe Illustrator 26.3.1, SVG Export Plug-In . SVG Version: 6.00 Build 0)  -->
<svg version="1.1" id="Layer_2_00000099655080383718619950000000077383196551136429_"
	 xmlns="http://www.w3.org/2000/svg" xmlns:xlink="http://www.w3.org/1999/xlink" x="0px" y="0px" viewBox="0 0 605.4 28"
	 style="enable-background:new 0 0 605.4 28;" xml:space="preserve">
<style type="text/css">
	.st0{fill:#A65D42;}
</style>
<g id="Layer_1-2">
	<g>
		<path class="st0" d="M53.7,21.4h-2.8c-0.2,0-0.4,0.1-0.5,0.2c-0.1,0.1-0.2,0.3-0.2,0.5v4.7c0,0.2-0.1,0.4-0.2,0.5
			c-0.1,0.1-0.3,0.2-0.5,0.2h-4.7c-0.2,0-0.4-0.1-0.5-0.2c-0.2-0.1-0.2-0.3-0.2-0.5V5.2c0-0.2,0.1-0.4,0.2-0.5s0.3-0.2,0.5-0.2h9.7
			c1.2,0,2.3,0.2,3.3,0.7c1,0.4,1.9,1.1,2.7,1.8c0.8,0.8,1.4,1.7,1.8,2.7s0.7,2.1,0.7,3.3s-0.2,2.3-0.6,3.3c-0.4,1-1,1.9-1.7,2.7
			s-1.7,1.3-2.9,1.8C56.6,21.2,55.2,21.4,53.7,21.4z M53.9,10.3h-3c-0.2,0-0.4,0.1-0.5,0.2c-0.1,0.1-0.2,0.3-0.2,0.5v3.7
			c0,0.2,0.1,0.4,0.2,0.5c0.1,0.1,0.3,0.2,0.5,0.2h3.4c0.8,0,1.4-0.3,1.8-0.8c0.4-0.5,0.6-1.1,0.6-1.7c0-0.3-0.1-0.7-0.2-1
			c-0.1-0.3-0.3-0.6-0.5-0.9c-0.2-0.2-0.5-0.5-0.9-0.6C54.8,10.4,54.4,10.3,53.9,10.3L53.9,10.3z"/>
		<path class="st0" d="M71.6,11.1v1.3c0,0.2,0.1,0.4,0.2,0.5c0.1,0.1,0.3,0.2,0.5,0.2h8.6c0.2,0,0.4,0.1,0.5,0.2
			c0.1,0.1,0.2,0.3,0.2,0.5v4.4c0,0.2-0.1,0.4-0.2,0.5C81.3,19,81.2,19,80.9,19h-8.6c-0.2,0-0.4,0.1-0.5,0.2
			c-0.1,0.1-0.2,0.3-0.2,0.5V21c0,0.2,0.1,0.4,0.2,0.5c0.1,0.1,0.3,0.2,0.5,0.2h9.8c0.2,0,0.4,0.1,0.5,0.2c0.1,0.1,0.2,0.3,0.2,0.5
			v4.4c0,0.2-0.1,0.4-0.2,0.5c-0.1,0.1-0.3,0.2-0.5,0.2H66.1c-0.2,0-0.4-0.1-0.5-0.2c-0.1-0.1-0.2-0.3-0.2-0.5V5.2
			c0-0.2,0.1-0.4,0.2-0.5c0.1-0.1,0.3-0.2,0.5-0.2h16.1c0.2,0,0.4,0.1,0.5,0.2C82.9,4.8,83,5,83,5.2v4.3c0,0.2-0.1,0.4-0.2,0.5
			c-0.1,0.1-0.3,0.2-0.5,0.2h-9.8c-0.2,0-0.4,0.1-0.5,0.2C71.7,10.7,71.6,10.8,71.6,11.1L71.6,11.1z"/>
		<path class="st0" d="M92.5,27.6h-4.7c-0.2,0-0.4-0.1-0.5-0.2c-0.1-0.1-0.2-0.3-0.2-0.5V5.2c0-0.2,0.1-0.4,0.2-0.5s0.3-0.2,0.5-0.2
			h9.8c1.2,0,2.4,0.2,3.4,0.6c1,0.4,1.9,1,2.6,1.7c0.7,0.7,1.3,1.6,1.7,2.6c0.4,1,0.6,2.1,0.6,3.4c0,0.7-0.1,1.3-0.2,2
			c-0.2,0.7-0.4,1.3-0.7,1.9c-0.3,0.6-0.6,1.1-1,1.6c-0.4,0.5-0.9,0.9-1.4,1.2c-0.2,0.1-0.3,0.3-0.3,0.5c-0.1,0.2,0,0.4,0.1,0.5
			c0.8,1.1,1.6,2.1,2.5,3.3s1.7,2.1,2.4,3.1c0.1,0.2,0.2,0.4,0.1,0.6c-0.1,0.2-0.2,0.3-0.4,0.3h-5.9c-0.2,0-0.4-0.1-0.7-0.2
			c-0.2-0.1-0.4-0.3-0.6-0.4c-0.7-0.9-1.3-1.8-2-2.7c-0.7-0.9-1.3-1.8-2-2.8c-0.1-0.2-0.3-0.3-0.5-0.4C95.2,21,94.9,21,94.7,21H94
			c-0.2,0-0.4,0.1-0.5,0.2c-0.1,0.1-0.2,0.3-0.2,0.5v5.1c0,0.2-0.1,0.4-0.2,0.5C92.9,27.6,92.7,27.6,92.5,27.6L92.5,27.6z M94,15.2
			h3.3c0.2,0,0.5-0.1,0.8-0.1c0.3-0.1,0.5-0.2,0.8-0.4c0.2-0.2,0.4-0.4,0.6-0.7c0.1-0.3,0.2-0.6,0.2-1c0-0.2,0-0.5-0.1-0.7
			c-0.1-0.3-0.2-0.6-0.4-0.8c-0.2-0.3-0.4-0.5-0.7-0.7c-0.3-0.2-0.7-0.3-1.1-0.3H94c-0.2,0-0.4,0.1-0.5,0.2
			c-0.1,0.1-0.2,0.3-0.2,0.5v3.4c0,0.2,0.1,0.4,0.2,0.5C93.6,15.1,93.8,15.2,94,15.2L94,15.2z"/>
		<path class="st0" d="M112.4,19.7c1.1,0.7,2.3,1.3,3.4,1.7c1.1,0.4,2.2,0.6,3.1,0.6c1,0,1.6-0.1,2.1-0.4c0.5-0.3,0.7-0.7,0.7-1.2
			c0-0.3-0.1-0.5-0.3-0.6c-0.2-0.2-0.5-0.3-0.8-0.4c-0.4-0.1-0.8-0.2-1.2-0.3c-0.5-0.1-0.9-0.1-1.4-0.3c-0.5-0.1-1-0.2-1.6-0.3
			c-0.6-0.1-1.3-0.3-1.9-0.5c-0.6-0.2-1.3-0.5-1.9-0.8c-0.6-0.3-1.2-0.8-1.7-1.3c-0.5-0.5-0.9-1.2-1.2-1.9c-0.3-0.7-0.5-1.6-0.5-2.6
			c0-1.5,0.3-2.7,0.9-3.6s1.3-1.7,2.2-2.3s1.8-0.9,2.9-1.2c1.1-0.2,2.1-0.3,3.1-0.3c1.8,0,3.4,0.3,4.8,0.8c1.4,0.5,2.7,1.3,4,2.3
			c0.2,0.1,0.3,0.3,0.3,0.5c0,0.2,0,0.4-0.2,0.6l-2.5,3.5c-0.1,0.2-0.3,0.3-0.5,0.3s-0.4,0-0.6-0.1c-1.1-0.7-2.1-1.2-3-1.4
			c-0.9-0.3-1.8-0.4-2.6-0.4c-0.2,0-0.5,0-0.8,0c-0.3,0-0.6,0.1-0.9,0.1c-0.3,0.1-0.5,0.2-0.7,0.4c-0.2,0.2-0.3,0.4-0.3,0.7
			s0.2,0.6,0.7,0.8c0.4,0.2,0.9,0.4,1.5,0.6s1.1,0.3,1.6,0.4s0.9,0.2,1,0.2c0.8,0.1,1.6,0.4,2.5,0.6c0.9,0.3,1.8,0.7,2.5,1.3
			c0.8,0.6,1.5,1.3,2,2.2c0.5,0.9,0.8,2,0.8,3.4c0,1.3-0.2,2.4-0.7,3.3c-0.4,0.9-1.1,1.7-1.8,2.3c-0.8,0.6-1.7,1-2.8,1.3
			c-1.1,0.3-2.3,0.4-3.7,0.4c-1.1,0-2.1-0.1-3.1-0.3c-0.9-0.2-1.8-0.4-2.7-0.7c-0.8-0.3-1.6-0.7-2.3-1.1c-0.7-0.4-1.4-0.9-1.9-1.4
			c-0.2-0.1-0.3-0.3-0.3-0.5c0-0.2,0-0.4,0.2-0.6l2.4-3.5c0.1-0.2,0.3-0.3,0.5-0.3C112,19.6,112.2,19.6,112.4,19.7L112.4,19.7z"/>
		<path class="st0" d="M130.3,16.1c0-1.6,0.3-3.2,0.9-4.7s1.5-2.7,2.6-3.8c1.1-1.1,2.3-1.9,3.8-2.6c1.5-0.6,3-0.9,4.7-0.9
			c1.7,0,3.2,0.3,4.7,0.9c1.5,0.6,2.7,1.5,3.8,2.6c1.1,1.1,1.9,2.4,2.6,3.8s0.9,3,0.9,4.7s-0.3,3.2-0.9,4.7
			c-0.6,1.5-1.5,2.7-2.6,3.8c-1.1,1.1-2.4,1.9-3.8,2.6c-1.5,0.6-3,0.9-4.7,0.9s-3.2-0.3-4.7-0.9c-1.5-0.6-2.7-1.5-3.8-2.6
			c-1.1-1.1-1.9-2.4-2.6-3.8S130.3,17.7,130.3,16.1z M136.5,16.1c0,0.8,0.1,1.6,0.4,2.3c0.3,0.7,0.7,1.4,1.2,1.9s1.1,1,1.8,1.3
			c0.7,0.3,1.4,0.5,2.2,0.5c0.8,0,1.5-0.2,2.2-0.5c0.7-0.3,1.3-0.8,1.8-1.3c0.5-0.5,0.9-1.2,1.2-1.9c0.3-0.7,0.4-1.5,0.4-2.3
			c0-0.8-0.1-1.5-0.4-2.3c-0.3-0.7-0.7-1.4-1.2-1.9c-0.5-0.5-1.1-1-1.8-1.3c-0.7-0.3-1.4-0.5-2.2-0.5c-0.8,0-1.5,0.2-2.2,0.5
			c-0.7,0.3-1.3,0.8-1.8,1.3c-0.5,0.5-0.9,1.2-1.2,1.9C136.7,14.5,136.5,15.3,136.5,16.1z"/>
		<path class="st0" d="M179.2,5.2v21.6c0,0.2-0.1,0.4-0.2,0.5c-0.1,0.1-0.3,0.2-0.5,0.2h-4.7c-0.2,0-0.4-0.1-0.7-0.2
			c-0.2-0.1-0.4-0.3-0.5-0.4l-8.2-11.6c-0.1-0.2-0.3-0.2-0.4-0.2c-0.1,0-0.2,0.2-0.2,0.4v11.3c0,0.2-0.1,0.4-0.2,0.5
			c-0.1,0.1-0.3,0.2-0.5,0.2h-4.7c-0.2,0-0.4-0.1-0.5-0.2c-0.1-0.1-0.2-0.3-0.2-0.5V5.2c0-0.2,0.1-0.4,0.2-0.5
			c0.1-0.1,0.3-0.2,0.5-0.2h4.7c0.2,0,0.4,0.1,0.7,0.2c0.2,0.1,0.4,0.3,0.5,0.4l8.2,11.6c0.1,0.2,0.3,0.2,0.4,0.2
			c0.1,0,0.2-0.1,0.2-0.4V5.2c0-0.2,0.1-0.4,0.2-0.5c0.1-0.1,0.3-0.2,0.5-0.2h4.7c0.2,0,0.4,0.1,0.5,0.2
			C179.2,4.8,179.2,5,179.2,5.2L179.2,5.2z"/>
		<path class="st0" d="M190.8,5.2c0.1-0.2,0.2-0.4,0.4-0.5c0.2-0.1,0.4-0.2,0.6-0.2h4.4c0.2,0,0.4,0.1,0.6,0.2
			c0.2,0.1,0.3,0.3,0.4,0.5l9.2,21.5c0.1,0.2,0.1,0.4-0.1,0.6c-0.1,0.2-0.3,0.3-0.7,0.3h-5.4c-0.2,0-0.4-0.1-0.6-0.2
			c-0.2-0.1-0.4-0.3-0.5-0.5l-0.9-1.9c-0.1-0.2-0.3-0.4-0.5-0.5c-0.2-0.1-0.4-0.2-0.6-0.2h-6.7c-0.2,0-0.4,0.1-0.6,0.2
			c-0.2,0.1-0.3,0.3-0.4,0.5l-0.9,1.9c-0.1,0.2-0.2,0.4-0.4,0.5c-0.2,0.1-0.4,0.2-0.6,0.2h-5.4c-0.1,0-0.2,0-0.3-0.1
			c-0.1,0-0.2-0.1-0.3-0.2c-0.1-0.1-0.1-0.2-0.1-0.3c0-0.1,0-0.3,0.1-0.4L190.8,5.2z M192.7,19h2.8c0.2,0,0.4-0.1,0.5-0.2
			c0.1-0.1,0.1-0.3,0-0.5c-0.2-0.5-0.5-1.1-0.8-1.9c-0.3-0.7-0.6-1.4-0.8-2c-0.1-0.2-0.2-0.3-0.3-0.3s-0.2,0.1-0.3,0.3l-1.6,3.8
			c-0.1,0.2-0.1,0.4,0,0.5C192.3,18.9,192.5,19,192.7,19L192.7,19z"/>
		<path class="st0" d="M225.3,22.6v4.3c0,0.2-0.1,0.4-0.2,0.5c-0.1,0.1-0.3,0.2-0.5,0.2h-15.8c-0.2,0-0.4-0.1-0.6-0.2
			c-0.1-0.1-0.2-0.3-0.2-0.5V5.2c0-0.2,0.1-0.4,0.2-0.5c0.1-0.1,0.3-0.2,0.6-0.2h4.7c0.2,0,0.4,0.1,0.5,0.2s0.2,0.3,0.2,0.5v15.8
			c0,0.2,0.1,0.4,0.2,0.5c0.1,0.1,0.3,0.2,0.6,0.2h9.5c0.2,0,0.4,0.1,0.5,0.2C225.3,22.2,225.3,22.4,225.3,22.6L225.3,22.6z"/>
		<path class="st0" d="M244.1,27.6h-4.8c-0.2,0-0.4-0.1-0.5-0.2c-0.1-0.1-0.2-0.3-0.2-0.5V5.3c0-0.2,0.1-0.4,0.2-0.5
			c0.1-0.1,0.3-0.2,0.5-0.2h4.8c0.2,0,0.4,0.1,0.5,0.2c0.2,0.1,0.2,0.3,0.2,0.5v21.6c0,0.2-0.1,0.4-0.2,0.5
			C244.5,27.6,244.3,27.6,244.1,27.6z"/>
		<path class="st0" d="M258.8,21.4h-2.8c-0.2,0-0.4,0.1-0.5,0.2c-0.1,0.1-0.2,0.3-0.2,0.5v4.7c0,0.2-0.1,0.4-0.2,0.5
			c-0.1,0.1-0.3,0.2-0.5,0.2h-4.8c-0.2,0-0.4-0.1-0.5-0.2c-0.1-0.1-0.2-0.3-0.2-0.5V5.2c0-0.2,0.1-0.4,0.2-0.5s0.3-0.2,0.5-0.2h9.7
			c1.2,0,2.3,0.2,3.3,0.7c1,0.4,1.9,1.1,2.7,1.8c0.8,0.8,1.4,1.7,1.8,2.7s0.7,2.1,0.7,3.3s-0.2,2.3-0.6,3.3c-0.4,1-1,1.9-1.7,2.7
			s-1.7,1.3-2.9,1.8C261.7,21.2,260.4,21.4,258.8,21.4L258.8,21.4z M259.1,10.3h-3c-0.2,0-0.4,0.1-0.5,0.2c-0.1,0.1-0.2,0.3-0.2,0.5
			v3.7c0,0.2,0.1,0.4,0.2,0.5c0.1,0.1,0.3,0.2,0.5,0.2h3.4c0.8,0,1.4-0.3,1.8-0.8c0.4-0.5,0.6-1.1,0.6-1.7c0-0.3-0.1-0.7-0.2-1
			c-0.1-0.3-0.3-0.6-0.5-0.9c-0.2-0.2-0.5-0.5-0.9-0.6C259.9,10.4,259.5,10.3,259.1,10.3L259.1,10.3z"/>
		<path class="st0" d="M291.2,5.2v21.6c0,0.2-0.1,0.4-0.2,0.5c-0.1,0.1-0.3,0.2-0.5,0.2h-4.7c-0.2,0-0.4-0.1-0.6-0.2
			c-0.1-0.1-0.2-0.3-0.2-0.5v-6.8c0-0.2-0.1-0.4-0.2-0.5c-0.1-0.1-0.3-0.2-0.5-0.2h-6.5c-0.2,0-0.4,0.1-0.5,0.2
			c-0.1,0.1-0.2,0.3-0.2,0.5v6.8c0,0.2-0.1,0.4-0.2,0.5c-0.1,0.1-0.3,0.2-0.5,0.2h-4.7c-0.2,0-0.4-0.1-0.6-0.2
			c-0.1-0.1-0.2-0.3-0.2-0.5V5.2c0-0.2,0.1-0.4,0.2-0.5s0.3-0.2,0.6-0.2h4.7c0.2,0,0.4,0.1,0.5,0.2s0.2,0.3,0.2,0.5v7.5
			c0,0.2,0.1,0.4,0.2,0.5c0.1,0.1,0.3,0.2,0.5,0.2h6.5c0.2,0,0.4-0.1,0.5-0.2c0.1-0.1,0.2-0.3,0.2-0.5V5.2c0-0.2,0.1-0.4,0.2-0.5
			c0.1-0.1,0.3-0.2,0.6-0.2h4.7c0.2,0,0.4,0.1,0.5,0.2C291.1,4.8,291.2,5,291.2,5.2z"/>
		<path class="st0" d="M294.8,16.1c0-1.6,0.3-3.2,0.9-4.7s1.5-2.7,2.6-3.8c1.1-1.1,2.3-1.9,3.8-2.6s3-0.9,4.7-0.9
			c1.7,0,3.2,0.3,4.7,0.9s2.7,1.5,3.8,2.6s1.9,2.4,2.6,3.8s0.9,3,0.9,4.7s-0.3,3.2-0.9,4.7c-0.6,1.5-1.5,2.7-2.6,3.8
			s-2.4,1.9-3.8,2.6c-1.5,0.6-3,0.9-4.7,0.9c-1.6,0-3.2-0.3-4.7-0.9c-1.5-0.6-2.7-1.5-3.8-2.6c-1.1-1.1-1.9-2.4-2.6-3.8
			S294.8,17.7,294.8,16.1z M301.1,16.1c0,0.8,0.1,1.6,0.4,2.3c0.3,0.7,0.7,1.4,1.2,1.9s1.1,1,1.8,1.3c0.7,0.3,1.4,0.5,2.2,0.5
			c0.8,0,1.5-0.2,2.2-0.5c0.7-0.3,1.3-0.8,1.8-1.3c0.5-0.5,0.9-1.2,1.2-1.9c0.3-0.7,0.4-1.5,0.4-2.3c0-0.8-0.1-1.5-0.4-2.3
			c-0.3-0.7-0.7-1.4-1.2-1.9c-0.5-0.5-1.1-1-1.8-1.3c-0.7-0.3-1.4-0.5-2.2-0.5c-0.8,0-1.5,0.2-2.2,0.5c-0.7,0.3-1.3,0.8-1.8,1.3
			c-0.5,0.5-0.9,1.2-1.2,1.9C301.2,14.5,301.1,15.3,301.1,16.1z"/>
		<path class="st0" d="M343.8,5.2v21.6c0,0.2-0.1,0.4-0.2,0.5c-0.1,0.1-0.3,0.2-0.5,0.2h-4.7c-0.2,0-0.4-0.1-0.7-0.2
			c-0.2-0.1-0.4-0.3-0.5-0.4l-8.2-11.6c-0.1-0.2-0.3-0.2-0.4-0.2c-0.1,0-0.2,0.2-0.2,0.4v11.3c0,0.2-0.1,0.4-0.2,0.5
			c-0.1,0.1-0.3,0.2-0.5,0.2h-4.7c-0.2,0-0.4-0.1-0.5-0.2c-0.1-0.1-0.2-0.3-0.2-0.5V5.2c0-0.2,0.1-0.4,0.2-0.5
			c0.1-0.1,0.3-0.2,0.5-0.2h4.7c0.2,0,0.4,0.1,0.7,0.2c0.2,0.1,0.4,0.3,0.5,0.4l8.2,11.6c0.1,0.2,0.3,0.2,0.4,0.2
			c0.1,0,0.2-0.1,0.2-0.4V5.2c0-0.2,0.1-0.4,0.2-0.5c0.1-0.1,0.3-0.2,0.5-0.2h4.7c0.2,0,0.4,0.1,0.5,0.2
			C343.7,4.8,343.8,5,343.8,5.2L343.8,5.2z"/>
		<path class="st0" d="M354.8,11.1v1.3c0,0.2,0.1,0.4,0.2,0.5c0.1,0.1,0.3,0.2,0.5,0.2h8.6c0.2,0,0.4,0.1,0.5,0.2
			c0.1,0.1,0.2,0.3,0.2,0.5v4.4c0,0.2-0.1,0.4-0.2,0.5s-0.3,0.2-0.5,0.2h-8.6c-0.2,0-0.4,0.1-0.5,0.2c-0.1,0.1-0.2,0.3-0.2,0.5V21
			c0,0.2,0.1,0.4,0.2,0.5c0.1,0.1,0.3,0.2,0.5,0.2h9.8c0.2,0,0.4,0.1,0.5,0.2c0.1,0.1,0.2,0.3,0.2,0.5v4.4c0,0.2-0.1,0.4-0.2,0.5
			c-0.1,0.1-0.3,0.2-0.5,0.2h-16.1c-0.2,0-0.4-0.1-0.5-0.2c-0.1-0.1-0.2-0.3-0.2-0.5V5.2c0-0.2,0.1-0.4,0.2-0.5
			c0.1-0.1,0.3-0.2,0.5-0.2h16.1c0.2,0,0.4,0.1,0.5,0.2s0.2,0.3,0.2,0.5v4.3c0,0.2-0.1,0.4-0.2,0.5c-0.1,0.1-0.3,0.2-0.5,0.2h-9.8
			c-0.2,0-0.4,0.1-0.5,0.2C354.9,10.7,354.8,10.8,354.8,11.1z"/>
		<path class="st0" d="M383.6,19.7c1.1,0.7,2.3,1.3,3.4,1.7c1.1,0.4,2.2,0.6,3.1,0.6s1.6-0.1,2.1-0.4c0.5-0.3,0.7-0.7,0.7-1.2
			c0-0.3-0.1-0.5-0.3-0.6c-0.2-0.2-0.5-0.3-0.8-0.4c-0.4-0.1-0.8-0.2-1.2-0.3c-0.5-0.1-0.9-0.1-1.4-0.3c-0.5-0.1-1-0.2-1.6-0.3
			c-0.6-0.1-1.3-0.3-1.9-0.5c-0.6-0.2-1.3-0.5-1.9-0.8c-0.6-0.3-1.2-0.8-1.7-1.3c-0.5-0.5-0.9-1.2-1.2-1.9c-0.3-0.7-0.5-1.6-0.5-2.6
			c0-1.5,0.3-2.7,0.9-3.6c0.6-0.9,1.3-1.7,2.2-2.3c0.9-0.6,1.8-0.9,2.9-1.2c1.1-0.2,2.1-0.3,3.1-0.3c1.8,0,3.4,0.3,4.8,0.8
			s2.7,1.3,4,2.3c0.2,0.1,0.3,0.3,0.3,0.5c0,0.2,0,0.4-0.2,0.6l-2.5,3.5c-0.1,0.2-0.3,0.3-0.5,0.3c-0.2,0-0.4,0-0.6-0.1
			c-1.1-0.7-2.1-1.2-3-1.4c-0.9-0.3-1.8-0.4-2.6-0.4c-0.2,0-0.5,0-0.8,0c-0.3,0-0.6,0.1-0.9,0.1c-0.3,0.1-0.5,0.2-0.7,0.4
			c-0.2,0.2-0.3,0.4-0.3,0.7s0.2,0.6,0.7,0.8c0.4,0.2,0.9,0.4,1.5,0.6c0.6,0.2,1.1,0.3,1.6,0.4c0.5,0.1,0.9,0.2,1,0.2
			c0.8,0.1,1.6,0.4,2.5,0.6c0.9,0.3,1.8,0.7,2.5,1.3c0.8,0.6,1.5,1.3,2,2.2c0.5,0.9,0.8,2,0.8,3.4c0,1.3-0.2,2.4-0.7,3.3
			c-0.4,0.9-1.1,1.7-1.9,2.3c-0.8,0.6-1.7,1-2.8,1.3c-1.1,0.3-2.3,0.4-3.7,0.4c-1.1,0-2.1-0.1-3.1-0.3s-1.8-0.4-2.7-0.7
			c-0.8-0.3-1.6-0.7-2.3-1.1c-0.7-0.4-1.4-0.9-1.9-1.4c-0.2-0.1-0.3-0.3-0.3-0.5c0-0.2,0-0.4,0.2-0.6l2.4-3.5
			c0.1-0.2,0.3-0.3,0.5-0.3C383.2,19.6,383.4,19.6,383.6,19.7L383.6,19.7z"/>
		<path class="st0" d="M417,10.3h-4.4c-0.2,0-0.4,0.1-0.5,0.2c-0.1,0.1-0.2,0.3-0.2,0.5v15.8c0,0.2-0.1,0.4-0.2,0.5
			c-0.1,0.1-0.3,0.2-0.6,0.2h-4.7c-0.2,0-0.4-0.1-0.5-0.2c-0.1-0.1-0.2-0.3-0.2-0.5V11.1c0-0.2-0.1-0.4-0.2-0.5
			c-0.1-0.1-0.3-0.2-0.6-0.2h-4.5c-0.2,0-0.4-0.1-0.5-0.2c-0.1-0.1-0.2-0.3-0.2-0.5V5.2c0-0.2,0.1-0.4,0.2-0.5s0.3-0.2,0.5-0.2H417
			c0.2,0,0.4,0.1,0.6,0.2s0.2,0.3,0.2,0.5v4.3c0,0.2-0.1,0.4-0.2,0.5C417.4,10.2,417.2,10.3,417,10.3L417,10.3z"/>
		<path class="st0" d="M424.6,5.2c0.1-0.2,0.2-0.4,0.4-0.5c0.2-0.1,0.4-0.2,0.6-0.2h4.4c0.2,0,0.4,0.1,0.6,0.2
			c0.2,0.1,0.3,0.3,0.4,0.5l9.2,21.5c0.1,0.2,0.1,0.4-0.1,0.6c-0.1,0.2-0.3,0.3-0.7,0.3h-5.4c-0.2,0-0.4-0.1-0.6-0.2
			c-0.2-0.1-0.4-0.3-0.5-0.5l-0.9-1.9c-0.1-0.2-0.3-0.4-0.5-0.5c-0.2-0.1-0.4-0.2-0.6-0.2h-6.7c-0.2,0-0.4,0.1-0.6,0.2
			c-0.2,0.1-0.3,0.3-0.4,0.5l-0.9,1.9c-0.1,0.2-0.2,0.4-0.4,0.5c-0.2,0.1-0.4,0.2-0.6,0.2H416c-0.1,0-0.2,0-0.3-0.1
			c-0.1,0-0.2-0.1-0.3-0.2c-0.1-0.1-0.1-0.2-0.1-0.3c0-0.1,0-0.3,0.1-0.4L424.6,5.2L424.6,5.2z M426.4,19h2.8c0.2,0,0.4-0.1,0.5-0.2
			s0.1-0.3,0-0.5c-0.2-0.5-0.5-1.1-0.8-1.9c-0.3-0.7-0.6-1.4-0.8-2c-0.1-0.2-0.2-0.3-0.3-0.3s-0.2,0.1-0.3,0.3l-1.6,3.8
			c-0.1,0.2-0.1,0.4,0,0.5C426,18.9,426.2,19,426.4,19L426.4,19z"/>
		<path class="st0" d="M455.3,10.3h-4.4c-0.2,0-0.4,0.1-0.5,0.2c-0.1,0.1-0.2,0.3-0.2,0.5v15.8c0,0.2-0.1,0.4-0.2,0.5
			c-0.1,0.1-0.3,0.2-0.6,0.2h-4.7c-0.2,0-0.4-0.1-0.5-0.2c-0.1-0.1-0.2-0.3-0.2-0.5V11.1c0-0.2-0.1-0.4-0.2-0.5
			c-0.1-0.1-0.3-0.2-0.6-0.2h-4.5c-0.2,0-0.4-0.1-0.5-0.2c-0.1-0.1-0.2-0.3-0.2-0.5V5.2c0-0.2,0.1-0.4,0.2-0.5
			c0.1-0.1,0.3-0.2,0.5-0.2h16.7c0.2,0,0.4,0.1,0.6,0.2s0.2,0.3,0.2,0.5v4.3c0,0.2-0.1,0.4-0.2,0.5
			C455.8,10.2,455.6,10.3,455.3,10.3L455.3,10.3z"/>
		<path class="st0" d="M464.3,27.6h-4.8c-0.2,0-0.4-0.1-0.5-0.2c-0.1-0.1-0.2-0.3-0.2-0.5V5.3c0-0.2,0.1-0.4,0.2-0.5
			c0.1-0.1,0.3-0.2,0.5-0.2h4.8c0.2,0,0.4,0.1,0.5,0.2s0.2,0.3,0.2,0.5v21.6c0,0.2-0.1,0.4-0.2,0.5
			C464.7,27.6,464.5,27.6,464.3,27.6z"/>
		<path class="st0" d="M471.9,19.7c1.1,0.7,2.3,1.3,3.4,1.7c1.1,0.4,2.2,0.6,3.1,0.6s1.6-0.1,2.1-0.4c0.5-0.3,0.7-0.7,0.7-1.2
			c0-0.3-0.1-0.5-0.3-0.6c-0.2-0.2-0.5-0.3-0.8-0.4c-0.4-0.1-0.8-0.2-1.2-0.3c-0.5-0.1-0.9-0.1-1.4-0.3c-0.5-0.1-1-0.2-1.6-0.3
			c-0.6-0.1-1.3-0.3-1.9-0.5c-0.6-0.2-1.3-0.5-1.9-0.8c-0.6-0.3-1.2-0.8-1.7-1.3c-0.5-0.5-0.9-1.2-1.2-1.9c-0.3-0.7-0.5-1.6-0.5-2.6
			c0-1.5,0.3-2.7,0.9-3.6c0.6-0.9,1.3-1.7,2.2-2.3c0.9-0.6,1.8-0.9,2.9-1.2c1.1-0.2,2.1-0.3,3.1-0.3c1.8,0,3.4,0.3,4.8,0.8
			c1.4,0.5,2.7,1.3,4,2.3c0.2,0.1,0.3,0.3,0.3,0.5s0,0.4-0.2,0.6l-2.5,3.5c-0.1,0.2-0.3,0.3-0.5,0.3c-0.2,0-0.4,0-0.6-0.1
			c-1.1-0.7-2.1-1.2-3-1.4c-0.9-0.3-1.8-0.4-2.6-0.4c-0.2,0-0.5,0-0.8,0c-0.3,0-0.6,0.1-0.9,0.1c-0.3,0.1-0.5,0.2-0.7,0.4
			c-0.2,0.2-0.3,0.4-0.3,0.7s0.2,0.6,0.7,0.8c0.4,0.2,0.9,0.4,1.5,0.6c0.6,0.2,1.1,0.3,1.6,0.4c0.5,0.1,0.9,0.2,1,0.2
			c0.8,0.1,1.6,0.4,2.5,0.6c0.9,0.3,1.8,0.7,2.5,1.3c0.8,0.6,1.5,1.3,2,2.2c0.5,0.9,0.8,2,0.8,3.4c0,1.3-0.2,2.4-0.7,3.3
			c-0.4,0.9-1.1,1.7-1.9,2.3c-0.8,0.6-1.7,1-2.8,1.3c-1.1,0.3-2.3,0.4-3.7,0.4c-1.1,0-2.1-0.1-3.1-0.3s-1.8-0.4-2.7-0.7
			c-0.8-0.3-1.6-0.7-2.3-1.1c-0.7-0.4-1.4-0.9-1.9-1.4c-0.2-0.1-0.3-0.3-0.3-0.5c0-0.2,0-0.4,0.2-0.6l2.4-3.5
			c0.1-0.2,0.3-0.3,0.5-0.3C471.5,19.6,471.7,19.6,471.9,19.7L471.9,19.7z"/>
		<path class="st0" d="M505.3,10.3h-4.4c-0.2,0-0.4,0.1-0.5,0.2c-0.1,0.1-0.2,0.3-0.2,0.5v15.8c0,0.2-0.1,0.4-0.2,0.5
			c-0.1,0.1-0.3,0.2-0.6,0.2h-4.7c-0.2,0-0.4-0.1-0.5-0.2c-0.1-0.1-0.2-0.3-0.2-0.5V11.1c0-0.2-0.1-0.4-0.2-0.5
			c-0.1-0.1-0.3-0.2-0.6-0.2h-4.5c-0.2,0-0.4-0.1-0.5-0.2c-0.1-0.1-0.2-0.3-0.2-0.5V5.2c0-0.2,0.1-0.4,0.2-0.5
			c0.1-0.1,0.3-0.2,0.5-0.2h16.7c0.2,0,0.4,0.1,0.6,0.2c0.1,0.1,0.2,0.3,0.2,0.5v4.3c0,0.2-0.1,0.4-0.2,0.5
			C505.8,10.2,505.6,10.3,505.3,10.3L505.3,10.3z"/>
		<path class="st0" d="M514.3,27.6h-4.8c-0.2,0-0.4-0.1-0.5-0.2c-0.1-0.1-0.2-0.3-0.2-0.5V5.3c0-0.2,0.1-0.4,0.2-0.5
			s0.3-0.2,0.5-0.2h4.8c0.2,0,0.4,0.1,0.5,0.2c0.2,0.1,0.2,0.3,0.2,0.5v21.6c0,0.2-0.1,0.4-0.2,0.5
			C514.7,27.6,514.5,27.6,514.3,27.6z"/>
		<path class="st0" d="M541.6,21.5c-0.6,1-1.3,1.9-2,2.7c-0.7,0.8-1.6,1.5-2.5,2.1c-0.9,0.6-1.9,1-3.1,1.3c-1.1,0.3-2.4,0.5-3.7,0.5
			c-1.7,0-3.3-0.3-4.7-0.9s-2.8-1.5-3.9-2.6c-1.1-1.1-2-2.3-2.6-3.8c-0.6-1.5-0.9-3-0.9-4.7s0.3-3.2,0.9-4.7s1.5-2.7,2.6-3.8
			c1.1-1.1,2.4-1.9,3.9-2.6c1.5-0.6,3.1-0.9,4.7-0.9c1.4,0,2.6,0.2,3.8,0.5s2.1,0.8,3,1.3c0.9,0.6,1.7,1.3,2.5,2.1
			c0.7,0.8,1.4,1.7,2,2.7c0.1,0.2,0.1,0.4,0.1,0.5c-0.1,0.2-0.2,0.3-0.4,0.4l-4.5,1.8c-0.2,0.1-0.4,0.1-0.6,0
			c-0.2-0.1-0.4-0.2-0.5-0.4c-0.6-1-1.4-1.7-2.2-2.2c-0.9-0.5-1.9-0.8-3.1-0.8c-0.8,0-1.6,0.2-2.3,0.5c-0.7,0.3-1.3,0.8-1.9,1.4
			c-0.5,0.6-0.9,1.2-1.2,1.9c-0.3,0.7-0.4,1.5-0.4,2.3c0,0.8,0.1,1.6,0.4,2.3c0.3,0.7,0.7,1.4,1.2,1.9c0.5,0.5,1.1,1,1.9,1.3
			c0.7,0.3,1.5,0.5,2.3,0.5c1.2,0,2.2-0.3,3.1-0.8c0.9-0.6,1.7-1.3,2.2-2.2c0.1-0.2,0.3-0.3,0.5-0.4c0.2-0.1,0.4-0.1,0.6,0l4.5,1.8
			c0.2,0.1,0.3,0.2,0.4,0.4S541.8,21.3,541.6,21.5L541.6,21.5z"/>
		<path class="st0" d="M545.9,19.7c1.1,0.7,2.3,1.3,3.4,1.7c1.1,0.4,2.2,0.6,3.1,0.6s1.6-0.1,2.1-0.4c0.5-0.3,0.7-0.7,0.7-1.2
			c0-0.3-0.1-0.5-0.3-0.6c-0.2-0.2-0.5-0.3-0.8-0.4c-0.4-0.1-0.8-0.2-1.2-0.3c-0.5-0.1-0.9-0.1-1.4-0.3c-0.5-0.1-1-0.2-1.6-0.3
			c-0.6-0.1-1.3-0.3-1.9-0.5c-0.6-0.2-1.3-0.5-1.9-0.8c-0.6-0.3-1.2-0.8-1.7-1.3c-0.5-0.5-0.9-1.2-1.2-1.9c-0.3-0.7-0.5-1.6-0.5-2.6
			c0-1.5,0.3-2.7,0.9-3.6s1.3-1.7,2.2-2.3c0.9-0.6,1.8-0.9,2.9-1.2c1.1-0.2,2.1-0.3,3.1-0.3c1.8,0,3.4,0.3,4.8,0.8s2.7,1.3,4,2.3
			c0.2,0.1,0.3,0.3,0.3,0.5c0,0.2,0,0.4-0.2,0.6l-2.5,3.5c-0.1,0.2-0.3,0.3-0.5,0.3c-0.2,0-0.4,0-0.6-0.1c-1.1-0.7-2.1-1.2-3-1.4
			c-0.9-0.3-1.8-0.4-2.6-0.4c-0.2,0-0.5,0-0.8,0c-0.3,0-0.6,0.1-0.9,0.1c-0.3,0.1-0.5,0.2-0.7,0.4c-0.2,0.2-0.3,0.4-0.3,0.7
			s0.2,0.6,0.7,0.8c0.4,0.2,0.9,0.4,1.5,0.6c0.6,0.2,1.1,0.3,1.6,0.4c0.5,0.1,0.9,0.2,1,0.2c0.8,0.1,1.6,0.4,2.5,0.6
			c0.9,0.3,1.8,0.7,2.5,1.3s1.5,1.3,2,2.2c0.5,0.9,0.8,2,0.8,3.4c0,1.3-0.2,2.4-0.7,3.3c-0.4,0.9-1.1,1.7-1.9,2.3
			c-0.8,0.6-1.7,1-2.8,1.3c-1.1,0.3-2.3,0.4-3.7,0.4c-1.1,0-2.1-0.1-3.1-0.3c-0.9-0.2-1.8-0.4-2.7-0.7c-0.8-0.3-1.6-0.7-2.3-1.1
			c-0.7-0.4-1.4-0.9-1.9-1.4c-0.2-0.1-0.3-0.3-0.3-0.5c0-0.2,0-0.4,0.2-0.6l2.4-3.5c0.1-0.2,0.3-0.3,0.5-0.3
			C545.5,19.6,545.7,19.6,545.9,19.7L545.9,19.7z"/>
	</g>
</g>
</svg>
