<?xml version="1.0" encoding="utf-8"?>
<!-- Generator: Adobe Illustrator 26.3.1, SVG Export Plug-In . SVG Version: 6.00 Build 0)  -->
<svg version="1.1" id="Layer_2_00000152968998008512870520000006391051113103261100_"
	 xmlns="http://www.w3.org/2000/svg" xmlns:xlink="http://www.w3.org/1999/xlink" x="0px" y="0px" viewBox="0 0 610 28"
	 style="enable-background:new 0 0 610 28;" xml:space="preserve">
<style type="text/css">
	.st0{enable-background:new    ;}
	.st1{fill:#A65D42;}
</style>
<g id="Layer_1-2">
	<g class="st0">
		<path class="st1" d="M53.1,21.3h-2.8c-0.2,0-0.4,0.1-0.5,0.2c-0.1,0.1-0.2,0.3-0.2,0.5v4.8c0,0.2-0.1,0.4-0.2,0.5
			s-0.3,0.2-0.5,0.2H44c-0.2,0-0.4-0.1-0.5-0.2s-0.2-0.3-0.2-0.5V4.9c0-0.2,0.1-0.4,0.2-0.5c0.1-0.1,0.3-0.2,0.5-0.2h9.8
			c1.2,0,2.3,0.2,3.4,0.7c1.1,0.4,2,1.1,2.8,1.9c0.8,0.8,1.4,1.7,1.9,2.8c0.5,1,0.7,2.2,0.7,3.4c0,1.2-0.2,2.3-0.6,3.3
			c-0.4,1-1,1.9-1.7,2.7c-0.8,0.8-1.8,1.4-2.9,1.8C56.1,21.1,54.7,21.3,53.1,21.3z M53.4,10h-3c-0.2,0-0.4,0.1-0.5,0.2
			c-0.1,0.1-0.2,0.3-0.2,0.5v3.8c0,0.2,0.1,0.4,0.2,0.5c0.2,0.1,0.3,0.2,0.5,0.2h3.4c0.8,0,1.4-0.3,1.8-0.8s0.6-1.1,0.6-1.8
			c0-0.3-0.1-0.7-0.2-1c-0.1-0.3-0.3-0.6-0.5-0.9c-0.2-0.3-0.5-0.5-0.9-0.6C54.2,10.1,53.8,10,53.4,10z"/>
		<path class="st1" d="M71.3,10.8v1.3c0,0.2,0.1,0.4,0.2,0.5c0.1,0.1,0.3,0.2,0.5,0.2h8.7c0.2,0,0.4,0.1,0.5,0.2
			c0.1,0.1,0.2,0.3,0.2,0.5v4.4c0,0.2-0.1,0.4-0.2,0.5c-0.1,0.1-0.3,0.2-0.5,0.2H72c-0.2,0-0.4,0.1-0.5,0.2
			c-0.1,0.2-0.2,0.3-0.2,0.5v1.2c0,0.2,0.1,0.4,0.2,0.5c0.1,0.1,0.3,0.2,0.5,0.2h10c0.2,0,0.4,0.1,0.5,0.2c0.1,0.1,0.2,0.3,0.2,0.5
			v4.4c0,0.2-0.1,0.4-0.2,0.5c-0.1,0.1-0.3,0.2-0.5,0.2H65.7c-0.2,0-0.4-0.1-0.5-0.2c-0.1-0.1-0.2-0.3-0.2-0.5V4.9
			c0-0.2,0.1-0.4,0.2-0.5c0.1-0.1,0.3-0.2,0.5-0.2H82c0.2,0,0.4,0.1,0.5,0.2c0.1,0.1,0.2,0.3,0.2,0.5v4.4c0,0.2-0.1,0.4-0.2,0.5
			C82.4,10,82.2,10,82,10H72c-0.2,0-0.4,0.1-0.5,0.2C71.3,10.4,71.3,10.6,71.3,10.8z"/>
		<path class="st1" d="M92.4,27.6h-4.8c-0.2,0-0.4-0.1-0.5-0.2s-0.2-0.3-0.2-0.5V4.9c0-0.2,0.1-0.4,0.2-0.5c0.1-0.1,0.3-0.2,0.5-0.2
			h10c1.2,0,2.4,0.2,3.4,0.6s1.9,1,2.7,1.7c0.7,0.7,1.3,1.6,1.7,2.7c0.4,1,0.6,2.2,0.6,3.4c0,0.7-0.1,1.4-0.2,2
			c-0.2,0.7-0.4,1.3-0.7,1.9c-0.3,0.6-0.7,1.1-1.1,1.6c-0.4,0.5-0.9,0.9-1.4,1.2c-0.2,0.1-0.3,0.3-0.3,0.5c-0.1,0.2,0,0.4,0.1,0.5
			c0.8,1.1,1.7,2.2,2.6,3.3s1.7,2.2,2.4,3.1c0.1,0.2,0.2,0.4,0.1,0.6s-0.2,0.3-0.4,0.3h-6c-0.2,0-0.4-0.1-0.7-0.2
			c-0.2-0.1-0.4-0.3-0.6-0.4c-0.7-0.9-1.4-1.8-2-2.7c-0.7-0.9-1.3-1.8-2-2.8c-0.1-0.2-0.3-0.3-0.5-0.4s-0.5-0.2-0.7-0.2H94
			c-0.2,0-0.4,0.1-0.5,0.2c-0.1,0.1-0.2,0.3-0.2,0.5v5.2c0,0.2-0.1,0.4-0.2,0.5S92.6,27.6,92.4,27.6z M94,15h3.4
			c0.3,0,0.5,0,0.8-0.1c0.3-0.1,0.5-0.2,0.8-0.4c0.2-0.2,0.4-0.5,0.6-0.8c0.1-0.3,0.2-0.7,0.2-1.1c0-0.2,0-0.5-0.1-0.8
			c-0.1-0.3-0.2-0.6-0.4-0.8c-0.2-0.3-0.4-0.5-0.7-0.7c-0.3-0.2-0.7-0.3-1.1-0.3H94c-0.2,0-0.4,0.1-0.5,0.2
			c-0.1,0.1-0.2,0.3-0.2,0.5v3.4c0,0.2,0.1,0.4,0.2,0.5C93.6,14.9,93.7,15,94,15z"/>
		<path class="st1" d="M112.5,19.6c1.2,0.7,2.3,1.3,3.4,1.8c1.1,0.4,2.2,0.6,3.2,0.6c0.9,0,1.7-0.1,2.1-0.4c0.5-0.3,0.7-0.7,0.7-1.2
			c0-0.3-0.1-0.5-0.3-0.7c-0.2-0.2-0.5-0.3-0.8-0.4c-0.4-0.1-0.8-0.2-1.2-0.3c-0.5-0.1-0.9-0.1-1.4-0.3c-0.5-0.1-1-0.2-1.6-0.3
			c-0.6-0.1-1.3-0.3-1.9-0.5c-0.7-0.2-1.3-0.5-2-0.8c-0.7-0.3-1.2-0.8-1.7-1.3c-0.5-0.5-0.9-1.2-1.2-1.9c-0.3-0.7-0.5-1.6-0.5-2.6
			c0-1.5,0.3-2.7,0.9-3.6c0.6-1,1.3-1.7,2.2-2.3c0.9-0.6,1.9-1,3-1.2c1.1-0.2,2.1-0.3,3.2-0.3c1.8,0,3.4,0.3,4.8,0.8
			c1.4,0.5,2.8,1.3,4.1,2.3c0.2,0.1,0.3,0.3,0.3,0.5c0,0.2,0,0.4-0.2,0.6l-2.5,3.6c-0.1,0.2-0.3,0.3-0.5,0.3c-0.2,0-0.4,0-0.6-0.1
			c-1.1-0.7-2.1-1.2-3-1.5c-0.9-0.3-1.8-0.4-2.6-0.4c-0.2,0-0.5,0-0.8,0c-0.3,0-0.6,0.1-0.9,0.1s-0.5,0.2-0.7,0.4s-0.3,0.4-0.3,0.7
			c0,0.3,0.2,0.6,0.7,0.8c0.4,0.2,1,0.4,1.5,0.6c0.6,0.2,1.1,0.3,1.7,0.4s0.9,0.2,1,0.2c0.8,0.1,1.6,0.4,2.5,0.7
			c0.9,0.3,1.8,0.7,2.6,1.3c0.8,0.6,1.5,1.3,2,2.2c0.5,0.9,0.8,2,0.8,3.4c0,1.3-0.2,2.4-0.7,3.3c-0.4,0.9-1.1,1.7-1.9,2.3
			c-0.8,0.6-1.8,1-2.9,1.3s-2.4,0.4-3.7,0.4c-1.1,0-2.1-0.1-3.1-0.3c-1-0.2-1.9-0.4-2.7-0.8c-0.8-0.3-1.6-0.7-2.3-1.1
			c-0.7-0.4-1.4-0.9-2-1.4c-0.2-0.1-0.3-0.3-0.3-0.5c0-0.2,0-0.4,0.2-0.6l2.5-3.6c0.1-0.2,0.3-0.3,0.5-0.3
			C112.2,19.4,112.3,19.4,112.5,19.6z"/>
		<path class="st1" d="M130.6,15.9c0-1.7,0.3-3.2,1-4.7s1.5-2.8,2.6-3.9c1.1-1.1,2.4-2,3.8-2.6c1.5-0.6,3-1,4.7-1
			c1.7,0,3.2,0.3,4.7,1c1.5,0.6,2.8,1.5,3.9,2.6c1.1,1.1,2,2.4,2.6,3.9c0.6,1.5,1,3,1,4.7c0,1.7-0.3,3.2-1,4.7
			c-0.6,1.5-1.5,2.8-2.6,3.9c-1.1,1.1-2.4,2-3.9,2.6c-1.5,0.6-3,1-4.7,1c-1.7,0-3.2-0.3-4.7-1c-1.5-0.6-2.8-1.5-3.8-2.6
			c-1.1-1.1-2-2.4-2.6-3.9C130.9,19.1,130.6,17.5,130.6,15.9z M136.9,15.9c0,0.8,0.1,1.6,0.4,2.3c0.3,0.7,0.7,1.4,1.2,1.9
			c0.5,0.6,1.1,1,1.8,1.3c0.7,0.3,1.5,0.5,2.2,0.5s1.5-0.2,2.2-0.5c0.7-0.3,1.3-0.8,1.9-1.3c0.5-0.6,0.9-1.2,1.2-1.9
			c0.3-0.7,0.4-1.5,0.4-2.3c0-0.8-0.1-1.6-0.4-2.3c-0.3-0.7-0.7-1.4-1.2-1.9c-0.5-0.5-1.2-1-1.9-1.3c-0.7-0.3-1.5-0.5-2.2-0.5
			s-1.5,0.2-2.2,0.5c-0.7,0.3-1.3,0.8-1.8,1.3c-0.5,0.5-0.9,1.2-1.2,1.9S136.9,15.1,136.9,15.9z"/>
		<path class="st1" d="M180.1,4.9v21.9c0,0.2-0.1,0.4-0.2,0.5s-0.3,0.2-0.5,0.2h-4.7c-0.2,0-0.4-0.1-0.7-0.2s-0.4-0.3-0.5-0.4
			l-8.3-11.7c-0.1-0.2-0.3-0.2-0.4-0.2c-0.1,0-0.2,0.2-0.2,0.4v11.5c0,0.2-0.1,0.4-0.2,0.5s-0.3,0.2-0.5,0.2h-4.8
			c-0.2,0-0.4-0.1-0.5-0.2s-0.2-0.3-0.2-0.5V4.9c0-0.2,0.1-0.4,0.2-0.5c0.1-0.1,0.3-0.2,0.5-0.2h4.8c0.2,0,0.4,0.1,0.7,0.2
			c0.2,0.1,0.4,0.3,0.5,0.4l8.3,11.7c0.1,0.2,0.3,0.2,0.4,0.2c0.1,0,0.2-0.1,0.2-0.4V4.9c0-0.2,0.1-0.4,0.2-0.5
			c0.1-0.1,0.3-0.2,0.5-0.2h4.7c0.2,0,0.4,0.1,0.5,0.2C180.1,4.5,180.1,4.7,180.1,4.9z"/>
		<path class="st1" d="M191.8,4.9c0.1-0.2,0.2-0.4,0.4-0.5s0.4-0.2,0.7-0.2h4.5c0.2,0,0.4,0.1,0.6,0.2c0.2,0.1,0.3,0.3,0.4,0.5
			l9.3,21.8c0.1,0.2,0.1,0.4,0,0.6c-0.1,0.2-0.3,0.3-0.7,0.3h-5.5c-0.2,0-0.5-0.1-0.7-0.2c-0.2-0.1-0.4-0.3-0.5-0.5l-0.9-1.9
			c-0.1-0.2-0.3-0.4-0.5-0.5c-0.2-0.1-0.4-0.2-0.6-0.2h-6.8c-0.2,0-0.5,0.1-0.7,0.2c-0.2,0.1-0.3,0.3-0.4,0.5l-0.9,1.9
			c-0.1,0.2-0.2,0.4-0.4,0.5c-0.2,0.1-0.4,0.2-0.6,0.2h-5.5c-0.1,0-0.2,0-0.3-0.1c-0.1,0-0.2-0.1-0.3-0.2s-0.1-0.2-0.1-0.3
			c0-0.1,0-0.3,0.1-0.4L191.8,4.9z M193.7,18.8h2.8c0.2,0,0.4-0.1,0.5-0.2c0.1-0.1,0.1-0.3,0-0.5c-0.2-0.5-0.5-1.2-0.8-1.9
			c-0.3-0.7-0.6-1.4-0.8-2c-0.1-0.2-0.2-0.3-0.3-0.3c-0.1,0-0.2,0.1-0.3,0.3l-1.6,3.9c-0.1,0.2-0.1,0.4,0,0.5
			C193.3,18.7,193.5,18.8,193.7,18.8z"/>
		<path class="st1" d="M226.8,22.5v4.4c0,0.2-0.1,0.4-0.2,0.5c-0.1,0.1-0.3,0.2-0.5,0.2h-16c-0.2,0-0.4-0.1-0.6-0.2
			s-0.2-0.3-0.2-0.5V4.9c0-0.2,0.1-0.4,0.2-0.5c0.1-0.1,0.3-0.2,0.6-0.2h4.8c0.2,0,0.4,0.1,0.5,0.2c0.1,0.1,0.2,0.3,0.2,0.5v16
			c0,0.2,0.1,0.4,0.2,0.5c0.1,0.1,0.3,0.2,0.6,0.2h9.6c0.2,0,0.4,0.1,0.5,0.2C226.7,22.1,226.8,22.3,226.8,22.5z"/>
		<path class="st1" d="M245.7,27.6h-4.8c-0.2,0-0.4-0.1-0.6-0.2c-0.1-0.1-0.2-0.3-0.2-0.5V5c0-0.2,0.1-0.4,0.2-0.5
			c0.1-0.1,0.3-0.2,0.6-0.2h4.8c0.2,0,0.4,0.1,0.5,0.2s0.2,0.3,0.2,0.5v21.9c0,0.2-0.1,0.4-0.2,0.5S245.9,27.6,245.7,27.6z"/>
		<path class="st1" d="M260.6,21.3h-2.8c-0.2,0-0.4,0.1-0.5,0.2c-0.1,0.1-0.2,0.3-0.2,0.5v4.8c0,0.2-0.1,0.4-0.2,0.5
			s-0.3,0.2-0.5,0.2h-4.8c-0.2,0-0.4-0.1-0.5-0.2s-0.2-0.3-0.2-0.5V4.9c0-0.2,0.1-0.4,0.2-0.5c0.1-0.1,0.3-0.2,0.5-0.2h9.8
			c1.2,0,2.3,0.2,3.4,0.7c1.1,0.4,2,1.1,2.8,1.9c0.8,0.8,1.4,1.7,1.9,2.8c0.5,1,0.7,2.2,0.7,3.4c0,1.2-0.2,2.3-0.6,3.3
			c-0.4,1-1,1.9-1.7,2.7c-0.8,0.8-1.8,1.4-2.9,1.8C263.6,21.1,262.2,21.3,260.6,21.3z M260.9,10h-3c-0.2,0-0.4,0.1-0.5,0.2
			c-0.1,0.1-0.2,0.3-0.2,0.5v3.8c0,0.2,0.1,0.4,0.2,0.5c0.2,0.1,0.3,0.2,0.5,0.2h3.4c0.8,0,1.4-0.3,1.8-0.8s0.6-1.1,0.6-1.8
			c0-0.3-0.1-0.7-0.2-1c-0.1-0.3-0.3-0.6-0.5-0.9c-0.2-0.3-0.5-0.5-0.9-0.6C261.7,10.1,261.3,10,260.9,10z"/>
		<path class="st1" d="M293.3,4.9v21.9c0,0.2-0.1,0.4-0.2,0.5c-0.1,0.1-0.3,0.2-0.5,0.2h-4.8c-0.2,0-0.4-0.1-0.6-0.2
			S287,27,287,26.8V20c0-0.2-0.1-0.4-0.2-0.5c-0.1-0.1-0.3-0.2-0.5-0.2h-6.6c-0.2,0-0.4,0.1-0.6,0.2c-0.1,0.1-0.2,0.3-0.2,0.5v6.8
			c0,0.2-0.1,0.4-0.2,0.5s-0.3,0.2-0.5,0.2h-4.8c-0.2,0-0.4-0.1-0.6-0.2c-0.1-0.1-0.2-0.3-0.2-0.5V4.9c0-0.2,0.1-0.4,0.2-0.5
			c0.1-0.1,0.3-0.2,0.6-0.2h4.8c0.2,0,0.4,0.1,0.5,0.2c0.1,0.1,0.2,0.3,0.2,0.5v7.6c0,0.2,0.1,0.4,0.2,0.5c0.1,0.1,0.3,0.2,0.6,0.2
			h6.6c0.2,0,0.4-0.1,0.5-0.2c0.1-0.1,0.2-0.3,0.2-0.5V4.9c0-0.2,0.1-0.4,0.2-0.5c0.1-0.1,0.3-0.2,0.6-0.2h4.8
			c0.2,0,0.4,0.1,0.5,0.2C293.3,4.5,293.3,4.7,293.3,4.9z"/>
		<path class="st1" d="M297.1,15.9c0-1.7,0.3-3.2,1-4.7s1.5-2.8,2.6-3.9c1.1-1.1,2.4-2,3.8-2.6c1.5-0.6,3-1,4.7-1
			c1.7,0,3.2,0.3,4.7,1c1.5,0.6,2.8,1.5,3.9,2.6c1.1,1.1,2,2.4,2.6,3.9c0.6,1.5,1,3,1,4.7c0,1.7-0.3,3.2-1,4.7
			c-0.6,1.5-1.5,2.8-2.6,3.9c-1.1,1.1-2.4,2-3.9,2.6c-1.5,0.6-3,1-4.7,1c-1.7,0-3.2-0.3-4.7-1c-1.5-0.6-2.8-1.5-3.8-2.6
			c-1.1-1.1-2-2.4-2.6-3.9C297.4,19.1,297.1,17.5,297.1,15.9z M303.4,15.9c0,0.8,0.1,1.6,0.4,2.3c0.3,0.7,0.7,1.4,1.2,1.9
			c0.5,0.6,1.1,1,1.8,1.3c0.7,0.3,1.5,0.5,2.2,0.5s1.5-0.2,2.2-0.5c0.7-0.3,1.3-0.8,1.9-1.3c0.5-0.6,0.9-1.2,1.2-1.9
			c0.3-0.7,0.4-1.5,0.4-2.3c0-0.8-0.1-1.6-0.4-2.3c-0.3-0.7-0.7-1.4-1.2-1.9c-0.5-0.5-1.2-1-1.9-1.3c-0.7-0.3-1.5-0.5-2.2-0.5
			s-1.5,0.2-2.2,0.5c-0.7,0.3-1.3,0.8-1.8,1.3c-0.5,0.5-0.9,1.2-1.2,1.9S303.4,15.1,303.4,15.9z"/>
		<path class="st1" d="M346.6,4.9v21.9c0,0.2-0.1,0.4-0.2,0.5s-0.3,0.2-0.5,0.2h-4.7c-0.2,0-0.4-0.1-0.7-0.2s-0.4-0.3-0.5-0.4
			l-8.3-11.7c-0.1-0.2-0.3-0.2-0.4-0.2c-0.1,0-0.2,0.2-0.2,0.4v11.5c0,0.2-0.1,0.4-0.2,0.5s-0.3,0.2-0.5,0.2h-4.8
			c-0.2,0-0.4-0.1-0.5-0.2s-0.2-0.3-0.2-0.5V4.9c0-0.2,0.1-0.4,0.2-0.5c0.1-0.1,0.3-0.2,0.5-0.2h4.8c0.2,0,0.4,0.1,0.7,0.2
			c0.2,0.1,0.4,0.3,0.5,0.4l8.3,11.7c0.1,0.2,0.3,0.2,0.4,0.2c0.1,0,0.2-0.1,0.2-0.4V4.9c0-0.2,0.1-0.4,0.2-0.5
			c0.1-0.1,0.3-0.2,0.5-0.2h4.7c0.2,0,0.4,0.1,0.5,0.2C346.5,4.5,346.6,4.7,346.6,4.9z"/>
		<path class="st1" d="M357.7,10.8v1.3c0,0.2,0.1,0.4,0.2,0.5s0.3,0.2,0.5,0.2h8.7c0.2,0,0.4,0.1,0.5,0.2s0.2,0.3,0.2,0.5v4.4
			c0,0.2-0.1,0.4-0.2,0.5s-0.3,0.2-0.5,0.2h-8.7c-0.2,0-0.4,0.1-0.5,0.2c-0.1,0.2-0.2,0.3-0.2,0.5v1.2c0,0.2,0.1,0.4,0.2,0.5
			s0.3,0.2,0.5,0.2h10c0.2,0,0.4,0.1,0.5,0.2s0.2,0.3,0.2,0.5v4.4c0,0.2-0.1,0.4-0.2,0.5s-0.3,0.2-0.5,0.2h-16.3
			c-0.2,0-0.4-0.1-0.5-0.2s-0.2-0.3-0.2-0.5V4.9c0-0.2,0.1-0.4,0.2-0.5c0.1-0.1,0.3-0.2,0.5-0.2h16.3c0.2,0,0.4,0.1,0.5,0.2
			c0.1,0.1,0.2,0.3,0.2,0.5v4.4c0,0.2-0.1,0.4-0.2,0.5s-0.3,0.2-0.5,0.2h-10c-0.2,0-0.4,0.1-0.5,0.2S357.7,10.6,357.7,10.8z"/>
		<path class="st1" d="M386.8,19.6c1.2,0.7,2.3,1.3,3.4,1.8c1.1,0.4,2.2,0.6,3.2,0.6c0.9,0,1.7-0.1,2.1-0.4c0.5-0.3,0.7-0.7,0.7-1.2
			c0-0.3-0.1-0.5-0.3-0.7c-0.2-0.2-0.5-0.3-0.8-0.4c-0.4-0.1-0.8-0.2-1.2-0.3c-0.5-0.1-0.9-0.1-1.4-0.3c-0.5-0.1-1-0.2-1.6-0.3
			c-0.6-0.1-1.3-0.3-1.9-0.5c-0.7-0.2-1.3-0.5-2-0.8c-0.7-0.3-1.2-0.8-1.7-1.3c-0.5-0.5-0.9-1.2-1.2-1.9c-0.3-0.7-0.5-1.6-0.5-2.6
			c0-1.5,0.3-2.7,0.9-3.6c0.6-1,1.3-1.7,2.2-2.3c0.9-0.6,1.9-1,3-1.2c1.1-0.2,2.1-0.3,3.2-0.3c1.8,0,3.4,0.3,4.8,0.8
			c1.4,0.5,2.8,1.3,4.1,2.3c0.2,0.1,0.3,0.3,0.3,0.5c0,0.2,0,0.4-0.2,0.6l-2.5,3.6c-0.1,0.2-0.3,0.3-0.5,0.3s-0.4,0-0.6-0.1
			c-1.1-0.7-2.1-1.2-3-1.5c-0.9-0.3-1.8-0.4-2.6-0.4c-0.2,0-0.5,0-0.8,0c-0.3,0-0.6,0.1-0.9,0.1c-0.3,0.1-0.5,0.2-0.7,0.4
			s-0.3,0.4-0.3,0.7c0,0.3,0.2,0.6,0.7,0.8s1,0.4,1.5,0.6c0.6,0.2,1.1,0.3,1.7,0.4c0.5,0.1,0.9,0.2,1,0.2c0.8,0.1,1.6,0.4,2.5,0.7
			c0.9,0.3,1.8,0.7,2.6,1.3c0.8,0.6,1.5,1.3,2,2.2c0.5,0.9,0.8,2,0.8,3.4c0,1.3-0.2,2.4-0.7,3.3c-0.4,0.9-1.1,1.7-1.9,2.3
			c-0.8,0.6-1.8,1-2.9,1.3c-1.1,0.3-2.4,0.4-3.7,0.4c-1.1,0-2.1-0.1-3.1-0.3c-1-0.2-1.9-0.4-2.7-0.8c-0.8-0.3-1.6-0.7-2.3-1.1
			c-0.7-0.4-1.4-0.9-2-1.4c-0.2-0.1-0.3-0.3-0.3-0.5s0-0.4,0.2-0.6l2.5-3.6c0.1-0.2,0.3-0.3,0.5-0.3
			C386.5,19.4,386.7,19.4,386.8,19.6z"/>
		<path class="st1" d="M420.6,10h-4.5c-0.2,0-0.4,0.1-0.5,0.2s-0.2,0.3-0.2,0.5v16c0,0.2-0.1,0.4-0.2,0.5c-0.1,0.1-0.3,0.2-0.6,0.2
			h-4.8c-0.2,0-0.4-0.1-0.5-0.2s-0.2-0.3-0.2-0.5v-16c0-0.2-0.1-0.4-0.2-0.5c-0.1-0.1-0.3-0.2-0.6-0.2h-4.5c-0.2,0-0.4-0.1-0.5-0.2
			S403,9.5,403,9.3V4.9c0-0.2,0.1-0.4,0.2-0.5c0.1-0.1,0.3-0.2,0.5-0.2h16.9c0.2,0,0.4,0.1,0.6,0.2c0.1,0.1,0.2,0.3,0.2,0.5v4.4
			c0,0.2-0.1,0.4-0.2,0.5S420.9,10,420.6,10z"/>
		<path class="st1" d="M428.3,4.9c0.1-0.2,0.2-0.4,0.4-0.5c0.2-0.1,0.4-0.2,0.7-0.2h4.5c0.2,0,0.4,0.1,0.6,0.2
			c0.2,0.1,0.3,0.3,0.4,0.5l9.3,21.8c0.1,0.2,0.1,0.4,0,0.6c-0.1,0.2-0.3,0.3-0.7,0.3H438c-0.2,0-0.5-0.1-0.7-0.2
			c-0.2-0.1-0.4-0.3-0.5-0.5l-0.9-1.9c-0.1-0.2-0.3-0.4-0.5-0.5c-0.2-0.1-0.4-0.2-0.6-0.2h-6.8c-0.2,0-0.5,0.1-0.7,0.2
			c-0.2,0.1-0.3,0.3-0.4,0.5l-0.9,1.9c-0.1,0.2-0.2,0.4-0.4,0.5c-0.2,0.1-0.4,0.2-0.6,0.2h-5.5c-0.1,0-0.2,0-0.3-0.1
			c-0.1,0-0.2-0.1-0.3-0.2c-0.1-0.1-0.1-0.2-0.1-0.3c0-0.1,0-0.3,0.1-0.4L428.3,4.9z M430.2,18.8h2.8c0.2,0,0.4-0.1,0.5-0.2
			s0.1-0.3,0-0.5c-0.2-0.5-0.5-1.2-0.8-1.9s-0.6-1.4-0.8-2c-0.1-0.2-0.2-0.3-0.3-0.3c-0.1,0-0.2,0.1-0.3,0.3l-1.6,3.9
			c-0.1,0.2-0.1,0.4,0,0.5S429.9,18.8,430.2,18.8z"/>
		<path class="st1" d="M459.4,10h-4.5c-0.2,0-0.4,0.1-0.5,0.2s-0.2,0.3-0.2,0.5v16c0,0.2-0.1,0.4-0.2,0.5c-0.1,0.1-0.3,0.2-0.6,0.2
			h-4.8c-0.2,0-0.4-0.1-0.5-0.2s-0.2-0.3-0.2-0.5v-16c0-0.2-0.1-0.4-0.2-0.5c-0.1-0.1-0.3-0.2-0.6-0.2h-4.5c-0.2,0-0.4-0.1-0.5-0.2
			s-0.2-0.3-0.2-0.5V4.9c0-0.2,0.1-0.4,0.2-0.5c0.1-0.1,0.3-0.2,0.5-0.2h16.9c0.2,0,0.4,0.1,0.6,0.2c0.1,0.1,0.2,0.3,0.2,0.5v4.4
			c0,0.2-0.1,0.4-0.2,0.5S459.7,10,459.4,10z"/>
		<path class="st1" d="M468.5,27.6h-4.8c-0.2,0-0.4-0.1-0.6-0.2c-0.1-0.1-0.2-0.3-0.2-0.5V5c0-0.2,0.1-0.4,0.2-0.5
			c0.1-0.1,0.3-0.2,0.6-0.2h4.8c0.2,0,0.4,0.1,0.5,0.2s0.2,0.3,0.2,0.5v21.9c0,0.2-0.1,0.4-0.2,0.5S468.7,27.6,468.5,27.6z"/>
		<path class="st1" d="M476.2,19.6c1.2,0.7,2.3,1.3,3.4,1.8c1.1,0.4,2.2,0.6,3.2,0.6c0.9,0,1.7-0.1,2.1-0.4c0.5-0.3,0.7-0.7,0.7-1.2
			c0-0.3-0.1-0.5-0.3-0.7c-0.2-0.2-0.5-0.3-0.8-0.4c-0.4-0.1-0.8-0.2-1.2-0.3c-0.5-0.1-0.9-0.1-1.4-0.3c-0.5-0.1-1-0.2-1.6-0.3
			c-0.6-0.1-1.3-0.3-1.9-0.5c-0.7-0.2-1.3-0.5-2-0.8c-0.7-0.3-1.2-0.8-1.7-1.3c-0.5-0.5-0.9-1.2-1.2-1.9c-0.3-0.7-0.5-1.6-0.5-2.6
			c0-1.5,0.3-2.7,0.9-3.6c0.6-1,1.3-1.7,2.2-2.3c0.9-0.6,1.9-1,3-1.2c1.1-0.2,2.1-0.3,3.2-0.3c1.8,0,3.4,0.3,4.8,0.8
			c1.4,0.5,2.8,1.3,4.1,2.3c0.2,0.1,0.3,0.3,0.3,0.5c0,0.2,0,0.4-0.2,0.6l-2.5,3.6c-0.1,0.2-0.3,0.3-0.5,0.3s-0.4,0-0.6-0.1
			c-1.1-0.7-2.1-1.2-3-1.5c-0.9-0.3-1.8-0.4-2.6-0.4c-0.2,0-0.5,0-0.8,0c-0.3,0-0.6,0.1-0.9,0.1c-0.3,0.1-0.5,0.2-0.7,0.4
			s-0.3,0.4-0.3,0.7c0,0.3,0.2,0.6,0.7,0.8s1,0.4,1.5,0.6c0.6,0.2,1.1,0.3,1.7,0.4c0.5,0.1,0.9,0.2,1,0.2c0.8,0.1,1.6,0.4,2.5,0.7
			c0.9,0.3,1.8,0.7,2.6,1.3c0.8,0.6,1.5,1.3,2,2.2c0.5,0.9,0.8,2,0.8,3.4c0,1.3-0.2,2.4-0.7,3.3c-0.4,0.9-1.1,1.7-1.9,2.3
			c-0.8,0.6-1.8,1-2.9,1.3c-1.1,0.3-2.4,0.4-3.7,0.4c-1.1,0-2.1-0.1-3.1-0.3c-1-0.2-1.9-0.4-2.7-0.8c-0.8-0.3-1.6-0.7-2.3-1.1
			c-0.7-0.4-1.4-0.9-2-1.4c-0.2-0.1-0.3-0.3-0.3-0.5s0-0.4,0.2-0.6l2.5-3.6c0.1-0.2,0.3-0.3,0.5-0.3C475.8,19.4,476,19.4,476.2,19.6
			z"/>
		<path class="st1" d="M510,10h-4.5c-0.2,0-0.4,0.1-0.5,0.2s-0.2,0.3-0.2,0.5v16c0,0.2-0.1,0.4-0.2,0.5c-0.1,0.1-0.3,0.2-0.6,0.2
			h-4.8c-0.2,0-0.4-0.1-0.5-0.2s-0.2-0.3-0.2-0.5v-16c0-0.2-0.1-0.4-0.2-0.5c-0.1-0.1-0.3-0.2-0.6-0.2h-4.5c-0.2,0-0.4-0.1-0.5-0.2
			s-0.2-0.3-0.2-0.5V4.9c0-0.2,0.1-0.4,0.2-0.5c0.1-0.1,0.3-0.2,0.5-0.2H510c0.2,0,0.4,0.1,0.6,0.2c0.1,0.1,0.2,0.3,0.2,0.5v4.4
			c0,0.2-0.1,0.4-0.2,0.5S510.2,10,510,10z"/>
		<path class="st1" d="M519,27.6h-4.8c-0.2,0-0.4-0.1-0.6-0.2c-0.1-0.1-0.2-0.3-0.2-0.5V5c0-0.2,0.1-0.4,0.2-0.5
			c0.1-0.1,0.3-0.2,0.6-0.2h4.8c0.2,0,0.4,0.1,0.5,0.2s0.2,0.3,0.2,0.5v21.9c0,0.2-0.1,0.4-0.2,0.5S519.3,27.6,519,27.6z"/>
		<path class="st1" d="M546.7,21.4c-0.6,1-1.3,1.9-2,2.7c-0.7,0.8-1.6,1.5-2.5,2.1c-0.9,0.6-2,1-3.1,1.3s-2.4,0.5-3.7,0.5
			c-1.7,0-3.3-0.3-4.8-1c-1.5-0.6-2.8-1.5-3.9-2.6s-2-2.4-2.6-3.8c-0.6-1.5-1-3-1-4.7c0-1.7,0.3-3.2,1-4.7c0.6-1.5,1.5-2.8,2.6-3.8
			s2.4-2,3.9-2.6c1.5-0.6,3.1-1,4.8-1c1.4,0,2.7,0.2,3.8,0.5s2.2,0.8,3.1,1.3s1.7,1.3,2.5,2.1c0.7,0.8,1.4,1.7,2,2.7
			c0.1,0.2,0.1,0.4,0.1,0.5c-0.1,0.2-0.2,0.3-0.4,0.4l-4.5,1.8c-0.2,0.1-0.4,0.1-0.6,0c-0.2-0.1-0.4-0.2-0.5-0.4
			c-0.6-1-1.4-1.7-2.2-2.3c-0.9-0.5-1.9-0.8-3.2-0.8c-0.8,0-1.6,0.2-2.3,0.5s-1.3,0.8-1.9,1.4c-0.5,0.6-0.9,1.2-1.2,2
			s-0.4,1.5-0.4,2.3c0,0.8,0.1,1.6,0.4,2.3c0.3,0.7,0.7,1.4,1.2,1.9s1.2,1,1.9,1.3s1.5,0.5,2.3,0.5c1.2,0,2.2-0.3,3.2-0.8
			s1.7-1.3,2.3-2.2c0.1-0.2,0.3-0.3,0.5-0.4c0.2-0.1,0.4-0.1,0.6,0l4.5,1.8c0.2,0.1,0.3,0.2,0.4,0.4C546.8,21,546.8,21.2,546.7,21.4
			z"/>
		<path class="st1" d="M551,19.6c1.2,0.7,2.3,1.3,3.4,1.8c1.1,0.4,2.2,0.6,3.2,0.6c0.9,0,1.7-0.1,2.1-0.4c0.5-0.3,0.7-0.7,0.7-1.2
			c0-0.3-0.1-0.5-0.3-0.7c-0.2-0.2-0.5-0.3-0.8-0.4c-0.4-0.1-0.8-0.2-1.2-0.3c-0.5-0.1-0.9-0.1-1.4-0.3c-0.5-0.1-1-0.2-1.6-0.3
			c-0.6-0.1-1.3-0.3-1.9-0.5c-0.7-0.2-1.3-0.5-2-0.8c-0.7-0.3-1.2-0.8-1.7-1.3c-0.5-0.5-0.9-1.2-1.2-1.9c-0.3-0.7-0.5-1.6-0.5-2.6
			c0-1.5,0.3-2.7,0.9-3.6c0.6-1,1.3-1.7,2.2-2.3c0.9-0.6,1.9-1,3-1.2c1.1-0.2,2.1-0.3,3.2-0.3c1.8,0,3.4,0.3,4.8,0.8
			c1.4,0.5,2.8,1.3,4.1,2.3c0.2,0.1,0.3,0.3,0.3,0.5c0,0.2,0,0.4-0.2,0.6l-2.5,3.6c-0.1,0.2-0.3,0.3-0.5,0.3s-0.4,0-0.6-0.1
			c-1.1-0.7-2.1-1.2-3-1.5c-0.9-0.3-1.8-0.4-2.6-0.4c-0.2,0-0.5,0-0.8,0c-0.3,0-0.6,0.1-0.9,0.1c-0.3,0.1-0.5,0.2-0.7,0.4
			s-0.3,0.4-0.3,0.7c0,0.3,0.2,0.6,0.7,0.8s1,0.4,1.5,0.6c0.6,0.2,1.1,0.3,1.7,0.4c0.5,0.1,0.9,0.2,1,0.2c0.8,0.1,1.6,0.4,2.5,0.7
			c0.9,0.3,1.8,0.7,2.6,1.3c0.8,0.6,1.5,1.3,2,2.2c0.5,0.9,0.8,2,0.8,3.4c0,1.3-0.2,2.4-0.7,3.3c-0.4,0.9-1.1,1.7-1.9,2.3
			c-0.8,0.6-1.8,1-2.9,1.3c-1.1,0.3-2.4,0.4-3.7,0.4c-1.1,0-2.1-0.1-3.1-0.3c-1-0.2-1.9-0.4-2.7-0.8c-0.8-0.3-1.6-0.7-2.3-1.1
			c-0.7-0.4-1.4-0.9-2-1.4c-0.2-0.1-0.3-0.3-0.3-0.5s0-0.4,0.2-0.6l2.5-3.6c0.1-0.2,0.3-0.3,0.5-0.3C550.6,19.4,550.8,19.4,551,19.6
			z"/>
	</g>
</g>
</svg>
