<?xml version="1.0" encoding="utf-8"?>
<!-- Generator: Adobe Illustrator 26.3.1, SVG Export Plug-In . SVG Version: 6.00 Build 0)  -->
<svg version="1.1" id="Layer_2_00000160148372498781742130000016022670177311252355_"
	 xmlns="http://www.w3.org/2000/svg" xmlns:xlink="http://www.w3.org/1999/xlink" x="0px" y="0px" viewBox="0 0 510.1 28"
	 style="enable-background:new 0 0 510.1 28;" xml:space="preserve">
<style type="text/css">
	.st0{fill:#A65D42;}
</style>
<g id="Layer_1-2">
	<g>
		<path class="st0" d="M54.4,10.3h-4.4c-0.2,0-0.4,0.1-0.5,0.2c-0.1,0.1-0.2,0.3-0.2,0.5v15.8c0,0.2-0.1,0.4-0.2,0.5
			s-0.3,0.2-0.6,0.2h-4.7c-0.2,0-0.4-0.1-0.5-0.2c-0.1-0.1-0.2-0.3-0.2-0.5V11.1c0-0.2-0.1-0.4-0.2-0.5s-0.3-0.2-0.6-0.2h-4.5
			c-0.2,0-0.4-0.1-0.5-0.2c-0.1-0.1-0.2-0.3-0.2-0.5V5.2c0-0.2,0.1-0.4,0.2-0.5c0.1-0.1,0.3-0.2,0.5-0.2h16.7c0.2,0,0.4,0.1,0.6,0.2
			c0.1,0.1,0.2,0.3,0.2,0.5v4.3c0,0.2-0.1,0.4-0.2,0.5S54.6,10.3,54.4,10.3z"/>
		<path class="st0" d="M78.2,5.2v21.6c0,0.2-0.1,0.4-0.2,0.5s-0.3,0.2-0.5,0.2h-4.7c-0.2,0-0.4-0.1-0.6-0.2
			c-0.1-0.1-0.2-0.3-0.2-0.5v-6.8c0-0.2-0.1-0.4-0.2-0.5s-0.3-0.2-0.5-0.2h-6.5c-0.2,0-0.4,0.1-0.6,0.2s-0.2,0.3-0.2,0.5v6.8
			c0,0.2-0.1,0.4-0.2,0.5s-0.3,0.2-0.5,0.2h-4.7c-0.2,0-0.4-0.1-0.6-0.2s-0.2-0.3-0.2-0.5V5.2c0-0.2,0.1-0.4,0.2-0.5
			c0.1-0.1,0.3-0.2,0.6-0.2h4.7c0.2,0,0.4,0.1,0.5,0.2c0.1,0.1,0.2,0.3,0.2,0.5v7.5c0,0.2,0.1,0.4,0.2,0.5c0.1,0.1,0.3,0.2,0.6,0.2
			h6.5c0.2,0,0.4-0.1,0.5-0.2c0.1-0.1,0.2-0.3,0.2-0.5V5.2c0-0.2,0.1-0.4,0.2-0.5c0.1-0.1,0.3-0.2,0.6-0.2h4.7
			c0.2,0,0.4,0.1,0.5,0.2C78.1,4.8,78.2,5,78.2,5.2z"/>
		<path class="st0" d="M88.8,11.1v1.3c0,0.2,0.1,0.4,0.2,0.5s0.3,0.2,0.5,0.2h8.6c0.2,0,0.4,0.1,0.5,0.2s0.2,0.3,0.2,0.5v4.4
			c0,0.2-0.1,0.4-0.2,0.5C98.5,19,98.4,19,98.1,19h-8.6c-0.2,0-0.4,0.1-0.5,0.2c-0.1,0.1-0.2,0.3-0.2,0.5V21c0,0.2,0.1,0.4,0.2,0.5
			s0.3,0.2,0.5,0.2h9.8c0.2,0,0.4,0.1,0.5,0.2s0.2,0.3,0.2,0.5v4.4c0,0.2-0.1,0.4-0.2,0.5c-0.1,0.1-0.3,0.2-0.5,0.2H83.3
			c-0.2,0-0.4-0.1-0.5-0.2s-0.2-0.3-0.2-0.5V5.2c0-0.2,0.1-0.4,0.2-0.5c0.1-0.1,0.3-0.2,0.5-0.2h16.1c0.2,0,0.4,0.1,0.5,0.2
			c0.1,0.1,0.2,0.3,0.2,0.5v4.3c0,0.2-0.1,0.4-0.2,0.5c-0.1,0.1-0.3,0.2-0.5,0.2h-9.8c-0.2,0-0.4,0.1-0.5,0.2
			C88.9,10.7,88.8,10.8,88.8,11.1z"/>
		<path class="st0" d="M121.2,11.1v1.3c0,0.2,0.1,0.4,0.2,0.5c0.1,0.1,0.3,0.2,0.5,0.2h8.5c0.2,0,0.4,0.1,0.5,0.2
			c0.1,0.1,0.2,0.3,0.2,0.5v4.4c0,0.2-0.1,0.4-0.2,0.5c-0.1,0.1-0.3,0.2-0.5,0.2H122c-0.2,0-0.4,0.1-0.5,0.2s-0.2,0.3-0.2,0.5v7
			c0,0.2-0.1,0.4-0.2,0.5c-0.1,0.1-0.3,0.2-0.5,0.2h-4.8c-0.2,0-0.4-0.1-0.5-0.2s-0.2-0.3-0.2-0.5V5.2c0-0.2,0.1-0.4,0.2-0.5
			c0.1-0.1,0.3-0.2,0.5-0.2h16.1c0.2,0,0.4,0.1,0.5,0.2c0.1,0.1,0.2,0.3,0.2,0.5v4.4c0,0.2-0.1,0.4-0.2,0.5
			c-0.1,0.1-0.3,0.2-0.5,0.2H122c-0.2,0-0.4,0.1-0.5,0.2C121.3,10.7,121.2,10.9,121.2,11.1L121.2,11.1z"/>
		<path class="st0" d="M140,5.2c0.1-0.2,0.2-0.4,0.4-0.5c0.2-0.1,0.4-0.2,0.7-0.2h4.4c0.2,0,0.4,0.1,0.6,0.2
			c0.2,0.1,0.3,0.3,0.4,0.5l9.2,21.5c0.1,0.2,0.1,0.4-0.1,0.6c-0.1,0.2-0.3,0.3-0.7,0.3h-5.4c-0.2,0-0.4-0.1-0.7-0.2
			c-0.2-0.1-0.4-0.3-0.5-0.5l-0.9-1.9c-0.1-0.2-0.3-0.4-0.5-0.5c-0.2-0.1-0.4-0.2-0.6-0.2h-6.7c-0.2,0-0.4,0.1-0.7,0.2
			c-0.2,0.1-0.3,0.3-0.4,0.5l-0.9,1.9c-0.1,0.2-0.2,0.4-0.4,0.5c-0.2,0.1-0.4,0.2-0.6,0.2h-5.4c-0.1,0-0.2,0-0.3-0.1
			c-0.1,0-0.2-0.1-0.3-0.2c-0.1-0.1-0.1-0.2-0.1-0.3c0-0.1,0-0.3,0.1-0.4L140,5.2z M141.9,19h2.8c0.2,0,0.4-0.1,0.5-0.2
			c0.1-0.1,0.1-0.3,0-0.5c-0.2-0.5-0.5-1.1-0.8-1.9c-0.3-0.7-0.6-1.4-0.8-2c-0.1-0.2-0.2-0.3-0.3-0.3c-0.1,0-0.2,0.1-0.3,0.3
			l-1.6,3.8c-0.1,0.2-0.1,0.4,0,0.5C141.5,18.9,141.6,19,141.9,19z"/>
		<path class="st0" d="M174.5,22.6v4.3c0,0.2-0.1,0.4-0.2,0.5s-0.3,0.2-0.5,0.2H158c-0.2,0-0.4-0.1-0.6-0.2s-0.2-0.3-0.2-0.5V5.2
			c0-0.2,0.1-0.4,0.2-0.5c0.1-0.1,0.3-0.2,0.6-0.2h4.7c0.2,0,0.4,0.1,0.5,0.2c0.1,0.1,0.2,0.3,0.2,0.5v15.8c0,0.2,0.1,0.4,0.2,0.5
			s0.3,0.2,0.6,0.2h9.5c0.2,0,0.4,0.1,0.5,0.2S174.5,22.4,174.5,22.6L174.5,22.6z"/>
		<path class="st0" d="M194,22.6v4.3c0,0.2-0.1,0.4-0.2,0.5s-0.3,0.2-0.5,0.2h-15.8c-0.2,0-0.4-0.1-0.6-0.2s-0.2-0.3-0.2-0.5V5.2
			c0-0.2,0.1-0.4,0.2-0.5c0.1-0.1,0.3-0.2,0.6-0.2h4.7c0.2,0,0.4,0.1,0.5,0.2c0.1,0.1,0.2,0.3,0.2,0.5v15.8c0,0.2,0.1,0.4,0.2,0.5
			s0.3,0.2,0.6,0.2h9.5c0.2,0,0.4,0.1,0.5,0.2S194,22.4,194,22.6L194,22.6z"/>
		<path class="st0" d="M206,16.1c0-1.6,0.3-3.2,0.9-4.7s1.5-2.7,2.6-3.8s2.3-2,3.8-2.6s3-0.9,4.7-0.9s3.2,0.3,4.7,0.9
			s2.7,1.5,3.8,2.6s2,2.4,2.6,3.8s0.9,3,0.9,4.7s-0.3,3.2-0.9,4.7s-1.5,2.7-2.6,3.8s-2.4,2-3.8,2.6s-3,0.9-4.7,0.9s-3.2-0.3-4.7-0.9
			s-2.7-1.5-3.8-2.6s-1.9-2.4-2.6-3.8S206,17.7,206,16.1z M212.3,16.1c0,0.8,0.1,1.6,0.4,2.3c0.3,0.7,0.7,1.4,1.2,1.9
			c0.5,0.5,1.1,1,1.8,1.3c0.7,0.3,1.4,0.5,2.2,0.5s1.5-0.2,2.2-0.5c0.7-0.3,1.3-0.8,1.8-1.3c0.5-0.5,0.9-1.2,1.2-1.9
			s0.4-1.5,0.4-2.3s-0.1-1.5-0.4-2.3c-0.3-0.7-0.7-1.4-1.2-1.9c-0.5-0.5-1.1-1-1.8-1.3c-0.7-0.3-1.4-0.5-2.2-0.5s-1.5,0.2-2.2,0.5
			c-0.7,0.3-1.3,0.8-1.8,1.3c-0.5,0.5-0.9,1.2-1.2,1.9C212.4,14.5,212.3,15.3,212.3,16.1z"/>
		<path class="st0" d="M239.4,11.1v1.3c0,0.2,0.1,0.4,0.2,0.5c0.1,0.1,0.3,0.2,0.5,0.2h8.5c0.2,0,0.4,0.1,0.5,0.2
			c0.1,0.1,0.2,0.3,0.2,0.5v4.4c0,0.2-0.1,0.4-0.2,0.5s-0.3,0.2-0.5,0.2h-8.5c-0.2,0-0.4,0.1-0.5,0.2c-0.1,0.1-0.2,0.3-0.2,0.5v7
			c0,0.2-0.1,0.4-0.2,0.5s-0.3,0.2-0.5,0.2h-4.8c-0.2,0-0.4-0.1-0.5-0.2s-0.2-0.3-0.2-0.5V5.2c0-0.2,0.1-0.4,0.2-0.5
			c0.1-0.1,0.3-0.2,0.5-0.2H250c0.2,0,0.4,0.1,0.5,0.2c0.1,0.1,0.2,0.3,0.2,0.5v4.4c0,0.2-0.1,0.4-0.2,0.5s-0.3,0.2-0.5,0.2h-9.8
			c-0.2,0-0.4,0.1-0.5,0.2C239.5,10.7,239.4,10.9,239.4,11.1L239.4,11.1z"/>
		<path class="st0" d="M277.7,27.1l-6.1-6.9c-0.1-0.2-0.3-0.2-0.4-0.2s-0.1,0.2-0.1,0.4v6.5c0,0.2-0.1,0.4-0.2,0.5s-0.3,0.2-0.5,0.2
			h-4.7c-0.2,0-0.4-0.1-0.6-0.2c-0.1-0.1-0.2-0.3-0.2-0.5V5.2c0-0.2,0.1-0.4,0.2-0.5c0.1-0.1,0.3-0.2,0.6-0.2h4.7
			c0.2,0,0.4,0.1,0.5,0.2c0.1,0.1,0.2,0.3,0.2,0.5v7.3c0,0.2,0,0.3,0.1,0.4s0.2,0,0.3-0.2l5.7-7.6c0.1-0.2,0.3-0.3,0.5-0.4
			s0.5-0.2,0.7-0.2h6c0.2,0,0.4,0.1,0.4,0.3c0.1,0.2,0,0.4-0.1,0.6l-8.3,10.4c-0.1,0.2-0.2,0.4-0.2,0.6c0,0.2,0.1,0.4,0.2,0.6
			c0.7,0.8,1.5,1.6,2.3,2.4c0.8,0.8,1.6,1.7,2.4,2.5c0.8,0.9,1.6,1.7,2.3,2.5c0.8,0.8,1.5,1.6,2.2,2.3c0.1,0.2,0.2,0.4,0.2,0.6
			c0,0.2-0.2,0.3-0.4,0.3h-6.6c-0.2,0-0.5-0.1-0.7-0.2C278,27.4,277.8,27.2,277.7,27.1L277.7,27.1z"/>
		<path class="st0" d="M293.7,27.6h-4.8c-0.2,0-0.4-0.1-0.5-0.2c-0.1-0.1-0.2-0.3-0.2-0.5V5.3c0-0.2,0.1-0.4,0.2-0.5
			c0.1-0.1,0.3-0.2,0.5-0.2h4.8c0.2,0,0.4,0.1,0.5,0.2c0.2,0.1,0.2,0.3,0.2,0.5v21.6c0,0.2-0.1,0.4-0.2,0.5S293.9,27.6,293.7,27.6z"
			/>
		<path class="st0" d="M320.5,5.2v21.6c0,0.2-0.1,0.4-0.2,0.5s-0.3,0.2-0.5,0.2H315c-0.2,0-0.4-0.1-0.7-0.2
			c-0.2-0.1-0.4-0.3-0.5-0.4l-8.2-11.6c-0.1-0.2-0.3-0.2-0.4-0.2c-0.1,0-0.2,0.2-0.2,0.4v11.3c0,0.2-0.1,0.4-0.2,0.5
			c-0.1,0.1-0.3,0.2-0.5,0.2h-4.7c-0.2,0-0.4-0.1-0.5-0.2c-0.1-0.1-0.2-0.3-0.2-0.5V5.2c0-0.2,0.1-0.4,0.2-0.5
			c0.1-0.1,0.3-0.2,0.5-0.2h4.7c0.2,0,0.4,0.1,0.7,0.2c0.2,0.1,0.4,0.3,0.5,0.4l8.2,11.6c0.1,0.2,0.3,0.2,0.4,0.2
			c0.1,0,0.2-0.1,0.2-0.4V5.2c0-0.2,0.1-0.4,0.2-0.5c0.1-0.1,0.3-0.2,0.5-0.2h4.7c0.2,0,0.4,0.1,0.5,0.2
			C320.4,4.8,320.5,5,320.5,5.2L320.5,5.2z"/>
		<path class="st0" d="M336.3,28c-1.7,0-3.3-0.3-4.7-0.9c-1.5-0.6-2.8-1.5-3.9-2.6s-2-2.3-2.6-3.8s-1-3-1-4.7c0-1.7,0.3-3.2,1-4.7
			s1.5-2.7,2.6-3.8s2.4-2,3.9-2.6c1.5-0.6,3.1-0.9,4.7-0.9c2.3,0,4.3,0.5,6.1,1.4c1.7,0.9,3.1,2.3,4.2,3.9c0.1,0.2,0.1,0.4,0.1,0.6
			c-0.1,0.2-0.2,0.4-0.3,0.5l-3.8,2.4c-0.2,0.1-0.4,0.1-0.6,0.1c-0.2,0-0.4-0.1-0.5-0.3c-0.7-0.8-1.4-1.4-2.2-1.9
			c-0.8-0.5-1.8-0.7-2.9-0.7c-0.8,0-1.6,0.2-2.3,0.5s-1.3,0.8-1.9,1.3c-0.5,0.5-0.9,1.2-1.2,1.9c-0.3,0.7-0.5,1.5-0.5,2.3
			c0,0.8,0.2,1.6,0.5,2.3c0.3,0.7,0.7,1.3,1.2,1.9c0.5,0.5,1.1,1,1.9,1.3c0.7,0.3,1.5,0.5,2.3,0.5s1.6-0.1,2.4-0.4
			c0.8-0.3,1.4-0.8,1.9-1.5c0.1-0.2,0.1-0.3,0-0.5c-0.1-0.1-0.2-0.2-0.4-0.2h-3.6c-0.2,0-0.4-0.1-0.5-0.2s-0.2-0.3-0.2-0.5v-3.8
			c0-0.2,0.1-0.4,0.2-0.5s0.3-0.2,0.5-0.2h10.9c0.2,0,0.4,0.1,0.6,0.2c0.2,0.1,0.2,0.3,0.3,0.6c0,0.4,0.1,0.8,0.1,1.3
			c0,0.5,0,1.1-0.1,1.6c-0.1,1.5-0.6,2.8-1.2,4.1c-0.7,1.2-1.5,2.3-2.6,3.2c-1.1,0.9-2.3,1.6-3.7,2.1C339.3,27.8,337.9,28,336.3,28
			L336.3,28z"/>
		<path class="st0" d="M388.5,5.3v21.6c0,0.2-0.1,0.4-0.2,0.5s-0.3,0.2-0.5,0.2H383c-0.2,0-0.4-0.1-0.5-0.2
			c-0.2-0.1-0.2-0.3-0.2-0.5V16.7c0-0.2-0.1-0.3-0.3-0.4c-0.2,0-0.4,0.1-0.5,0.2l-5.3,8.6c-0.1,0.2-0.3,0.3-0.5,0.3
			s-0.4-0.1-0.5-0.3l-5.3-8.6c-0.1-0.2-0.3-0.2-0.4-0.2c-0.2,0-0.3,0.1-0.3,0.4v10.2c0,0.2-0.1,0.4-0.2,0.5s-0.3,0.2-0.5,0.2h-4.8
			c-0.2,0-0.4-0.1-0.5-0.2c-0.2-0.1-0.2-0.3-0.2-0.5V5.3c0-0.2,0.1-0.4,0.2-0.5c0.1-0.1,0.3-0.2,0.5-0.2h4.4c0.2,0,0.4,0.1,0.7,0.2
			c0.2,0.1,0.4,0.3,0.5,0.4l6.1,8.9c0.1,0.2,0.3,0.3,0.4,0.3s0.3-0.1,0.4-0.3l6.1-8.9c0.1-0.2,0.3-0.3,0.5-0.4
			c0.2-0.1,0.5-0.2,0.7-0.2h4.4c0.2,0,0.4,0.1,0.5,0.2C388.4,4.9,388.5,5.1,388.5,5.3L388.5,5.3z"/>
		<path class="st0" d="M399.9,5.2c0.1-0.2,0.2-0.4,0.4-0.5c0.2-0.1,0.4-0.2,0.7-0.2h4.4c0.2,0,0.4,0.1,0.6,0.2
			c0.2,0.1,0.3,0.3,0.4,0.5l9.2,21.5c0.1,0.2,0.1,0.4-0.1,0.6c-0.1,0.2-0.3,0.3-0.7,0.3h-5.4c-0.2,0-0.4-0.1-0.7-0.2
			c-0.2-0.1-0.4-0.3-0.5-0.5l-0.9-1.9c-0.1-0.2-0.3-0.4-0.5-0.5c-0.2-0.1-0.4-0.2-0.6-0.2h-6.7c-0.2,0-0.4,0.1-0.7,0.2
			c-0.2,0.1-0.3,0.3-0.4,0.5l-0.9,1.9c-0.1,0.2-0.2,0.4-0.4,0.5c-0.2,0.1-0.4,0.2-0.6,0.2h-5.4c-0.1,0-0.2,0-0.3-0.1
			c-0.1,0-0.2-0.1-0.3-0.2c-0.1-0.1-0.1-0.2-0.1-0.3c0-0.1,0-0.3,0.1-0.4L399.9,5.2L399.9,5.2z M401.8,19h2.8c0.2,0,0.4-0.1,0.5-0.2
			c0.1-0.1,0.1-0.3,0-0.5c-0.2-0.5-0.5-1.1-0.8-1.9c-0.3-0.7-0.6-1.4-0.8-2c-0.1-0.2-0.2-0.3-0.3-0.3s-0.2,0.1-0.3,0.3l-1.6,3.8
			c-0.1,0.2-0.1,0.4,0,0.5C401.4,18.9,401.6,19,401.8,19L401.8,19z"/>
		<path class="st0" d="M422.3,27.6h-4.7c-0.2,0-0.4-0.1-0.5-0.2s-0.2-0.3-0.2-0.5V5.2c0-0.2,0.1-0.4,0.2-0.5
			c0.1-0.1,0.3-0.2,0.5-0.2h9.8c1.2,0,2.4,0.2,3.4,0.6c1,0.4,1.9,1,2.6,1.7c0.7,0.7,1.3,1.6,1.7,2.6s0.6,2.1,0.6,3.4
			c0,0.7-0.1,1.3-0.2,2c-0.2,0.7-0.4,1.3-0.7,1.9c-0.3,0.6-0.6,1.1-1,1.6c-0.4,0.5-0.9,0.9-1.4,1.2c-0.2,0.1-0.3,0.3-0.3,0.5
			c-0.1,0.2,0,0.4,0.1,0.5c0.8,1.1,1.6,2.1,2.5,3.3c0.9,1.1,1.7,2.1,2.4,3.1c0.1,0.2,0.2,0.4,0.1,0.6c-0.1,0.2-0.2,0.3-0.4,0.3h-5.9
			c-0.2,0-0.4-0.1-0.7-0.2c-0.2-0.1-0.4-0.3-0.6-0.4c-0.7-0.9-1.3-1.8-2-2.7c-0.7-0.9-1.3-1.8-2-2.8c-0.1-0.2-0.3-0.3-0.5-0.4
			s-0.5-0.2-0.7-0.2h-0.7c-0.2,0-0.4,0.1-0.5,0.2c-0.2,0.1-0.2,0.3-0.2,0.5v5.1c0,0.2-0.1,0.4-0.2,0.5S422.5,27.6,422.3,27.6
			L422.3,27.6z M423.8,15.2h3.3c0.2,0,0.5-0.1,0.8-0.1s0.5-0.2,0.8-0.4c0.2-0.2,0.4-0.4,0.6-0.7s0.2-0.6,0.2-1c0-0.2,0-0.5-0.1-0.7
			c-0.1-0.3-0.2-0.6-0.4-0.8c-0.2-0.3-0.4-0.5-0.7-0.7c-0.3-0.2-0.7-0.3-1.1-0.3h-3.3c-0.2,0-0.4,0.1-0.5,0.2s-0.2,0.3-0.2,0.5v3.4
			c0,0.2,0.1,0.4,0.2,0.5C423.4,15.1,423.6,15.2,423.8,15.2L423.8,15.2z"/>
		<path class="st0" d="M445.3,27.6h-4.8c-0.2,0-0.4-0.1-0.5-0.2c-0.1-0.1-0.2-0.3-0.2-0.5V5.3c0-0.2,0.1-0.4,0.2-0.5
			c0.1-0.1,0.3-0.2,0.5-0.2h4.8c0.2,0,0.4,0.1,0.5,0.2c0.2,0.1,0.2,0.3,0.2,0.5v21.6c0,0.2-0.1,0.4-0.2,0.5S445.5,27.6,445.3,27.6z"
			/>
		<path class="st0" d="M449.3,16.1c0-1.6,0.3-3.2,0.9-4.7c0.6-1.5,1.5-2.7,2.6-3.8s2.3-2,3.8-2.6s3-0.9,4.7-0.9s3.2,0.3,4.7,0.9
			s2.7,1.5,3.8,2.6s2,2.4,2.6,3.8c0.6,1.5,0.9,3,0.9,4.7s-0.3,3.2-0.9,4.7c-0.6,1.5-1.5,2.7-2.6,3.8s-2.4,2-3.8,2.6
			c-1.5,0.6-3,0.9-4.7,0.9s-3.2-0.3-4.7-0.9s-2.7-1.5-3.8-2.6s-1.9-2.4-2.6-3.8C449.6,19.2,449.3,17.7,449.3,16.1z M455.5,16.1
			c0,0.8,0.1,1.6,0.4,2.3c0.3,0.7,0.7,1.4,1.2,1.9c0.5,0.5,1.1,1,1.8,1.3c0.7,0.3,1.4,0.5,2.2,0.5s1.5-0.2,2.2-0.5
			c0.7-0.3,1.3-0.8,1.8-1.3c0.5-0.5,0.9-1.2,1.2-1.9s0.4-1.5,0.4-2.3s-0.1-1.5-0.4-2.3c-0.3-0.7-0.7-1.4-1.2-1.9
			c-0.5-0.5-1.1-1-1.8-1.3c-0.7-0.3-1.4-0.5-2.2-0.5s-1.5,0.2-2.2,0.5c-0.7,0.3-1.3,0.8-1.8,1.3c-0.5,0.5-0.9,1.2-1.2,1.9
			C455.7,14.5,455.5,15.3,455.5,16.1z"/>
	</g>
</g>
</svg>
