<?xml version="1.0" encoding="utf-8"?>
<!-- Generator: Adobe Illustrator 26.3.1, SVG Export Plug-In . SVG Version: 6.00 Build 0)  -->
<svg version="1.1" id="Layer_2_00000176749118408240697270000009899860040001938077_"
	 xmlns="http://www.w3.org/2000/svg" xmlns:xlink="http://www.w3.org/1999/xlink" x="0px" y="0px" viewBox="0 0 512.8 28"
	 style="enable-background:new 0 0 512.8 28;" xml:space="preserve">
<style type="text/css">
	.st0{enable-background:new    ;}
	.st1{fill:#A65D42;}
</style>
<g id="Layer_1-2">
	<g class="st0">
		<path class="st1" d="M53.5,10H49c-0.2,0-0.4,0.1-0.5,0.2c-0.1,0.1-0.2,0.3-0.2,0.5v16c0,0.2-0.1,0.4-0.2,0.5s-0.3,0.2-0.6,0.2
			h-4.8c-0.2,0-0.4-0.1-0.5-0.2c-0.1-0.1-0.2-0.3-0.2-0.5v-16c0-0.2-0.1-0.4-0.2-0.5S41.3,10,41.1,10h-4.5c-0.2,0-0.4-0.1-0.5-0.2
			c-0.1-0.1-0.2-0.3-0.2-0.5V4.9c0-0.2,0.1-0.4,0.2-0.5c0.1-0.1,0.3-0.2,0.5-0.2h16.9c0.2,0,0.4,0.1,0.6,0.2
			c0.1,0.1,0.2,0.3,0.2,0.5v4.4c0,0.2-0.1,0.4-0.2,0.5C53.9,10,53.7,10,53.5,10z"/>
		<path class="st1" d="M77.6,4.9v21.9c0,0.2-0.1,0.4-0.2,0.5c-0.1,0.1-0.3,0.2-0.5,0.2H72c-0.2,0-0.4-0.1-0.6-0.2s-0.2-0.3-0.2-0.5
			V20c0-0.2-0.1-0.4-0.2-0.5c-0.1-0.1-0.3-0.2-0.5-0.2h-6.6c-0.2,0-0.4,0.1-0.6,0.2c-0.1,0.1-0.2,0.3-0.2,0.5v6.8
			c0,0.2-0.1,0.4-0.2,0.5s-0.3,0.2-0.5,0.2h-4.8c-0.2,0-0.4-0.1-0.6-0.2c-0.1-0.1-0.2-0.3-0.2-0.5V4.9c0-0.2,0.1-0.4,0.2-0.5
			c0.1-0.1,0.3-0.2,0.6-0.2h4.8c0.2,0,0.4,0.1,0.5,0.2c0.1,0.1,0.2,0.3,0.2,0.5v7.6c0,0.2,0.1,0.4,0.2,0.5c0.1,0.1,0.3,0.2,0.6,0.2
			h6.6c0.2,0,0.4-0.1,0.5-0.2c0.1-0.1,0.2-0.3,0.2-0.5V4.9c0-0.2,0.1-0.4,0.2-0.5c0.1-0.1,0.3-0.2,0.6-0.2h4.8
			c0.2,0,0.4,0.1,0.5,0.2C77.5,4.5,77.6,4.7,77.6,4.9z"/>
		<path class="st1" d="M88.3,10.8v1.3c0,0.2,0.1,0.4,0.2,0.5c0.1,0.1,0.3,0.2,0.5,0.2h8.7c0.2,0,0.4,0.1,0.5,0.2
			c0.1,0.1,0.2,0.3,0.2,0.5v4.4c0,0.2-0.1,0.4-0.2,0.5c-0.1,0.1-0.3,0.2-0.5,0.2H89c-0.2,0-0.4,0.1-0.5,0.2
			c-0.1,0.2-0.2,0.3-0.2,0.5v1.2c0,0.2,0.1,0.4,0.2,0.5c0.1,0.1,0.3,0.2,0.5,0.2h10c0.2,0,0.4,0.1,0.5,0.2c0.1,0.1,0.2,0.3,0.2,0.5
			v4.4c0,0.2-0.1,0.4-0.2,0.5c-0.1,0.1-0.3,0.2-0.5,0.2H82.7c-0.2,0-0.4-0.1-0.5-0.2c-0.1-0.1-0.2-0.3-0.2-0.5V4.9
			c0-0.2,0.1-0.4,0.2-0.5c0.1-0.1,0.3-0.2,0.5-0.2H99c0.2,0,0.4,0.1,0.5,0.2c0.1,0.1,0.2,0.3,0.2,0.5v4.4c0,0.2-0.1,0.4-0.2,0.5
			C99.4,10,99.2,10,99,10H89c-0.2,0-0.4,0.1-0.5,0.2C88.4,10.4,88.3,10.6,88.3,10.8z"/>
		<path class="st1" d="M121.1,10.9v1.3c0,0.2,0.1,0.4,0.2,0.5c0.1,0.1,0.3,0.2,0.5,0.2h8.6c0.2,0,0.4,0.1,0.5,0.2
			c0.1,0.1,0.2,0.3,0.2,0.5v4.5c0,0.2-0.1,0.4-0.2,0.5c-0.1,0.1-0.3,0.2-0.5,0.2h-8.6c-0.2,0-0.4,0.1-0.5,0.2
			c-0.1,0.1-0.2,0.3-0.2,0.5v7.1c0,0.2-0.1,0.4-0.2,0.5s-0.3,0.2-0.5,0.2h-4.8c-0.2,0-0.4-0.1-0.5-0.2s-0.2-0.3-0.2-0.5V4.9
			c0-0.2,0.1-0.4,0.2-0.5c0.1-0.1,0.3-0.2,0.5-0.2h16.3c0.2,0,0.4,0.1,0.5,0.2c0.1,0.1,0.2,0.3,0.2,0.5v4.4c0,0.2-0.1,0.4-0.2,0.5
			c-0.1,0.2-0.3,0.2-0.5,0.2h-9.9c-0.2,0-0.4,0.1-0.5,0.2C121.2,10.5,121.1,10.7,121.1,10.9z"/>
		<path class="st1" d="M140.1,4.9c0.1-0.2,0.2-0.4,0.4-0.5s0.4-0.2,0.7-0.2h4.5c0.2,0,0.4,0.1,0.6,0.2c0.2,0.1,0.3,0.3,0.4,0.5
			l9.3,21.8c0.1,0.2,0.1,0.4,0,0.6c-0.1,0.2-0.3,0.3-0.7,0.3h-5.5c-0.2,0-0.5-0.1-0.7-0.2c-0.2-0.1-0.4-0.3-0.5-0.5l-0.9-1.9
			c-0.1-0.2-0.3-0.4-0.5-0.5c-0.2-0.1-0.4-0.2-0.6-0.2H140c-0.2,0-0.5,0.1-0.7,0.2c-0.2,0.1-0.3,0.3-0.4,0.5l-0.9,1.9
			c-0.1,0.2-0.2,0.4-0.4,0.5c-0.2,0.1-0.4,0.2-0.6,0.2h-5.5c-0.1,0-0.2,0-0.3-0.1c-0.1,0-0.2-0.1-0.3-0.2s-0.1-0.2-0.1-0.3
			c0-0.1,0-0.3,0.1-0.4L140.1,4.9z M141.9,18.8h2.8c0.2,0,0.4-0.1,0.5-0.2c0.1-0.1,0.1-0.3,0-0.5c-0.2-0.5-0.5-1.2-0.8-1.9
			c-0.3-0.7-0.6-1.4-0.8-2c-0.1-0.2-0.2-0.3-0.3-0.3c-0.1,0-0.2,0.1-0.3,0.3l-1.6,3.9c-0.1,0.2-0.1,0.4,0,0.5
			C141.5,18.7,141.7,18.8,141.9,18.8z"/>
		<path class="st1" d="M175,22.5v4.4c0,0.2-0.1,0.4-0.2,0.5c-0.1,0.1-0.3,0.2-0.5,0.2h-16c-0.2,0-0.4-0.1-0.6-0.2s-0.2-0.3-0.2-0.5
			V4.9c0-0.2,0.1-0.4,0.2-0.5c0.1-0.1,0.3-0.2,0.6-0.2h4.8c0.2,0,0.4,0.1,0.5,0.2c0.1,0.1,0.2,0.3,0.2,0.5v16c0,0.2,0.1,0.4,0.2,0.5
			c0.1,0.1,0.3,0.2,0.6,0.2h9.6c0.2,0,0.4,0.1,0.5,0.2C174.9,22.1,175,22.3,175,22.5z"/>
		<path class="st1" d="M194.6,22.5v4.4c0,0.2-0.1,0.4-0.2,0.5c-0.1,0.1-0.3,0.2-0.5,0.2h-16c-0.2,0-0.4-0.1-0.6-0.2
			s-0.2-0.3-0.2-0.5V4.9c0-0.2,0.1-0.4,0.2-0.5c0.1-0.1,0.3-0.2,0.6-0.2h4.8c0.2,0,0.4,0.1,0.5,0.2c0.1,0.1,0.2,0.3,0.2,0.5v16
			c0,0.2,0.1,0.4,0.2,0.5c0.1,0.1,0.3,0.2,0.6,0.2h9.6c0.2,0,0.4,0.1,0.5,0.2C194.6,22.1,194.6,22.3,194.6,22.5z"/>
		<path class="st1" d="M206.8,15.9c0-1.7,0.3-3.2,1-4.7s1.5-2.8,2.6-3.9c1.1-1.1,2.4-2,3.8-2.6c1.5-0.6,3-1,4.7-1
			c1.7,0,3.2,0.3,4.7,1c1.5,0.6,2.8,1.5,3.9,2.6c1.1,1.1,2,2.4,2.6,3.9c0.6,1.5,1,3,1,4.7c0,1.7-0.3,3.2-1,4.7
			c-0.6,1.5-1.5,2.8-2.6,3.9c-1.1,1.1-2.4,2-3.9,2.6c-1.5,0.6-3,1-4.7,1c-1.7,0-3.2-0.3-4.7-1c-1.5-0.6-2.8-1.5-3.8-2.6
			c-1.1-1.1-2-2.4-2.6-3.9C207.1,19.1,206.8,17.5,206.8,15.9z M213.1,15.9c0,0.8,0.1,1.6,0.4,2.3c0.3,0.7,0.7,1.4,1.2,1.9
			c0.5,0.6,1.1,1,1.8,1.3c0.7,0.3,1.5,0.5,2.2,0.5s1.5-0.2,2.2-0.5c0.7-0.3,1.3-0.8,1.9-1.3c0.5-0.6,0.9-1.2,1.2-1.9
			c0.3-0.7,0.4-1.5,0.4-2.3c0-0.8-0.1-1.6-0.4-2.3c-0.3-0.7-0.7-1.4-1.2-1.9c-0.5-0.5-1.2-1-1.9-1.3c-0.7-0.3-1.5-0.5-2.2-0.5
			s-1.5,0.2-2.2,0.5c-0.7,0.3-1.3,0.8-1.8,1.3c-0.5,0.5-0.9,1.2-1.2,1.9S213.1,15.1,213.1,15.9z"/>
		<path class="st1" d="M240.6,10.9v1.3c0,0.2,0.1,0.4,0.2,0.5c0.1,0.1,0.3,0.2,0.5,0.2h8.6c0.2,0,0.4,0.1,0.5,0.2
			c0.1,0.1,0.2,0.3,0.2,0.5v4.5c0,0.2-0.1,0.4-0.2,0.5c-0.1,0.1-0.3,0.2-0.5,0.2h-8.6c-0.2,0-0.4,0.1-0.5,0.2
			c-0.1,0.1-0.2,0.3-0.2,0.5v7.1c0,0.2-0.1,0.4-0.2,0.5s-0.3,0.2-0.5,0.2H235c-0.2,0-0.4-0.1-0.5-0.2s-0.2-0.3-0.2-0.5V4.9
			c0-0.2,0.1-0.4,0.2-0.5c0.1-0.1,0.3-0.2,0.5-0.2h16.3c0.2,0,0.4,0.1,0.5,0.2c0.1,0.1,0.2,0.3,0.2,0.5v4.4c0,0.2-0.1,0.4-0.2,0.5
			c-0.1,0.2-0.3,0.2-0.5,0.2h-9.9c-0.2,0-0.4,0.1-0.5,0.2C240.7,10.5,240.6,10.7,240.6,10.9z"/>
		<path class="st1" d="M279.3,27l-6.2-6.9c-0.1-0.2-0.3-0.2-0.4-0.2c-0.1,0-0.1,0.2-0.1,0.4v6.6c0,0.2-0.1,0.4-0.2,0.5
			c-0.1,0.1-0.3,0.2-0.5,0.2H267c-0.2,0-0.4-0.1-0.6-0.2c-0.1-0.1-0.2-0.3-0.2-0.5V4.9c0-0.2,0.1-0.4,0.2-0.5
			c0.1-0.1,0.3-0.2,0.6-0.2h4.8c0.2,0,0.4,0.1,0.5,0.2c0.1,0.1,0.2,0.3,0.2,0.5v7.4c0,0.2,0,0.3,0.1,0.4c0.1,0,0.2,0,0.3-0.2
			l5.8-7.6c0.1-0.2,0.3-0.3,0.5-0.4c0.2-0.1,0.5-0.2,0.7-0.2h6.1c0.2,0,0.4,0.1,0.4,0.3c0.1,0.2,0,0.4-0.1,0.6L278,15.6
			c-0.1,0.2-0.2,0.4-0.2,0.6c0,0.2,0.1,0.4,0.2,0.6c0.7,0.8,1.5,1.6,2.3,2.5c0.8,0.9,1.6,1.7,2.4,2.6c0.8,0.9,1.6,1.7,2.4,2.6
			s1.5,1.6,2.2,2.4c0.1,0.2,0.2,0.4,0.2,0.6c0,0.2-0.2,0.3-0.4,0.3h-6.6c-0.2,0-0.5-0.1-0.7-0.2C279.6,27.3,279.4,27.2,279.3,27z"/>
		<path class="st1" d="M295.4,27.6h-4.8c-0.2,0-0.4-0.1-0.6-0.2c-0.1-0.1-0.2-0.3-0.2-0.5V5c0-0.2,0.1-0.4,0.2-0.5
			c0.1-0.1,0.3-0.2,0.6-0.2h4.8c0.2,0,0.4,0.1,0.5,0.2s0.2,0.3,0.2,0.5v21.9c0,0.2-0.1,0.4-0.2,0.5S295.7,27.6,295.4,27.6z"/>
		<path class="st1" d="M322.5,4.9v21.9c0,0.2-0.1,0.4-0.2,0.5c-0.1,0.1-0.3,0.2-0.5,0.2H317c-0.2,0-0.4-0.1-0.7-0.2
			s-0.4-0.3-0.5-0.4l-8.3-11.7c-0.1-0.2-0.3-0.2-0.4-0.2c-0.1,0-0.2,0.2-0.2,0.4v11.5c0,0.2-0.1,0.4-0.2,0.5s-0.3,0.2-0.5,0.2h-4.8
			c-0.2,0-0.4-0.1-0.5-0.2s-0.2-0.3-0.2-0.5V4.9c0-0.2,0.1-0.4,0.2-0.5c0.1-0.1,0.3-0.2,0.5-0.2h4.8c0.2,0,0.4,0.1,0.7,0.2
			s0.4,0.3,0.5,0.4l8.3,11.7c0.1,0.2,0.3,0.2,0.4,0.2c0.1,0,0.2-0.1,0.2-0.4V4.9c0-0.2,0.1-0.4,0.2-0.5c0.1-0.1,0.3-0.2,0.5-0.2h4.7
			c0.2,0,0.4,0.1,0.5,0.2C322.4,4.5,322.5,4.7,322.5,4.9z"/>
		<path class="st1" d="M338.6,28c-1.7,0-3.3-0.3-4.8-1c-1.5-0.6-2.8-1.5-3.9-2.6c-1.1-1.1-2-2.4-2.7-3.8c-0.7-1.5-1-3-1-4.7
			c0-1.7,0.3-3.2,1-4.7c0.7-1.5,1.5-2.8,2.7-3.9c1.1-1.1,2.4-2,3.9-2.6c1.5-0.6,3.1-1,4.8-1c2.3,0,4.4,0.5,6.1,1.4
			c1.7,1,3.2,2.3,4.2,4c0.1,0.2,0.1,0.4,0.1,0.6c-0.1,0.2-0.2,0.4-0.3,0.5l-3.8,2.5c-0.2,0.1-0.4,0.1-0.6,0.1
			c-0.2,0-0.4-0.1-0.5-0.3c-0.7-0.8-1.4-1.5-2.2-2c-0.8-0.5-1.8-0.7-2.9-0.7c-0.8,0-1.6,0.2-2.3,0.5c-0.7,0.3-1.3,0.8-1.9,1.3
			c-0.5,0.6-1,1.2-1.3,1.9c-0.3,0.7-0.5,1.5-0.5,2.3c0,0.8,0.2,1.6,0.5,2.3c0.3,0.7,0.7,1.4,1.3,1.9s1.2,1,1.9,1.3
			c0.7,0.3,1.5,0.5,2.3,0.5s1.6-0.1,2.4-0.4c0.8-0.3,1.4-0.8,1.9-1.5c0.1-0.2,0.1-0.3,0-0.5c-0.1-0.1-0.2-0.2-0.4-0.2h-3.7
			c-0.2,0-0.4-0.1-0.5-0.2c-0.2-0.1-0.2-0.3-0.2-0.5v-3.8c0-0.2,0.1-0.4,0.2-0.5c0.1-0.1,0.3-0.2,0.5-0.2h11c0.2,0,0.4,0.1,0.6,0.2
			s0.3,0.3,0.3,0.6c0,0.4,0.1,0.8,0.1,1.3s0,1.1-0.1,1.6c-0.1,1.5-0.6,2.8-1.2,4.1c-0.7,1.3-1.6,2.3-2.6,3.3
			c-1.1,0.9-2.3,1.6-3.7,2.2S340.1,28,338.6,28z"/>
		<path class="st1" d="M391.3,5v21.9c0,0.2-0.1,0.4-0.2,0.5s-0.3,0.2-0.5,0.2h-4.8c-0.2,0-0.4-0.1-0.5-0.2S385,27,385,26.8V16.5
			c0-0.2-0.1-0.3-0.3-0.4s-0.4,0.1-0.5,0.2l-5.4,8.7c-0.1,0.2-0.3,0.3-0.5,0.3s-0.4-0.1-0.5-0.3l-5.4-8.7c-0.1-0.2-0.3-0.2-0.5-0.2
			s-0.3,0.1-0.3,0.4v10.3c0,0.2-0.1,0.4-0.2,0.5c-0.1,0.1-0.3,0.2-0.5,0.2h-4.8c-0.2,0-0.4-0.1-0.5-0.2s-0.2-0.3-0.2-0.5V5
			c0-0.2,0.1-0.4,0.2-0.5s0.3-0.2,0.5-0.2h4.5c0.2,0,0.4,0.1,0.7,0.2s0.4,0.3,0.5,0.4l6.2,9c0.1,0.2,0.3,0.3,0.4,0.3
			s0.3-0.1,0.4-0.3l6.2-9c0.1-0.2,0.3-0.3,0.5-0.4s0.5-0.2,0.7-0.2h4.5c0.2,0,0.4,0.1,0.5,0.2C391.2,4.6,391.3,4.7,391.3,5z"/>
		<path class="st1" d="M402.9,4.9c0.1-0.2,0.2-0.4,0.4-0.5c0.2-0.1,0.4-0.2,0.7-0.2h4.5c0.2,0,0.4,0.1,0.6,0.2
			c0.2,0.1,0.3,0.3,0.4,0.5l9.3,21.8c0.1,0.2,0.1,0.4,0,0.6c-0.1,0.2-0.3,0.3-0.7,0.3h-5.5c-0.2,0-0.5-0.1-0.7-0.2
			c-0.2-0.1-0.4-0.3-0.5-0.5l-0.9-1.9c-0.1-0.2-0.3-0.4-0.5-0.5c-0.2-0.1-0.4-0.2-0.6-0.2h-6.8c-0.2,0-0.5,0.1-0.7,0.2
			c-0.2,0.1-0.3,0.3-0.4,0.5l-0.9,1.9c-0.1,0.2-0.2,0.4-0.4,0.5c-0.2,0.1-0.4,0.2-0.6,0.2h-5.5c-0.1,0-0.2,0-0.3-0.1
			c-0.1,0-0.2-0.1-0.3-0.2c-0.1-0.1-0.1-0.2-0.1-0.3c0-0.1,0-0.3,0.1-0.4L402.9,4.9z M404.8,18.8h2.8c0.2,0,0.4-0.1,0.5-0.2
			s0.1-0.3,0-0.5c-0.2-0.5-0.5-1.2-0.8-1.9s-0.6-1.4-0.8-2c-0.1-0.2-0.2-0.3-0.3-0.3c-0.1,0-0.2,0.1-0.3,0.3l-1.6,3.9
			c-0.1,0.2-0.1,0.4,0,0.5S404.6,18.8,404.8,18.8z"/>
		<path class="st1" d="M425.5,27.6h-4.8c-0.2,0-0.4-0.1-0.5-0.2c-0.2-0.1-0.2-0.3-0.2-0.5V4.9c0-0.2,0.1-0.4,0.2-0.5
			c0.1-0.1,0.3-0.2,0.5-0.2h10c1.2,0,2.4,0.2,3.4,0.6c1,0.4,1.9,1,2.7,1.7c0.7,0.7,1.3,1.6,1.7,2.7c0.4,1,0.6,2.2,0.6,3.4
			c0,0.7-0.1,1.4-0.2,2c-0.2,0.7-0.4,1.3-0.7,1.9c-0.3,0.6-0.7,1.1-1.1,1.6c-0.4,0.5-0.9,0.9-1.4,1.2c-0.2,0.1-0.3,0.3-0.3,0.5
			c-0.1,0.2,0,0.4,0.1,0.5c0.8,1.1,1.7,2.2,2.6,3.3c0.9,1.1,1.7,2.2,2.4,3.1c0.1,0.2,0.2,0.4,0.1,0.6c-0.1,0.2-0.2,0.3-0.4,0.3h-6
			c-0.2,0-0.4-0.1-0.7-0.2s-0.4-0.3-0.6-0.4c-0.7-0.9-1.4-1.8-2-2.7c-0.7-0.9-1.3-1.8-2-2.8c-0.1-0.2-0.3-0.3-0.5-0.4
			s-0.5-0.2-0.7-0.2H427c-0.2,0-0.4,0.1-0.5,0.2c-0.1,0.1-0.2,0.3-0.2,0.5v5.2c0,0.2-0.1,0.4-0.2,0.5
			C425.9,27.5,425.7,27.6,425.5,27.6z M427,15h3.4c0.3,0,0.5,0,0.8-0.1c0.3-0.1,0.5-0.2,0.8-0.4c0.2-0.2,0.4-0.5,0.6-0.8
			c0.1-0.3,0.2-0.7,0.2-1.1c0-0.2,0-0.5-0.1-0.8s-0.2-0.6-0.4-0.8c-0.2-0.3-0.4-0.5-0.7-0.7c-0.3-0.2-0.7-0.3-1.1-0.3H427
			c-0.2,0-0.4,0.1-0.5,0.2c-0.1,0.1-0.2,0.3-0.2,0.5v3.4c0,0.2,0.1,0.4,0.2,0.5C426.6,14.9,426.8,15,427,15z"/>
		<path class="st1" d="M448.7,27.6h-4.8c-0.2,0-0.4-0.1-0.6-0.2c-0.1-0.1-0.2-0.3-0.2-0.5V5c0-0.2,0.1-0.4,0.2-0.5
			c0.1-0.1,0.3-0.2,0.6-0.2h4.8c0.2,0,0.4,0.1,0.5,0.2s0.2,0.3,0.2,0.5v21.9c0,0.2-0.1,0.4-0.2,0.5S448.9,27.6,448.7,27.6z"/>
		<path class="st1" d="M452.8,15.9c0-1.7,0.3-3.2,1-4.7s1.5-2.8,2.6-3.9c1.1-1.1,2.4-2,3.8-2.6c1.5-0.6,3-1,4.7-1s3.2,0.3,4.7,1
			s2.8,1.5,3.9,2.6c1.1,1.1,2,2.4,2.6,3.9c0.6,1.5,1,3,1,4.7c0,1.7-0.3,3.2-1,4.7c-0.6,1.5-1.5,2.8-2.6,3.9c-1.1,1.1-2.4,2-3.9,2.6
			s-3,1-4.7,1s-3.2-0.3-4.7-1c-1.5-0.6-2.8-1.5-3.8-2.6c-1.1-1.1-2-2.4-2.6-3.9C453.1,19.1,452.8,17.5,452.8,15.9z M459.1,15.9
			c0,0.8,0.1,1.6,0.4,2.3c0.3,0.7,0.7,1.4,1.2,1.9c0.5,0.6,1.1,1,1.8,1.3c0.7,0.3,1.5,0.5,2.2,0.5s1.5-0.2,2.2-0.5
			c0.7-0.3,1.3-0.8,1.9-1.3c0.5-0.6,0.9-1.2,1.2-1.9c0.3-0.7,0.4-1.5,0.4-2.3c0-0.8-0.1-1.6-0.4-2.3s-0.7-1.4-1.2-1.9
			c-0.5-0.5-1.2-1-1.9-1.3c-0.7-0.3-1.5-0.5-2.2-0.5s-1.5,0.2-2.2,0.5c-0.7,0.3-1.3,0.8-1.8,1.3s-0.9,1.2-1.2,1.9
			C459.2,14.3,459.1,15.1,459.1,15.9z"/>
	</g>
</g>
</svg>
