<?xml version="1.0" encoding="utf-8"?>
<!-- Generator: Adobe Illustrator 26.3.1, SVG Export Plug-In . SVG Version: 6.00 Build 0)  -->
<svg version="1.1" id="Layer_2_00000140015005826120607650000002432148684639916964_"
	 xmlns="http://www.w3.org/2000/svg" xmlns:xlink="http://www.w3.org/1999/xlink" x="0px" y="0px" viewBox="0 0 655.3 28"
	 style="enable-background:new 0 0 655.3 28;" xml:space="preserve">
<style type="text/css">
	.st0{fill:#A65D42;}
</style>
<g id="Layer_1-2">
	<g>
		<path class="st0" d="M71,21.5c-0.6,1-1.3,1.9-2,2.7c-0.7,0.8-1.6,1.5-2.5,2.1c-0.9,0.6-1.9,1-3.1,1.3C62.3,27.9,61,28,59.7,28
			c-1.7,0-3.3-0.3-4.7-0.9c-1.5-0.6-2.8-1.5-3.9-2.6s-2-2.3-2.6-3.8c-0.6-1.5-0.9-3-0.9-4.7s0.3-3.2,0.9-4.7
			c0.6-1.5,1.5-2.7,2.6-3.8c1.1-1.1,2.4-1.9,3.9-2.6c1.5-0.6,3.1-0.9,4.7-0.9c1.4,0,2.7,0.2,3.8,0.5c1.1,0.3,2.1,0.8,3,1.3
			c0.9,0.6,1.7,1.3,2.5,2.1s1.4,1.7,2,2.7c0.1,0.2,0.1,0.4,0.1,0.5c-0.1,0.2-0.2,0.3-0.4,0.4l-4.5,1.8c-0.2,0.1-0.4,0.1-0.6,0
			c-0.2-0.1-0.4-0.2-0.5-0.4c-0.6-1-1.4-1.7-2.2-2.2C62,10.3,60.9,10,59.7,10c-0.8,0-1.6,0.2-2.3,0.5c-0.7,0.3-1.3,0.8-1.8,1.4
			c-0.5,0.6-0.9,1.2-1.2,1.9c-0.3,0.7-0.4,1.5-0.4,2.3c0,0.8,0.1,1.6,0.4,2.3c0.3,0.7,0.7,1.4,1.2,1.9c0.5,0.5,1.1,1,1.8,1.3
			c0.7,0.3,1.5,0.5,2.3,0.5c1.2,0,2.2-0.3,3.1-0.8c0.9-0.6,1.7-1.3,2.2-2.2c0.1-0.2,0.3-0.3,0.5-0.4c0.2-0.1,0.4-0.1,0.6,0l4.5,1.8
			c0.2,0.1,0.3,0.2,0.4,0.4S71.1,21.3,71,21.5L71,21.5z"/>
		<path class="st0" d="M72.3,16.1c0-1.6,0.3-3.2,0.9-4.7c0.6-1.5,1.5-2.7,2.6-3.8s2.3-1.9,3.8-2.6s3-0.9,4.7-0.9
			c1.6,0,3.2,0.3,4.7,0.9s2.7,1.5,3.8,2.6c1.1,1.1,1.9,2.4,2.6,3.8s0.9,3,0.9,4.7s-0.3,3.2-0.9,4.7c-0.6,1.5-1.5,2.7-2.6,3.8
			c-1.1,1.1-2.4,1.9-3.8,2.6c-1.5,0.6-3,0.9-4.7,0.9c-1.7,0-3.2-0.3-4.7-0.9c-1.5-0.6-2.7-1.5-3.8-2.6c-1.1-1.1-1.9-2.4-2.6-3.8
			C72.6,19.3,72.3,17.7,72.3,16.1z M78.6,16.1c0,0.8,0.1,1.6,0.4,2.3c0.3,0.7,0.7,1.4,1.2,1.9s1.1,1,1.8,1.3
			c0.7,0.3,1.4,0.5,2.2,0.5c0.8,0,1.5-0.2,2.2-0.5c0.7-0.3,1.3-0.8,1.8-1.3c0.5-0.5,0.9-1.2,1.2-1.9c0.3-0.7,0.4-1.5,0.4-2.3
			c0-0.8-0.1-1.5-0.4-2.3c-0.3-0.7-0.7-1.4-1.2-1.9c-0.5-0.5-1.1-1-1.8-1.3c-0.7-0.3-1.4-0.5-2.2-0.5c-0.8,0-1.5,0.2-2.2,0.5
			c-0.7,0.3-1.3,0.8-1.8,1.3c-0.5,0.5-0.9,1.2-1.2,1.9C78.7,14.5,78.6,15.3,78.6,16.1z"/>
		<path class="st0" d="M125.3,5.3v21.6c0,0.2-0.1,0.4-0.2,0.5c-0.1,0.1-0.3,0.2-0.5,0.2h-4.8c-0.2,0-0.4-0.1-0.5-0.2
			c-0.1-0.1-0.2-0.3-0.2-0.5V16.7c0-0.2-0.1-0.3-0.3-0.4s-0.4,0.1-0.5,0.2l-5.3,8.6c-0.1,0.2-0.3,0.3-0.5,0.3
			c-0.2,0-0.4-0.1-0.5-0.3l-5.3-8.6c-0.1-0.2-0.3-0.2-0.4-0.2s-0.3,0.1-0.3,0.4v10.2c0,0.2-0.1,0.4-0.2,0.5
			c-0.1,0.1-0.3,0.2-0.5,0.2h-4.8c-0.2,0-0.4-0.1-0.5-0.2s-0.2-0.3-0.2-0.5V5.3c0-0.2,0.1-0.4,0.2-0.5s0.3-0.2,0.5-0.2h4.4
			c0.2,0,0.4,0.1,0.7,0.2c0.2,0.1,0.4,0.3,0.5,0.4l6.1,8.9c0.1,0.2,0.3,0.3,0.4,0.3s0.3-0.1,0.4-0.3l6.1-8.9
			c0.1-0.2,0.3-0.3,0.5-0.4c0.2-0.1,0.5-0.2,0.7-0.2h4.4c0.2,0,0.4,0.1,0.5,0.2C125.2,4.9,125.3,5.1,125.3,5.3L125.3,5.3z"/>
		<path class="st0" d="M156.2,5.3v21.6c0,0.2-0.1,0.4-0.2,0.5c-0.1,0.1-0.3,0.2-0.5,0.2h-4.8c-0.2,0-0.4-0.1-0.5-0.2
			c-0.1-0.1-0.2-0.3-0.2-0.5V16.7c0-0.2-0.1-0.3-0.3-0.4c-0.2,0-0.4,0.1-0.5,0.2l-5.3,8.6c-0.1,0.2-0.3,0.3-0.5,0.3
			c-0.2,0-0.4-0.1-0.5-0.3l-5.3-8.6c-0.1-0.2-0.3-0.2-0.4-0.2s-0.3,0.1-0.3,0.4v10.2c0,0.2-0.1,0.4-0.2,0.5s-0.3,0.2-0.5,0.2h-4.8
			c-0.2,0-0.4-0.1-0.5-0.2c-0.2-0.1-0.2-0.3-0.2-0.5V5.3c0-0.2,0.1-0.4,0.2-0.5c0.1-0.1,0.3-0.2,0.5-0.2h4.4c0.2,0,0.4,0.1,0.7,0.2
			c0.2,0.1,0.4,0.3,0.5,0.4l6.1,8.9c0.1,0.2,0.3,0.3,0.4,0.3s0.3-0.1,0.4-0.3l6.1-8.9c0.1-0.2,0.3-0.3,0.5-0.4
			c0.2-0.1,0.5-0.2,0.7-0.2h4.4c0.2,0,0.4,0.1,0.5,0.2C156.1,4.9,156.2,5.1,156.2,5.3L156.2,5.3z"/>
		<path class="st0" d="M159,16.1c0-1.6,0.3-3.2,0.9-4.7c0.6-1.5,1.5-2.7,2.6-3.8c1.1-1.1,2.3-1.9,3.8-2.6s3-0.9,4.7-0.9
			s3.2,0.3,4.7,0.9s2.7,1.5,3.8,2.6s1.9,2.4,2.6,3.8s0.9,3,0.9,4.7s-0.3,3.2-0.9,4.7c-0.6,1.5-1.5,2.7-2.6,3.8s-2.4,1.9-3.8,2.6
			c-1.5,0.6-3,0.9-4.7,0.9c-1.6,0-3.2-0.3-4.7-0.9c-1.5-0.6-2.7-1.5-3.8-2.6c-1.1-1.1-1.9-2.4-2.6-3.8C159.3,19.3,159,17.7,159,16.1
			z M165.2,16.1c0,0.8,0.1,1.6,0.4,2.3c0.3,0.7,0.7,1.4,1.2,1.9s1.1,1,1.8,1.3c0.7,0.3,1.4,0.5,2.2,0.5s1.5-0.2,2.2-0.5
			c0.7-0.3,1.3-0.8,1.8-1.3c0.5-0.5,0.9-1.2,1.2-1.9s0.4-1.5,0.4-2.3c0-0.8-0.1-1.5-0.4-2.3c-0.3-0.7-0.7-1.4-1.2-1.9
			c-0.5-0.5-1.1-1-1.8-1.3c-0.7-0.3-1.4-0.5-2.2-0.5s-1.5,0.2-2.2,0.5c-0.7,0.3-1.3,0.8-1.8,1.3c-0.5,0.5-0.9,1.2-1.2,1.9
			C165.4,14.5,165.2,15.3,165.2,16.1z"/>
		<path class="st0" d="M207.9,5.2v21.6c0,0.2-0.1,0.4-0.2,0.5c-0.1,0.1-0.3,0.2-0.5,0.2h-4.7c-0.2,0-0.4-0.1-0.7-0.2
			c-0.2-0.1-0.4-0.3-0.5-0.4l-8.2-11.6c-0.1-0.2-0.3-0.2-0.4-0.2c-0.1,0-0.2,0.2-0.2,0.4v11.3c0,0.2-0.1,0.4-0.2,0.5
			c-0.1,0.1-0.3,0.2-0.5,0.2H187c-0.2,0-0.4-0.1-0.5-0.2c-0.1-0.1-0.2-0.3-0.2-0.5V5.2c0-0.2,0.1-0.4,0.2-0.5s0.3-0.2,0.5-0.2h4.7
			c0.2,0,0.4,0.1,0.7,0.2c0.2,0.1,0.4,0.3,0.5,0.4l8.2,11.6c0.1,0.2,0.3,0.2,0.4,0.2c0.1,0,0.2-0.1,0.2-0.4V5.2
			c0-0.2,0.1-0.4,0.2-0.5c0.1-0.1,0.3-0.2,0.5-0.2h4.7c0.2,0,0.4,0.1,0.5,0.2C207.9,4.8,207.9,5,207.9,5.2L207.9,5.2z"/>
		<path class="st0" d="M221.8,5.4c-0.1-0.3-0.1-0.5,0-0.6c0.1-0.2,0.3-0.3,0.5-0.3h5.2c0.2,0,0.4,0.1,0.6,0.2
			c0.2,0.1,0.3,0.3,0.4,0.5l3.6,10.5c0.1,0.2,0.2,0.3,0.3,0.3s0.3-0.1,0.3-0.3l3.5-10.5c0.1-0.2,0.2-0.4,0.4-0.5
			c0.2-0.1,0.4-0.2,0.6-0.2h4.2c0.2,0,0.4,0.1,0.6,0.2c0.2,0.1,0.3,0.3,0.4,0.5l3.5,10.6c0.1,0.2,0.2,0.3,0.3,0.3
			c0.2,0,0.3-0.1,0.4-0.3l3.6-10.6c0.1-0.2,0.2-0.4,0.4-0.5c0.2-0.1,0.4-0.2,0.6-0.2h5.1c0.2,0,0.4,0.1,0.5,0.3
			c0.1,0.2,0.1,0.4,0,0.6l-7.7,21.6c-0.1,0.2-0.2,0.4-0.4,0.5c-0.2,0.1-0.4,0.2-0.6,0.2h-4.1c-0.2,0-0.4-0.1-0.6-0.2
			c-0.2-0.1-0.3-0.3-0.4-0.5l-3.5-10.5c-0.1-0.2-0.2-0.3-0.3-0.3c-0.2,0-0.3,0.1-0.3,0.3l-3.5,10.5c-0.1,0.2-0.2,0.4-0.4,0.5
			c-0.2,0.1-0.4,0.2-0.6,0.2h-4.1c-0.2,0-0.4-0.1-0.6-0.2c-0.2-0.2-0.3-0.3-0.4-0.5L221.8,5.4z"/>
		<path class="st0" d="M257.3,16.1c0-1.6,0.3-3.2,0.9-4.7c0.6-1.5,1.5-2.7,2.6-3.8s2.3-1.9,3.8-2.6c1.5-0.6,3-0.9,4.7-0.9
			c1.7,0,3.2,0.3,4.7,0.9s2.7,1.5,3.8,2.6s1.9,2.4,2.6,3.8s0.9,3,0.9,4.7s-0.3,3.2-0.9,4.7c-0.6,1.5-1.5,2.7-2.6,3.8
			s-2.4,1.9-3.8,2.6c-1.5,0.6-3,0.9-4.7,0.9c-1.6,0-3.2-0.3-4.7-0.9c-1.5-0.6-2.7-1.5-3.8-2.6c-1.1-1.1-1.9-2.4-2.6-3.8
			S257.3,17.7,257.3,16.1L257.3,16.1z M263.6,16.1c0,0.8,0.1,1.6,0.4,2.3c0.3,0.7,0.7,1.4,1.2,1.9s1.1,1,1.8,1.3
			c0.7,0.3,1.4,0.5,2.2,0.5c0.8,0,1.5-0.2,2.2-0.5c0.7-0.3,1.3-0.8,1.8-1.3c0.5-0.5,0.9-1.2,1.2-1.9c0.3-0.7,0.4-1.5,0.4-2.3
			c0-0.8-0.1-1.5-0.4-2.3c-0.3-0.7-0.7-1.4-1.2-1.9c-0.5-0.5-1.1-1-1.8-1.3c-0.7-0.3-1.4-0.5-2.2-0.5c-0.8,0-1.5,0.2-2.2,0.5
			c-0.7,0.3-1.3,0.8-1.8,1.3c-0.5,0.5-0.9,1.2-1.2,1.9C263.7,14.5,263.6,15.3,263.6,16.1L263.6,16.1z"/>
		<path class="st0" d="M290.1,27.6h-4.7c-0.2,0-0.4-0.1-0.5-0.2c-0.1-0.1-0.2-0.3-0.2-0.5V5.2c0-0.2,0.1-0.4,0.2-0.5
			c0.1-0.1,0.3-0.2,0.5-0.2h9.8c1.2,0,2.4,0.2,3.4,0.6s1.9,1,2.6,1.7c0.7,0.7,1.3,1.6,1.7,2.6c0.4,1,0.6,2.1,0.6,3.4
			c0,0.7-0.1,1.3-0.2,2c-0.2,0.7-0.4,1.3-0.7,1.9c-0.3,0.6-0.6,1.1-1,1.6c-0.4,0.5-0.9,0.9-1.4,1.2c-0.2,0.1-0.3,0.3-0.3,0.5
			c-0.1,0.2,0,0.4,0.1,0.5c0.8,1.1,1.6,2.1,2.5,3.3s1.7,2.1,2.4,3.1c0.1,0.2,0.2,0.4,0.1,0.6c-0.1,0.2-0.2,0.3-0.4,0.3h-5.9
			c-0.2,0-0.4-0.1-0.7-0.2c-0.2-0.1-0.4-0.3-0.6-0.4c-0.7-0.9-1.3-1.8-2-2.7c-0.7-0.9-1.3-1.8-2-2.8c-0.1-0.2-0.3-0.3-0.5-0.4
			c-0.2-0.1-0.5-0.2-0.7-0.2h-0.7c-0.2,0-0.4,0.1-0.5,0.2s-0.2,0.3-0.2,0.5v5.1c0,0.2-0.1,0.4-0.2,0.5
			C290.4,27.6,290.3,27.6,290.1,27.6L290.1,27.6z M291.6,15.2h3.3c0.2,0,0.5-0.1,0.8-0.1c0.3-0.1,0.5-0.2,0.8-0.4
			c0.2-0.2,0.4-0.4,0.6-0.7s0.2-0.6,0.2-1c0-0.2,0-0.5-0.1-0.7c-0.1-0.3-0.2-0.6-0.4-0.8c-0.2-0.3-0.4-0.5-0.7-0.7
			c-0.3-0.2-0.7-0.3-1.1-0.3h-3.3c-0.2,0-0.4,0.1-0.5,0.2c-0.1,0.1-0.2,0.3-0.2,0.5v3.4c0,0.2,0.1,0.4,0.2,0.5
			C291.2,15.1,291.4,15.2,291.6,15.2L291.6,15.2z"/>
		<path class="st0" d="M320.3,27.1l-6.1-6.9c-0.1-0.2-0.3-0.2-0.4-0.2s-0.1,0.2-0.1,0.4v6.5c0,0.2-0.1,0.4-0.2,0.5s-0.3,0.2-0.5,0.2
			h-4.7c-0.2,0-0.4-0.1-0.6-0.2s-0.2-0.3-0.2-0.5V5.2c0-0.2,0.1-0.4,0.2-0.5s0.3-0.2,0.6-0.2h4.7c0.2,0,0.4,0.1,0.5,0.2
			s0.2,0.3,0.2,0.5v7.3c0,0.2,0,0.3,0.1,0.4c0.1,0,0.2,0,0.3-0.2l5.7-7.6c0.1-0.2,0.3-0.3,0.5-0.4c0.2-0.1,0.5-0.2,0.7-0.2h6
			c0.2,0,0.4,0.1,0.4,0.3c0.1,0.2,0,0.4-0.1,0.6l-8.3,10.4c-0.1,0.2-0.2,0.4-0.2,0.6c0,0.2,0.1,0.4,0.2,0.6c0.7,0.8,1.5,1.6,2.3,2.4
			c0.8,0.8,1.6,1.7,2.4,2.5c0.8,0.9,1.6,1.7,2.3,2.5c0.8,0.8,1.5,1.6,2.2,2.3c0.1,0.2,0.2,0.4,0.2,0.6c0,0.2-0.2,0.3-0.4,0.3h-6.5
			c-0.2,0-0.5-0.1-0.7-0.2C320.6,27.4,320.4,27.2,320.3,27.1L320.3,27.1z"/>
		<path class="st0" d="M340.3,21.4h-2.8c-0.2,0-0.4,0.1-0.5,0.2c-0.1,0.1-0.2,0.3-0.2,0.5v4.7c0,0.2-0.1,0.4-0.2,0.5
			c-0.1,0.1-0.3,0.2-0.5,0.2h-4.8c-0.2,0-0.4-0.1-0.5-0.2c-0.1-0.1-0.2-0.3-0.2-0.5V5.2c0-0.2,0.1-0.4,0.2-0.5s0.3-0.2,0.5-0.2h9.7
			c1.2,0,2.3,0.2,3.3,0.7c1,0.4,1.9,1.1,2.7,1.8c0.8,0.8,1.4,1.7,1.8,2.7c0.5,1,0.7,2.1,0.7,3.3s-0.2,2.3-0.6,3.3
			c-0.4,1-1,1.9-1.7,2.7s-1.7,1.3-2.9,1.8C343.2,21.2,341.8,21.4,340.3,21.4L340.3,21.4z M340.5,10.3h-3c-0.2,0-0.4,0.1-0.5,0.2
			c-0.1,0.1-0.2,0.3-0.2,0.5v3.7c0,0.2,0.1,0.4,0.2,0.5c0.1,0.1,0.3,0.2,0.5,0.2h3.4c0.8,0,1.4-0.3,1.8-0.8c0.4-0.5,0.6-1.1,0.6-1.7
			c0-0.3-0.1-0.7-0.2-1c-0.1-0.3-0.3-0.6-0.5-0.9s-0.5-0.5-0.9-0.6C341.4,10.4,341,10.3,340.5,10.3L340.5,10.3z"/>
		<path class="st0" d="M369.3,22.6v4.3c0,0.2-0.1,0.4-0.2,0.5c-0.1,0.1-0.3,0.2-0.5,0.2h-15.8c-0.2,0-0.4-0.1-0.6-0.2
			c-0.1-0.1-0.2-0.3-0.2-0.5V5.2c0-0.2,0.1-0.4,0.2-0.5c0.1-0.1,0.3-0.2,0.6-0.2h4.7c0.2,0,0.4,0.1,0.5,0.2s0.2,0.3,0.2,0.5v15.8
			c0,0.2,0.1,0.4,0.2,0.5c0.1,0.1,0.3,0.2,0.6,0.2h9.5c0.2,0,0.4,0.1,0.5,0.2C369.2,22.2,369.3,22.4,369.3,22.6L369.3,22.6z"/>
		<path class="st0" d="M379,5.2c0.1-0.2,0.2-0.4,0.4-0.5c0.2-0.1,0.4-0.2,0.6-0.2h4.4c0.2,0,0.4,0.1,0.6,0.2
			c0.2,0.1,0.3,0.3,0.4,0.5l9.2,21.5c0.1,0.2,0.1,0.4-0.1,0.6c-0.1,0.2-0.3,0.3-0.7,0.3h-5.4c-0.2,0-0.4-0.1-0.6-0.2
			c-0.2-0.1-0.4-0.3-0.5-0.5l-0.9-1.9c-0.1-0.2-0.3-0.4-0.5-0.5c-0.2-0.1-0.4-0.2-0.6-0.2h-6.7c-0.2,0-0.4,0.1-0.6,0.2
			c-0.2,0.1-0.3,0.3-0.4,0.5l-0.9,1.9c-0.1,0.2-0.2,0.4-0.4,0.5s-0.4,0.2-0.6,0.2h-5.4c-0.1,0-0.2,0-0.3-0.1c-0.1,0-0.2-0.1-0.3-0.2
			c-0.1-0.1-0.1-0.2-0.1-0.3c0-0.1,0-0.3,0.1-0.4L379,5.2L379,5.2z M380.9,19h2.8c0.2,0,0.4-0.1,0.5-0.2c0.1-0.1,0.1-0.3,0-0.5
			c-0.2-0.5-0.5-1.1-0.8-1.9c-0.3-0.7-0.6-1.4-0.8-2c-0.1-0.2-0.2-0.3-0.3-0.3s-0.2,0.1-0.3,0.3l-1.6,3.8c-0.1,0.2-0.1,0.4,0,0.5
			S380.6,19,380.9,19L380.9,19z"/>
		<path class="st0" d="M418.1,21.5c-0.6,1-1.3,1.9-2,2.7c-0.7,0.8-1.6,1.5-2.5,2.1c-0.9,0.6-1.9,1-3.1,1.3c-1.1,0.3-2.4,0.5-3.7,0.5
			c-1.7,0-3.3-0.3-4.7-0.9c-1.5-0.6-2.8-1.5-3.9-2.6c-1.1-1.1-2-2.3-2.6-3.8c-0.6-1.5-0.9-3-0.9-4.7s0.3-3.2,0.9-4.7
			c0.6-1.5,1.5-2.7,2.6-3.8c1.1-1.1,2.4-1.9,3.9-2.6c1.5-0.6,3.1-0.9,4.7-0.9c1.4,0,2.6,0.2,3.8,0.5s2.1,0.8,3,1.3
			c0.9,0.6,1.7,1.3,2.5,2.1c0.7,0.8,1.4,1.7,2,2.7c0.1,0.2,0.1,0.4,0.1,0.5c-0.1,0.2-0.2,0.3-0.4,0.4l-4.5,1.8
			c-0.2,0.1-0.4,0.1-0.6,0c-0.2-0.1-0.4-0.2-0.5-0.4c-0.6-1-1.4-1.7-2.2-2.2c-0.9-0.5-1.9-0.8-3.1-0.8c-0.8,0-1.6,0.2-2.3,0.5
			c-0.7,0.3-1.3,0.8-1.9,1.4c-0.5,0.6-0.9,1.2-1.2,1.9c-0.3,0.7-0.4,1.5-0.4,2.3c0,0.8,0.1,1.6,0.4,2.3c0.3,0.7,0.7,1.4,1.2,1.9
			c0.5,0.5,1.1,1,1.9,1.3c0.7,0.3,1.5,0.5,2.3,0.5c1.2,0,2.2-0.3,3.1-0.8c0.9-0.6,1.7-1.3,2.2-2.2c0.1-0.2,0.3-0.3,0.5-0.4
			c0.2-0.1,0.4-0.1,0.6,0l4.5,1.8c0.2,0.1,0.3,0.2,0.4,0.4C418.3,21.1,418.3,21.3,418.1,21.5L418.1,21.5z"/>
		<path class="st0" d="M426.7,11.1v1.3c0,0.2,0.1,0.4,0.2,0.5c0.1,0.1,0.3,0.2,0.5,0.2h8.6c0.2,0,0.4,0.1,0.5,0.2
			c0.1,0.1,0.2,0.3,0.2,0.5v4.4c0,0.2-0.1,0.4-0.2,0.5s-0.3,0.2-0.5,0.2h-8.6c-0.2,0-0.4,0.1-0.5,0.2c-0.1,0.1-0.2,0.3-0.2,0.5V21
			c0,0.2,0.1,0.4,0.2,0.5c0.1,0.1,0.3,0.2,0.5,0.2h9.8c0.2,0,0.4,0.1,0.5,0.2c0.1,0.1,0.2,0.3,0.2,0.5v4.4c0,0.2-0.1,0.4-0.2,0.5
			c-0.1,0.1-0.3,0.2-0.5,0.2h-16.1c-0.2,0-0.4-0.1-0.5-0.2c-0.1-0.1-0.2-0.3-0.2-0.5V5.2c0-0.2,0.1-0.4,0.2-0.5
			c0.1-0.1,0.3-0.2,0.5-0.2h16.1c0.2,0,0.4,0.1,0.5,0.2c0.1,0.1,0.2,0.3,0.2,0.5v4.3c0,0.2-0.1,0.4-0.2,0.5
			c-0.1,0.1-0.3,0.2-0.5,0.2h-9.8c-0.2,0-0.4,0.1-0.5,0.2C426.8,10.7,426.7,10.8,426.7,11.1z"/>
		<path class="st0" d="M458.7,27.6H454c-0.2,0-0.4-0.1-0.5-0.2c-0.1-0.1-0.2-0.3-0.2-0.5V5.3c0-0.2,0.1-0.4,0.2-0.5
			c0.1-0.1,0.3-0.2,0.5-0.2h4.8c0.2,0,0.4,0.1,0.5,0.2c0.2,0.1,0.2,0.3,0.2,0.5v21.6c0,0.2-0.1,0.4-0.2,0.5
			C459.1,27.6,458.9,27.6,458.7,27.6z"/>
		<path class="st0" d="M485.5,5.2v21.6c0,0.2-0.1,0.4-0.2,0.5c-0.1,0.1-0.3,0.2-0.5,0.2H480c-0.2,0-0.4-0.1-0.7-0.2
			c-0.2-0.1-0.4-0.3-0.5-0.4l-8.2-11.6c-0.1-0.2-0.3-0.2-0.4-0.2c-0.1,0-0.2,0.2-0.2,0.4v11.3c0,0.2-0.1,0.4-0.2,0.5
			c-0.1,0.1-0.3,0.2-0.5,0.2h-4.7c-0.2,0-0.4-0.1-0.5-0.2c-0.1-0.1-0.2-0.3-0.2-0.5V5.2c0-0.2,0.1-0.4,0.2-0.5
			c0.1-0.1,0.3-0.2,0.5-0.2h4.7c0.2,0,0.4,0.1,0.7,0.2c0.2,0.1,0.4,0.3,0.5,0.4l8.2,11.6c0.1,0.2,0.3,0.2,0.4,0.2
			c0.1,0,0.2-0.1,0.2-0.4V5.2c0-0.2,0.1-0.4,0.2-0.5c0.1-0.1,0.3-0.2,0.5-0.2h4.7c0.2,0,0.4,0.1,0.5,0.2S485.5,5,485.5,5.2
			L485.5,5.2z"/>
		<path class="st0" d="M505.2,5.3v13.5c0,1.4-0.2,2.7-0.6,3.8s-1,2.1-1.8,2.9c-0.8,0.8-1.7,1.5-2.8,1.9c-1.1,0.4-2.3,0.7-3.6,0.7
			c-1.8,0-3.3-0.5-4.7-1.4c-1.4-0.9-2.5-2.2-3.3-3.9c-0.1-0.2-0.1-0.4,0-0.6c0.1-0.2,0.2-0.4,0.4-0.5l3.6-1.8
			c0.2-0.1,0.4-0.1,0.6-0.1c0.2,0.1,0.4,0.2,0.5,0.4c0.3,0.5,0.7,1,1.2,1.4c0.5,0.4,1.1,0.6,1.7,0.6c0.6,0,1-0.1,1.4-0.4
			c0.3-0.2,0.6-0.5,0.8-0.9c0.2-0.4,0.3-0.7,0.4-1.1c0.1-0.4,0.1-0.7,0.1-1V5.3c0-0.2,0.1-0.4,0.2-0.5s0.3-0.2,0.5-0.2h4.7
			c0.2,0,0.4,0.1,0.6,0.2C505.1,4.9,505.2,5.1,505.2,5.3L505.2,5.3z"/>
		<path class="st0" d="M509.5,5.3c0-0.2,0.1-0.4,0.2-0.5s0.3-0.2,0.5-0.2h4.8c0.2,0,0.4,0.1,0.5,0.2c0.2,0.1,0.2,0.3,0.2,0.5v12.8
			c0,0.8,0.1,1.5,0.4,2c0.3,0.5,0.6,1,1,1.3c0.4,0.3,0.8,0.5,1.3,0.6c0.4,0.1,0.8,0.2,1.2,0.2c0.4,0,0.8-0.1,1.2-0.2
			c0.4-0.1,0.9-0.3,1.2-0.6s0.7-0.7,1-1.3c0.3-0.5,0.4-1.2,0.4-2V5.3c0-0.2,0.1-0.4,0.2-0.5c0.2-0.1,0.3-0.2,0.5-0.2h4.8
			c0.2,0,0.4,0.1,0.5,0.2s0.2,0.3,0.2,0.5v12.8c0,1.5-0.2,2.9-0.7,4.1c-0.5,1.2-1.2,2.3-2,3.1c-0.9,0.9-1.9,1.5-3.2,2
			c-1.2,0.5-2.6,0.7-4.1,0.7s-2.9-0.2-4.1-0.7c-1.2-0.5-2.3-1.1-3.2-2c-0.9-0.9-1.6-1.9-2.1-3.1c-0.5-1.2-0.7-2.6-0.7-4.1L509.5,5.3
			L509.5,5.3z"/>
		<path class="st0" d="M539.9,27.6h-4.7c-0.2,0-0.4-0.1-0.5-0.2c-0.1-0.1-0.2-0.3-0.2-0.5V5.2c0-0.2,0.1-0.4,0.2-0.5
			s0.3-0.2,0.5-0.2h9.8c1.2,0,2.4,0.2,3.4,0.6c1,0.4,1.9,1,2.6,1.7c0.7,0.7,1.3,1.6,1.7,2.6s0.6,2.1,0.6,3.4c0,0.7-0.1,1.3-0.2,2
			c-0.2,0.7-0.4,1.3-0.7,1.9c-0.3,0.6-0.6,1.1-1,1.6c-0.4,0.5-0.9,0.9-1.4,1.2c-0.2,0.1-0.3,0.3-0.3,0.5c-0.1,0.2,0,0.4,0.1,0.5
			c0.8,1.1,1.6,2.1,2.5,3.3c0.9,1.1,1.7,2.1,2.4,3.1c0.1,0.2,0.2,0.4,0.1,0.6c-0.1,0.2-0.2,0.3-0.4,0.3h-5.9c-0.2,0-0.4-0.1-0.7-0.2
			c-0.2-0.1-0.4-0.3-0.6-0.4c-0.7-0.9-1.3-1.8-2-2.7c-0.7-0.9-1.3-1.8-2-2.8c-0.1-0.2-0.3-0.3-0.5-0.4c-0.2-0.1-0.5-0.2-0.7-0.2
			h-0.7c-0.2,0-0.4,0.1-0.5,0.2c-0.2,0.1-0.2,0.3-0.2,0.5v5.1c0,0.2-0.1,0.4-0.2,0.5S540.1,27.6,539.9,27.6z M541.5,15.2h3.3
			c0.2,0,0.5-0.1,0.8-0.1c0.3-0.1,0.5-0.2,0.8-0.4c0.2-0.2,0.4-0.4,0.6-0.7s0.2-0.6,0.2-1c0-0.2,0-0.5-0.1-0.7
			c-0.1-0.3-0.2-0.6-0.4-0.8c-0.2-0.3-0.4-0.5-0.7-0.7s-0.7-0.3-1.1-0.3h-3.3c-0.2,0-0.4,0.1-0.5,0.2c-0.1,0.1-0.2,0.3-0.2,0.5v3.4
			c0,0.2,0.1,0.4,0.2,0.5C541.1,15.1,541.2,15.2,541.5,15.2L541.5,15.2z"/>
		<path class="st0" d="M562.9,27.6h-4.8c-0.2,0-0.4-0.1-0.5-0.2c-0.1-0.1-0.2-0.3-0.2-0.5V5.3c0-0.2,0.1-0.4,0.2-0.5
			s0.3-0.2,0.5-0.2h4.8c0.2,0,0.4,0.1,0.5,0.2c0.2,0.1,0.2,0.3,0.2,0.5v21.6c0,0.2-0.1,0.4-0.2,0.5
			C563.3,27.6,563.2,27.6,562.9,27.6z"/>
		<path class="st0" d="M574.2,11.1v1.3c0,0.2,0.1,0.4,0.2,0.5c0.1,0.1,0.3,0.2,0.5,0.2h8.6c0.2,0,0.4,0.1,0.5,0.2
			c0.1,0.1,0.2,0.3,0.2,0.5v4.4c0,0.2-0.1,0.4-0.2,0.5c-0.1,0.1-0.3,0.2-0.5,0.2h-8.6c-0.2,0-0.4,0.1-0.5,0.2
			c-0.1,0.1-0.2,0.3-0.2,0.5V21c0,0.2,0.1,0.4,0.2,0.5c0.1,0.1,0.3,0.2,0.5,0.2h9.8c0.2,0,0.4,0.1,0.5,0.2c0.1,0.1,0.2,0.3,0.2,0.5
			v4.4c0,0.2-0.1,0.4-0.2,0.5c-0.1,0.1-0.3,0.2-0.5,0.2h-16.1c-0.2,0-0.4-0.1-0.5-0.2c-0.1-0.1-0.2-0.3-0.2-0.5V5.2
			c0-0.2,0.1-0.4,0.2-0.5c0.1-0.1,0.3-0.2,0.5-0.2h16.1c0.2,0,0.4,0.1,0.5,0.2c0.1,0.1,0.2,0.3,0.2,0.5v4.3c0,0.2-0.1,0.4-0.2,0.5
			c-0.1,0.1-0.3,0.2-0.5,0.2h-9.8c-0.2,0-0.4,0.1-0.5,0.2C574.2,10.7,574.2,10.8,574.2,11.1z"/>
		<path class="st0" d="M592.2,19.7c1.1,0.7,2.3,1.3,3.4,1.7c1.1,0.4,2.2,0.6,3.1,0.6c1,0,1.6-0.1,2.1-0.4c0.5-0.3,0.7-0.7,0.7-1.2
			c0-0.3-0.1-0.5-0.3-0.6c-0.2-0.2-0.5-0.3-0.8-0.4c-0.4-0.1-0.8-0.2-1.2-0.3c-0.5-0.1-0.9-0.1-1.4-0.3c-0.5-0.1-1-0.2-1.6-0.3
			c-0.6-0.1-1.3-0.3-1.9-0.5c-0.6-0.2-1.3-0.5-1.9-0.8c-0.6-0.3-1.2-0.8-1.7-1.3c-0.5-0.5-0.9-1.2-1.2-1.9c-0.3-0.7-0.5-1.6-0.5-2.6
			c0-1.5,0.3-2.7,0.9-3.6c0.6-0.9,1.3-1.7,2.2-2.3c0.9-0.6,1.8-0.9,2.9-1.2c1.1-0.2,2.1-0.3,3.1-0.3c1.8,0,3.4,0.3,4.8,0.8
			s2.7,1.3,4,2.3c0.2,0.1,0.3,0.3,0.3,0.5c0,0.2,0,0.4-0.2,0.6l-2.5,3.5c-0.1,0.2-0.3,0.3-0.5,0.3c-0.2,0-0.4,0-0.6-0.1
			c-1.1-0.7-2.1-1.2-3-1.4c-0.9-0.3-1.8-0.4-2.6-0.4c-0.2,0-0.5,0-0.8,0c-0.3,0-0.6,0.1-0.9,0.1c-0.3,0.1-0.5,0.2-0.7,0.4
			c-0.2,0.2-0.3,0.4-0.3,0.7s0.2,0.6,0.7,0.8c0.4,0.2,0.9,0.4,1.5,0.6c0.6,0.2,1.1,0.3,1.6,0.4c0.5,0.1,0.9,0.2,1,0.2
			c0.8,0.1,1.6,0.4,2.5,0.6c0.9,0.3,1.8,0.7,2.5,1.3c0.8,0.6,1.5,1.3,2,2.2c0.5,0.9,0.8,2,0.8,3.4c0,1.3-0.2,2.4-0.7,3.3
			c-0.4,0.9-1.1,1.7-1.9,2.3c-0.8,0.6-1.7,1-2.8,1.3c-1.1,0.3-2.3,0.4-3.7,0.4c-1.1,0-2.1-0.1-3.1-0.3c-0.9-0.2-1.8-0.4-2.7-0.7
			c-0.8-0.3-1.6-0.7-2.3-1.1c-0.7-0.4-1.4-0.9-1.9-1.4c-0.2-0.1-0.3-0.3-0.3-0.5c0-0.2,0-0.4,0.2-0.6l2.4-3.5
			c0.1-0.2,0.3-0.3,0.5-0.3C591.8,19.6,592,19.6,592.2,19.7L592.2,19.7z"/>
	</g>
</g>
</svg>
